G04 #@! TF.GenerationSoftware,KiCad,Pcbnew,5.1.2-f72e74a~84~ubuntu18.04.1*
G04 #@! TF.CreationDate,2019-06-11T14:16:10-04:00*
G04 #@! TF.ProjectId,CEM3320_LPF_plug_in_board,43454d33-3332-4305-9f4c-50465f706c75,1*
G04 #@! TF.SameCoordinates,Original*
G04 #@! TF.FileFunction,Soldermask,Bot*
G04 #@! TF.FilePolarity,Negative*
%FSLAX46Y46*%
G04 Gerber Fmt 4.6, Leading zero omitted, Abs format (unit mm)*
G04 Created by KiCad (PCBNEW 5.1.2-f72e74a~84~ubuntu18.04.1) date 2019-06-11 14:16:10*
%MOMM*%
%LPD*%
G04 APERTURE LIST*
%ADD10C,0.100000*%
G04 APERTURE END LIST*
D10*
G36*
X182990442Y-123565518D02*
G01*
X183056627Y-123572037D01*
X183226466Y-123623557D01*
X183382991Y-123707222D01*
X183418729Y-123736552D01*
X183520186Y-123819814D01*
X183603448Y-123921271D01*
X183632778Y-123957009D01*
X183716443Y-124113534D01*
X183767963Y-124283373D01*
X183785359Y-124460000D01*
X183767963Y-124636627D01*
X183716443Y-124806466D01*
X183632778Y-124962991D01*
X183603448Y-124998729D01*
X183520186Y-125100186D01*
X183418729Y-125183448D01*
X183382991Y-125212778D01*
X183226466Y-125296443D01*
X183056627Y-125347963D01*
X182990442Y-125354482D01*
X182924260Y-125361000D01*
X182835740Y-125361000D01*
X182769558Y-125354482D01*
X182703373Y-125347963D01*
X182533534Y-125296443D01*
X182377009Y-125212778D01*
X182341271Y-125183448D01*
X182239814Y-125100186D01*
X182156552Y-124998729D01*
X182127222Y-124962991D01*
X182043557Y-124806466D01*
X181992037Y-124636627D01*
X181974641Y-124460000D01*
X181992037Y-124283373D01*
X182043557Y-124113534D01*
X182127222Y-123957009D01*
X182156552Y-123921271D01*
X182239814Y-123819814D01*
X182341271Y-123736552D01*
X182377009Y-123707222D01*
X182533534Y-123623557D01*
X182703373Y-123572037D01*
X182769558Y-123565518D01*
X182835740Y-123559000D01*
X182924260Y-123559000D01*
X182990442Y-123565518D01*
X182990442Y-123565518D01*
G37*
G36*
X129650442Y-123565518D02*
G01*
X129716627Y-123572037D01*
X129886466Y-123623557D01*
X130042991Y-123707222D01*
X130078729Y-123736552D01*
X130180186Y-123819814D01*
X130263448Y-123921271D01*
X130292778Y-123957009D01*
X130376443Y-124113534D01*
X130427963Y-124283373D01*
X130445359Y-124460000D01*
X130427963Y-124636627D01*
X130376443Y-124806466D01*
X130292778Y-124962991D01*
X130263448Y-124998729D01*
X130180186Y-125100186D01*
X130078729Y-125183448D01*
X130042991Y-125212778D01*
X129886466Y-125296443D01*
X129716627Y-125347963D01*
X129650442Y-125354482D01*
X129584260Y-125361000D01*
X129495740Y-125361000D01*
X129429558Y-125354482D01*
X129363373Y-125347963D01*
X129193534Y-125296443D01*
X129037009Y-125212778D01*
X129001271Y-125183448D01*
X128899814Y-125100186D01*
X128816552Y-124998729D01*
X128787222Y-124962991D01*
X128703557Y-124806466D01*
X128652037Y-124636627D01*
X128634641Y-124460000D01*
X128652037Y-124283373D01*
X128703557Y-124113534D01*
X128787222Y-123957009D01*
X128816552Y-123921271D01*
X128899814Y-123819814D01*
X129001271Y-123736552D01*
X129037009Y-123707222D01*
X129193534Y-123623557D01*
X129363373Y-123572037D01*
X129429558Y-123565518D01*
X129495740Y-123559000D01*
X129584260Y-123559000D01*
X129650442Y-123565518D01*
X129650442Y-123565518D01*
G37*
G36*
X182990442Y-121025518D02*
G01*
X183056627Y-121032037D01*
X183226466Y-121083557D01*
X183382991Y-121167222D01*
X183418729Y-121196552D01*
X183520186Y-121279814D01*
X183603448Y-121381271D01*
X183632778Y-121417009D01*
X183716443Y-121573534D01*
X183767963Y-121743373D01*
X183785359Y-121920000D01*
X183767963Y-122096627D01*
X183716443Y-122266466D01*
X183632778Y-122422991D01*
X183603448Y-122458729D01*
X183520186Y-122560186D01*
X183418729Y-122643448D01*
X183382991Y-122672778D01*
X183226466Y-122756443D01*
X183056627Y-122807963D01*
X182990443Y-122814481D01*
X182924260Y-122821000D01*
X182835740Y-122821000D01*
X182769557Y-122814481D01*
X182703373Y-122807963D01*
X182533534Y-122756443D01*
X182377009Y-122672778D01*
X182341271Y-122643448D01*
X182239814Y-122560186D01*
X182156552Y-122458729D01*
X182127222Y-122422991D01*
X182043557Y-122266466D01*
X181992037Y-122096627D01*
X181974641Y-121920000D01*
X181992037Y-121743373D01*
X182043557Y-121573534D01*
X182127222Y-121417009D01*
X182156552Y-121381271D01*
X182239814Y-121279814D01*
X182341271Y-121196552D01*
X182377009Y-121167222D01*
X182533534Y-121083557D01*
X182703373Y-121032037D01*
X182769558Y-121025518D01*
X182835740Y-121019000D01*
X182924260Y-121019000D01*
X182990442Y-121025518D01*
X182990442Y-121025518D01*
G37*
G36*
X129650442Y-121025518D02*
G01*
X129716627Y-121032037D01*
X129886466Y-121083557D01*
X130042991Y-121167222D01*
X130078729Y-121196552D01*
X130180186Y-121279814D01*
X130263448Y-121381271D01*
X130292778Y-121417009D01*
X130376443Y-121573534D01*
X130427963Y-121743373D01*
X130445359Y-121920000D01*
X130427963Y-122096627D01*
X130376443Y-122266466D01*
X130292778Y-122422991D01*
X130263448Y-122458729D01*
X130180186Y-122560186D01*
X130078729Y-122643448D01*
X130042991Y-122672778D01*
X129886466Y-122756443D01*
X129716627Y-122807963D01*
X129650443Y-122814481D01*
X129584260Y-122821000D01*
X129495740Y-122821000D01*
X129429557Y-122814481D01*
X129363373Y-122807963D01*
X129193534Y-122756443D01*
X129037009Y-122672778D01*
X129001271Y-122643448D01*
X128899814Y-122560186D01*
X128816552Y-122458729D01*
X128787222Y-122422991D01*
X128703557Y-122266466D01*
X128652037Y-122096627D01*
X128634641Y-121920000D01*
X128652037Y-121743373D01*
X128703557Y-121573534D01*
X128787222Y-121417009D01*
X128816552Y-121381271D01*
X128899814Y-121279814D01*
X129001271Y-121196552D01*
X129037009Y-121167222D01*
X129193534Y-121083557D01*
X129363373Y-121032037D01*
X129429558Y-121025518D01*
X129495740Y-121019000D01*
X129584260Y-121019000D01*
X129650442Y-121025518D01*
X129650442Y-121025518D01*
G37*
G36*
X129650442Y-118485518D02*
G01*
X129716627Y-118492037D01*
X129886466Y-118543557D01*
X130042991Y-118627222D01*
X130078729Y-118656552D01*
X130180186Y-118739814D01*
X130263448Y-118841271D01*
X130292778Y-118877009D01*
X130376443Y-119033534D01*
X130427963Y-119203373D01*
X130445359Y-119380000D01*
X130427963Y-119556627D01*
X130376443Y-119726466D01*
X130292778Y-119882991D01*
X130263448Y-119918729D01*
X130180186Y-120020186D01*
X130078729Y-120103448D01*
X130042991Y-120132778D01*
X129886466Y-120216443D01*
X129716627Y-120267963D01*
X129650442Y-120274482D01*
X129584260Y-120281000D01*
X129495740Y-120281000D01*
X129429558Y-120274482D01*
X129363373Y-120267963D01*
X129193534Y-120216443D01*
X129037009Y-120132778D01*
X129001271Y-120103448D01*
X128899814Y-120020186D01*
X128816552Y-119918729D01*
X128787222Y-119882991D01*
X128703557Y-119726466D01*
X128652037Y-119556627D01*
X128634641Y-119380000D01*
X128652037Y-119203373D01*
X128703557Y-119033534D01*
X128787222Y-118877009D01*
X128816552Y-118841271D01*
X128899814Y-118739814D01*
X129001271Y-118656552D01*
X129037009Y-118627222D01*
X129193534Y-118543557D01*
X129363373Y-118492037D01*
X129429558Y-118485518D01*
X129495740Y-118479000D01*
X129584260Y-118479000D01*
X129650442Y-118485518D01*
X129650442Y-118485518D01*
G37*
G36*
X182990442Y-118485518D02*
G01*
X183056627Y-118492037D01*
X183226466Y-118543557D01*
X183382991Y-118627222D01*
X183418729Y-118656552D01*
X183520186Y-118739814D01*
X183603448Y-118841271D01*
X183632778Y-118877009D01*
X183716443Y-119033534D01*
X183767963Y-119203373D01*
X183785359Y-119380000D01*
X183767963Y-119556627D01*
X183716443Y-119726466D01*
X183632778Y-119882991D01*
X183603448Y-119918729D01*
X183520186Y-120020186D01*
X183418729Y-120103448D01*
X183382991Y-120132778D01*
X183226466Y-120216443D01*
X183056627Y-120267963D01*
X182990442Y-120274482D01*
X182924260Y-120281000D01*
X182835740Y-120281000D01*
X182769558Y-120274482D01*
X182703373Y-120267963D01*
X182533534Y-120216443D01*
X182377009Y-120132778D01*
X182341271Y-120103448D01*
X182239814Y-120020186D01*
X182156552Y-119918729D01*
X182127222Y-119882991D01*
X182043557Y-119726466D01*
X181992037Y-119556627D01*
X181974641Y-119380000D01*
X181992037Y-119203373D01*
X182043557Y-119033534D01*
X182127222Y-118877009D01*
X182156552Y-118841271D01*
X182239814Y-118739814D01*
X182341271Y-118656552D01*
X182377009Y-118627222D01*
X182533534Y-118543557D01*
X182703373Y-118492037D01*
X182769558Y-118485518D01*
X182835740Y-118479000D01*
X182924260Y-118479000D01*
X182990442Y-118485518D01*
X182990442Y-118485518D01*
G37*
G36*
X182990442Y-115945518D02*
G01*
X183056627Y-115952037D01*
X183226466Y-116003557D01*
X183382991Y-116087222D01*
X183418729Y-116116552D01*
X183520186Y-116199814D01*
X183603448Y-116301271D01*
X183632778Y-116337009D01*
X183716443Y-116493534D01*
X183767963Y-116663373D01*
X183785359Y-116840000D01*
X183767963Y-117016627D01*
X183716443Y-117186466D01*
X183632778Y-117342991D01*
X183603448Y-117378729D01*
X183520186Y-117480186D01*
X183418729Y-117563448D01*
X183382991Y-117592778D01*
X183226466Y-117676443D01*
X183056627Y-117727963D01*
X182990442Y-117734482D01*
X182924260Y-117741000D01*
X182835740Y-117741000D01*
X182769558Y-117734482D01*
X182703373Y-117727963D01*
X182533534Y-117676443D01*
X182377009Y-117592778D01*
X182341271Y-117563448D01*
X182239814Y-117480186D01*
X182156552Y-117378729D01*
X182127222Y-117342991D01*
X182043557Y-117186466D01*
X181992037Y-117016627D01*
X181974641Y-116840000D01*
X181992037Y-116663373D01*
X182043557Y-116493534D01*
X182127222Y-116337009D01*
X182156552Y-116301271D01*
X182239814Y-116199814D01*
X182341271Y-116116552D01*
X182377009Y-116087222D01*
X182533534Y-116003557D01*
X182703373Y-115952037D01*
X182769558Y-115945518D01*
X182835740Y-115939000D01*
X182924260Y-115939000D01*
X182990442Y-115945518D01*
X182990442Y-115945518D01*
G37*
G36*
X130441000Y-117741000D02*
G01*
X128639000Y-117741000D01*
X128639000Y-115939000D01*
X130441000Y-115939000D01*
X130441000Y-117741000D01*
X130441000Y-117741000D01*
G37*
G36*
X182990443Y-113405519D02*
G01*
X183056627Y-113412037D01*
X183226466Y-113463557D01*
X183382991Y-113547222D01*
X183418729Y-113576552D01*
X183520186Y-113659814D01*
X183603448Y-113761271D01*
X183632778Y-113797009D01*
X183716443Y-113953534D01*
X183767963Y-114123373D01*
X183785359Y-114300000D01*
X183767963Y-114476627D01*
X183716443Y-114646466D01*
X183632778Y-114802991D01*
X183603448Y-114838729D01*
X183520186Y-114940186D01*
X183418729Y-115023448D01*
X183382991Y-115052778D01*
X183226466Y-115136443D01*
X183056627Y-115187963D01*
X182990442Y-115194482D01*
X182924260Y-115201000D01*
X182835740Y-115201000D01*
X182769558Y-115194482D01*
X182703373Y-115187963D01*
X182533534Y-115136443D01*
X182377009Y-115052778D01*
X182341271Y-115023448D01*
X182239814Y-114940186D01*
X182156552Y-114838729D01*
X182127222Y-114802991D01*
X182043557Y-114646466D01*
X181992037Y-114476627D01*
X181974641Y-114300000D01*
X181992037Y-114123373D01*
X182043557Y-113953534D01*
X182127222Y-113797009D01*
X182156552Y-113761271D01*
X182239814Y-113659814D01*
X182341271Y-113576552D01*
X182377009Y-113547222D01*
X182533534Y-113463557D01*
X182703373Y-113412037D01*
X182769557Y-113405519D01*
X182835740Y-113399000D01*
X182924260Y-113399000D01*
X182990443Y-113405519D01*
X182990443Y-113405519D01*
G37*
G36*
X182990442Y-110865518D02*
G01*
X183056627Y-110872037D01*
X183226466Y-110923557D01*
X183382991Y-111007222D01*
X183418729Y-111036552D01*
X183520186Y-111119814D01*
X183603448Y-111221271D01*
X183632778Y-111257009D01*
X183716443Y-111413534D01*
X183767963Y-111583373D01*
X183785359Y-111760000D01*
X183767963Y-111936627D01*
X183716443Y-112106466D01*
X183632778Y-112262991D01*
X183603448Y-112298729D01*
X183520186Y-112400186D01*
X183418729Y-112483448D01*
X183382991Y-112512778D01*
X183226466Y-112596443D01*
X183056627Y-112647963D01*
X182990442Y-112654482D01*
X182924260Y-112661000D01*
X182835740Y-112661000D01*
X182769558Y-112654482D01*
X182703373Y-112647963D01*
X182533534Y-112596443D01*
X182377009Y-112512778D01*
X182341271Y-112483448D01*
X182239814Y-112400186D01*
X182156552Y-112298729D01*
X182127222Y-112262991D01*
X182043557Y-112106466D01*
X181992037Y-111936627D01*
X181974641Y-111760000D01*
X181992037Y-111583373D01*
X182043557Y-111413534D01*
X182127222Y-111257009D01*
X182156552Y-111221271D01*
X182239814Y-111119814D01*
X182341271Y-111036552D01*
X182377009Y-111007222D01*
X182533534Y-110923557D01*
X182703373Y-110872037D01*
X182769558Y-110865518D01*
X182835740Y-110859000D01*
X182924260Y-110859000D01*
X182990442Y-110865518D01*
X182990442Y-110865518D01*
G37*
G36*
X182990443Y-108325519D02*
G01*
X183056627Y-108332037D01*
X183226466Y-108383557D01*
X183382991Y-108467222D01*
X183418729Y-108496552D01*
X183520186Y-108579814D01*
X183603448Y-108681271D01*
X183632778Y-108717009D01*
X183716443Y-108873534D01*
X183767963Y-109043373D01*
X183785359Y-109220000D01*
X183767963Y-109396627D01*
X183716443Y-109566466D01*
X183632778Y-109722991D01*
X183603448Y-109758729D01*
X183520186Y-109860186D01*
X183418729Y-109943448D01*
X183382991Y-109972778D01*
X183226466Y-110056443D01*
X183056627Y-110107963D01*
X182990443Y-110114481D01*
X182924260Y-110121000D01*
X182835740Y-110121000D01*
X182769557Y-110114481D01*
X182703373Y-110107963D01*
X182533534Y-110056443D01*
X182377009Y-109972778D01*
X182341271Y-109943448D01*
X182239814Y-109860186D01*
X182156552Y-109758729D01*
X182127222Y-109722991D01*
X182043557Y-109566466D01*
X181992037Y-109396627D01*
X181974641Y-109220000D01*
X181992037Y-109043373D01*
X182043557Y-108873534D01*
X182127222Y-108717009D01*
X182156552Y-108681271D01*
X182239814Y-108579814D01*
X182341271Y-108496552D01*
X182377009Y-108467222D01*
X182533534Y-108383557D01*
X182703373Y-108332037D01*
X182769557Y-108325519D01*
X182835740Y-108319000D01*
X182924260Y-108319000D01*
X182990443Y-108325519D01*
X182990443Y-108325519D01*
G37*
G36*
X168396228Y-106115703D02*
G01*
X168551100Y-106179853D01*
X168690481Y-106272985D01*
X168809015Y-106391519D01*
X168902147Y-106530900D01*
X168966297Y-106685772D01*
X168999000Y-106850184D01*
X168999000Y-107017816D01*
X168966297Y-107182228D01*
X168902147Y-107337100D01*
X168809015Y-107476481D01*
X168690481Y-107595015D01*
X168551100Y-107688147D01*
X168396228Y-107752297D01*
X168231816Y-107785000D01*
X168064184Y-107785000D01*
X167899772Y-107752297D01*
X167744900Y-107688147D01*
X167605519Y-107595015D01*
X167486985Y-107476481D01*
X167393853Y-107337100D01*
X167329703Y-107182228D01*
X167297000Y-107017816D01*
X167297000Y-106850184D01*
X167329703Y-106685772D01*
X167393853Y-106530900D01*
X167486985Y-106391519D01*
X167605519Y-106272985D01*
X167744900Y-106179853D01*
X167899772Y-106115703D01*
X168064184Y-106083000D01*
X168231816Y-106083000D01*
X168396228Y-106115703D01*
X168396228Y-106115703D01*
G37*
G36*
X163396228Y-106115703D02*
G01*
X163551100Y-106179853D01*
X163690481Y-106272985D01*
X163809015Y-106391519D01*
X163902147Y-106530900D01*
X163966297Y-106685772D01*
X163999000Y-106850184D01*
X163999000Y-107017816D01*
X163966297Y-107182228D01*
X163902147Y-107337100D01*
X163809015Y-107476481D01*
X163690481Y-107595015D01*
X163551100Y-107688147D01*
X163396228Y-107752297D01*
X163231816Y-107785000D01*
X163064184Y-107785000D01*
X162899772Y-107752297D01*
X162744900Y-107688147D01*
X162605519Y-107595015D01*
X162486985Y-107476481D01*
X162393853Y-107337100D01*
X162329703Y-107182228D01*
X162297000Y-107017816D01*
X162297000Y-106850184D01*
X162329703Y-106685772D01*
X162393853Y-106530900D01*
X162486985Y-106391519D01*
X162605519Y-106272985D01*
X162744900Y-106179853D01*
X162899772Y-106115703D01*
X163064184Y-106083000D01*
X163231816Y-106083000D01*
X163396228Y-106115703D01*
X163396228Y-106115703D01*
G37*
G36*
X183781000Y-107581000D02*
G01*
X181979000Y-107581000D01*
X181979000Y-105779000D01*
X183781000Y-105779000D01*
X183781000Y-107581000D01*
X183781000Y-107581000D01*
G37*
G36*
X153156228Y-102479703D02*
G01*
X153311100Y-102543853D01*
X153450481Y-102636985D01*
X153569015Y-102755519D01*
X153662147Y-102894900D01*
X153726297Y-103049772D01*
X153759000Y-103214184D01*
X153759000Y-103381816D01*
X153726297Y-103546228D01*
X153662147Y-103701100D01*
X153569015Y-103840481D01*
X153450481Y-103959015D01*
X153311100Y-104052147D01*
X153156228Y-104116297D01*
X152991816Y-104149000D01*
X152824184Y-104149000D01*
X152659772Y-104116297D01*
X152504900Y-104052147D01*
X152365519Y-103959015D01*
X152246985Y-103840481D01*
X152153853Y-103701100D01*
X152089703Y-103546228D01*
X152057000Y-103381816D01*
X152057000Y-103214184D01*
X152089703Y-103049772D01*
X152153853Y-102894900D01*
X152246985Y-102755519D01*
X152365519Y-102636985D01*
X152504900Y-102543853D01*
X152659772Y-102479703D01*
X152824184Y-102447000D01*
X152991816Y-102447000D01*
X153156228Y-102479703D01*
X153156228Y-102479703D01*
G37*
G36*
X158236228Y-102479703D02*
G01*
X158391100Y-102543853D01*
X158530481Y-102636985D01*
X158649015Y-102755519D01*
X158742147Y-102894900D01*
X158806297Y-103049772D01*
X158839000Y-103214184D01*
X158839000Y-103381816D01*
X158806297Y-103546228D01*
X158742147Y-103701100D01*
X158649015Y-103840481D01*
X158530481Y-103959015D01*
X158391100Y-104052147D01*
X158236228Y-104116297D01*
X158071816Y-104149000D01*
X157904184Y-104149000D01*
X157739772Y-104116297D01*
X157584900Y-104052147D01*
X157445519Y-103959015D01*
X157326985Y-103840481D01*
X157233853Y-103701100D01*
X157169703Y-103546228D01*
X157137000Y-103381816D01*
X157137000Y-103214184D01*
X157169703Y-103049772D01*
X157233853Y-102894900D01*
X157326985Y-102755519D01*
X157445519Y-102636985D01*
X157584900Y-102543853D01*
X157739772Y-102479703D01*
X157904184Y-102447000D01*
X158071816Y-102447000D01*
X158236228Y-102479703D01*
X158236228Y-102479703D01*
G37*
G36*
X153156228Y-97479703D02*
G01*
X153311100Y-97543853D01*
X153450481Y-97636985D01*
X153569015Y-97755519D01*
X153662147Y-97894900D01*
X153726297Y-98049772D01*
X153759000Y-98214184D01*
X153759000Y-98381816D01*
X153726297Y-98546228D01*
X153662147Y-98701100D01*
X153569015Y-98840481D01*
X153450481Y-98959015D01*
X153311100Y-99052147D01*
X153156228Y-99116297D01*
X152991816Y-99149000D01*
X152824184Y-99149000D01*
X152659772Y-99116297D01*
X152504900Y-99052147D01*
X152365519Y-98959015D01*
X152246985Y-98840481D01*
X152153853Y-98701100D01*
X152089703Y-98546228D01*
X152057000Y-98381816D01*
X152057000Y-98214184D01*
X152089703Y-98049772D01*
X152153853Y-97894900D01*
X152246985Y-97755519D01*
X152365519Y-97636985D01*
X152504900Y-97543853D01*
X152659772Y-97479703D01*
X152824184Y-97447000D01*
X152991816Y-97447000D01*
X153156228Y-97479703D01*
X153156228Y-97479703D01*
G37*
G36*
X158236228Y-97479703D02*
G01*
X158391100Y-97543853D01*
X158530481Y-97636985D01*
X158649015Y-97755519D01*
X158742147Y-97894900D01*
X158806297Y-98049772D01*
X158839000Y-98214184D01*
X158839000Y-98381816D01*
X158806297Y-98546228D01*
X158742147Y-98701100D01*
X158649015Y-98840481D01*
X158530481Y-98959015D01*
X158391100Y-99052147D01*
X158236228Y-99116297D01*
X158071816Y-99149000D01*
X157904184Y-99149000D01*
X157739772Y-99116297D01*
X157584900Y-99052147D01*
X157445519Y-98959015D01*
X157326985Y-98840481D01*
X157233853Y-98701100D01*
X157169703Y-98546228D01*
X157137000Y-98381816D01*
X157137000Y-98214184D01*
X157169703Y-98049772D01*
X157233853Y-97894900D01*
X157326985Y-97755519D01*
X157445519Y-97636985D01*
X157584900Y-97543853D01*
X157739772Y-97479703D01*
X157904184Y-97447000D01*
X158071816Y-97447000D01*
X158236228Y-97479703D01*
X158236228Y-97479703D01*
G37*
G36*
X168314823Y-94919313D02*
G01*
X168475242Y-94967976D01*
X168607906Y-95038886D01*
X168623078Y-95046996D01*
X168752659Y-95153341D01*
X168859004Y-95282922D01*
X168859005Y-95282924D01*
X168938024Y-95430758D01*
X168986687Y-95591177D01*
X169003117Y-95758000D01*
X168986687Y-95924823D01*
X168938024Y-96085242D01*
X168867114Y-96217906D01*
X168859004Y-96233078D01*
X168752659Y-96362659D01*
X168623078Y-96469004D01*
X168623076Y-96469005D01*
X168475242Y-96548024D01*
X168314823Y-96596687D01*
X168189804Y-96609000D01*
X168106196Y-96609000D01*
X167981177Y-96596687D01*
X167820758Y-96548024D01*
X167672924Y-96469005D01*
X167672922Y-96469004D01*
X167543341Y-96362659D01*
X167436996Y-96233078D01*
X167428886Y-96217906D01*
X167357976Y-96085242D01*
X167309313Y-95924823D01*
X167292883Y-95758000D01*
X167309313Y-95591177D01*
X167357976Y-95430758D01*
X167436995Y-95282924D01*
X167436996Y-95282922D01*
X167543341Y-95153341D01*
X167672922Y-95046996D01*
X167688094Y-95038886D01*
X167820758Y-94967976D01*
X167981177Y-94919313D01*
X168106196Y-94907000D01*
X168189804Y-94907000D01*
X168314823Y-94919313D01*
X168314823Y-94919313D01*
G37*
G36*
X150534823Y-94919313D02*
G01*
X150695242Y-94967976D01*
X150827906Y-95038886D01*
X150843078Y-95046996D01*
X150972659Y-95153341D01*
X151079004Y-95282922D01*
X151079005Y-95282924D01*
X151158024Y-95430758D01*
X151206687Y-95591177D01*
X151223117Y-95758000D01*
X151206687Y-95924823D01*
X151158024Y-96085242D01*
X151087114Y-96217906D01*
X151079004Y-96233078D01*
X150972659Y-96362659D01*
X150843078Y-96469004D01*
X150843076Y-96469005D01*
X150695242Y-96548024D01*
X150534823Y-96596687D01*
X150409804Y-96609000D01*
X150326196Y-96609000D01*
X150201177Y-96596687D01*
X150040758Y-96548024D01*
X149892924Y-96469005D01*
X149892922Y-96469004D01*
X149763341Y-96362659D01*
X149656996Y-96233078D01*
X149648886Y-96217906D01*
X149577976Y-96085242D01*
X149529313Y-95924823D01*
X149512883Y-95758000D01*
X149529313Y-95591177D01*
X149577976Y-95430758D01*
X149656995Y-95282924D01*
X149656996Y-95282922D01*
X149763341Y-95153341D01*
X149892922Y-95046996D01*
X149908094Y-95038886D01*
X150040758Y-94967976D01*
X150201177Y-94919313D01*
X150326196Y-94907000D01*
X150409804Y-94907000D01*
X150534823Y-94919313D01*
X150534823Y-94919313D01*
G37*
G36*
X153074823Y-94919313D02*
G01*
X153235242Y-94967976D01*
X153367906Y-95038886D01*
X153383078Y-95046996D01*
X153512659Y-95153341D01*
X153619004Y-95282922D01*
X153619005Y-95282924D01*
X153698024Y-95430758D01*
X153746687Y-95591177D01*
X153763117Y-95758000D01*
X153746687Y-95924823D01*
X153698024Y-96085242D01*
X153627114Y-96217906D01*
X153619004Y-96233078D01*
X153512659Y-96362659D01*
X153383078Y-96469004D01*
X153383076Y-96469005D01*
X153235242Y-96548024D01*
X153074823Y-96596687D01*
X152949804Y-96609000D01*
X152866196Y-96609000D01*
X152741177Y-96596687D01*
X152580758Y-96548024D01*
X152432924Y-96469005D01*
X152432922Y-96469004D01*
X152303341Y-96362659D01*
X152196996Y-96233078D01*
X152188886Y-96217906D01*
X152117976Y-96085242D01*
X152069313Y-95924823D01*
X152052883Y-95758000D01*
X152069313Y-95591177D01*
X152117976Y-95430758D01*
X152196995Y-95282924D01*
X152196996Y-95282922D01*
X152303341Y-95153341D01*
X152432922Y-95046996D01*
X152448094Y-95038886D01*
X152580758Y-94967976D01*
X152741177Y-94919313D01*
X152866196Y-94907000D01*
X152949804Y-94907000D01*
X153074823Y-94919313D01*
X153074823Y-94919313D01*
G37*
G36*
X155614823Y-94919313D02*
G01*
X155775242Y-94967976D01*
X155907906Y-95038886D01*
X155923078Y-95046996D01*
X156052659Y-95153341D01*
X156159004Y-95282922D01*
X156159005Y-95282924D01*
X156238024Y-95430758D01*
X156286687Y-95591177D01*
X156303117Y-95758000D01*
X156286687Y-95924823D01*
X156238024Y-96085242D01*
X156167114Y-96217906D01*
X156159004Y-96233078D01*
X156052659Y-96362659D01*
X155923078Y-96469004D01*
X155923076Y-96469005D01*
X155775242Y-96548024D01*
X155614823Y-96596687D01*
X155489804Y-96609000D01*
X155406196Y-96609000D01*
X155281177Y-96596687D01*
X155120758Y-96548024D01*
X154972924Y-96469005D01*
X154972922Y-96469004D01*
X154843341Y-96362659D01*
X154736996Y-96233078D01*
X154728886Y-96217906D01*
X154657976Y-96085242D01*
X154609313Y-95924823D01*
X154592883Y-95758000D01*
X154609313Y-95591177D01*
X154657976Y-95430758D01*
X154736995Y-95282924D01*
X154736996Y-95282922D01*
X154843341Y-95153341D01*
X154972922Y-95046996D01*
X154988094Y-95038886D01*
X155120758Y-94967976D01*
X155281177Y-94919313D01*
X155406196Y-94907000D01*
X155489804Y-94907000D01*
X155614823Y-94919313D01*
X155614823Y-94919313D01*
G37*
G36*
X160694823Y-94919313D02*
G01*
X160855242Y-94967976D01*
X160987906Y-95038886D01*
X161003078Y-95046996D01*
X161132659Y-95153341D01*
X161239004Y-95282922D01*
X161239005Y-95282924D01*
X161318024Y-95430758D01*
X161366687Y-95591177D01*
X161383117Y-95758000D01*
X161366687Y-95924823D01*
X161318024Y-96085242D01*
X161247114Y-96217906D01*
X161239004Y-96233078D01*
X161132659Y-96362659D01*
X161003078Y-96469004D01*
X161003076Y-96469005D01*
X160855242Y-96548024D01*
X160694823Y-96596687D01*
X160569804Y-96609000D01*
X160486196Y-96609000D01*
X160361177Y-96596687D01*
X160200758Y-96548024D01*
X160052924Y-96469005D01*
X160052922Y-96469004D01*
X159923341Y-96362659D01*
X159816996Y-96233078D01*
X159808886Y-96217906D01*
X159737976Y-96085242D01*
X159689313Y-95924823D01*
X159672883Y-95758000D01*
X159689313Y-95591177D01*
X159737976Y-95430758D01*
X159816995Y-95282924D01*
X159816996Y-95282922D01*
X159923341Y-95153341D01*
X160052922Y-95046996D01*
X160068094Y-95038886D01*
X160200758Y-94967976D01*
X160361177Y-94919313D01*
X160486196Y-94907000D01*
X160569804Y-94907000D01*
X160694823Y-94919313D01*
X160694823Y-94919313D01*
G37*
G36*
X163234823Y-94919313D02*
G01*
X163395242Y-94967976D01*
X163527906Y-95038886D01*
X163543078Y-95046996D01*
X163672659Y-95153341D01*
X163779004Y-95282922D01*
X163779005Y-95282924D01*
X163858024Y-95430758D01*
X163906687Y-95591177D01*
X163923117Y-95758000D01*
X163906687Y-95924823D01*
X163858024Y-96085242D01*
X163787114Y-96217906D01*
X163779004Y-96233078D01*
X163672659Y-96362659D01*
X163543078Y-96469004D01*
X163543076Y-96469005D01*
X163395242Y-96548024D01*
X163234823Y-96596687D01*
X163109804Y-96609000D01*
X163026196Y-96609000D01*
X162901177Y-96596687D01*
X162740758Y-96548024D01*
X162592924Y-96469005D01*
X162592922Y-96469004D01*
X162463341Y-96362659D01*
X162356996Y-96233078D01*
X162348886Y-96217906D01*
X162277976Y-96085242D01*
X162229313Y-95924823D01*
X162212883Y-95758000D01*
X162229313Y-95591177D01*
X162277976Y-95430758D01*
X162356995Y-95282924D01*
X162356996Y-95282922D01*
X162463341Y-95153341D01*
X162592922Y-95046996D01*
X162608094Y-95038886D01*
X162740758Y-94967976D01*
X162901177Y-94919313D01*
X163026196Y-94907000D01*
X163109804Y-94907000D01*
X163234823Y-94919313D01*
X163234823Y-94919313D01*
G37*
G36*
X148679000Y-96609000D02*
G01*
X146977000Y-96609000D01*
X146977000Y-94907000D01*
X148679000Y-94907000D01*
X148679000Y-96609000D01*
X148679000Y-96609000D01*
G37*
G36*
X165774823Y-94919313D02*
G01*
X165935242Y-94967976D01*
X166067906Y-95038886D01*
X166083078Y-95046996D01*
X166212659Y-95153341D01*
X166319004Y-95282922D01*
X166319005Y-95282924D01*
X166398024Y-95430758D01*
X166446687Y-95591177D01*
X166463117Y-95758000D01*
X166446687Y-95924823D01*
X166398024Y-96085242D01*
X166327114Y-96217906D01*
X166319004Y-96233078D01*
X166212659Y-96362659D01*
X166083078Y-96469004D01*
X166083076Y-96469005D01*
X165935242Y-96548024D01*
X165774823Y-96596687D01*
X165649804Y-96609000D01*
X165566196Y-96609000D01*
X165441177Y-96596687D01*
X165280758Y-96548024D01*
X165132924Y-96469005D01*
X165132922Y-96469004D01*
X165003341Y-96362659D01*
X164896996Y-96233078D01*
X164888886Y-96217906D01*
X164817976Y-96085242D01*
X164769313Y-95924823D01*
X164752883Y-95758000D01*
X164769313Y-95591177D01*
X164817976Y-95430758D01*
X164896995Y-95282924D01*
X164896996Y-95282922D01*
X165003341Y-95153341D01*
X165132922Y-95046996D01*
X165148094Y-95038886D01*
X165280758Y-94967976D01*
X165441177Y-94919313D01*
X165566196Y-94907000D01*
X165649804Y-94907000D01*
X165774823Y-94919313D01*
X165774823Y-94919313D01*
G37*
G36*
X158154823Y-94919313D02*
G01*
X158315242Y-94967976D01*
X158447906Y-95038886D01*
X158463078Y-95046996D01*
X158592659Y-95153341D01*
X158699004Y-95282922D01*
X158699005Y-95282924D01*
X158778024Y-95430758D01*
X158826687Y-95591177D01*
X158843117Y-95758000D01*
X158826687Y-95924823D01*
X158778024Y-96085242D01*
X158707114Y-96217906D01*
X158699004Y-96233078D01*
X158592659Y-96362659D01*
X158463078Y-96469004D01*
X158463076Y-96469005D01*
X158315242Y-96548024D01*
X158154823Y-96596687D01*
X158029804Y-96609000D01*
X157946196Y-96609000D01*
X157821177Y-96596687D01*
X157660758Y-96548024D01*
X157512924Y-96469005D01*
X157512922Y-96469004D01*
X157383341Y-96362659D01*
X157276996Y-96233078D01*
X157268886Y-96217906D01*
X157197976Y-96085242D01*
X157149313Y-95924823D01*
X157132883Y-95758000D01*
X157149313Y-95591177D01*
X157197976Y-95430758D01*
X157276995Y-95282924D01*
X157276996Y-95282922D01*
X157383341Y-95153341D01*
X157512922Y-95046996D01*
X157528094Y-95038886D01*
X157660758Y-94967976D01*
X157821177Y-94919313D01*
X157946196Y-94907000D01*
X158029804Y-94907000D01*
X158154823Y-94919313D01*
X158154823Y-94919313D01*
G37*
G36*
X158154823Y-87299313D02*
G01*
X158315242Y-87347976D01*
X158382361Y-87383852D01*
X158463078Y-87426996D01*
X158592659Y-87533341D01*
X158699004Y-87662922D01*
X158699005Y-87662924D01*
X158778024Y-87810758D01*
X158826687Y-87971177D01*
X158843117Y-88138000D01*
X158826687Y-88304823D01*
X158778024Y-88465242D01*
X158737477Y-88541100D01*
X158699004Y-88613078D01*
X158592659Y-88742659D01*
X158463078Y-88849004D01*
X158463076Y-88849005D01*
X158315242Y-88928024D01*
X158154823Y-88976687D01*
X158029804Y-88989000D01*
X157946196Y-88989000D01*
X157821177Y-88976687D01*
X157660758Y-88928024D01*
X157512924Y-88849005D01*
X157512922Y-88849004D01*
X157383341Y-88742659D01*
X157276996Y-88613078D01*
X157238523Y-88541100D01*
X157197976Y-88465242D01*
X157149313Y-88304823D01*
X157132883Y-88138000D01*
X157149313Y-87971177D01*
X157197976Y-87810758D01*
X157276995Y-87662924D01*
X157276996Y-87662922D01*
X157383341Y-87533341D01*
X157512922Y-87426996D01*
X157593639Y-87383852D01*
X157660758Y-87347976D01*
X157821177Y-87299313D01*
X157946196Y-87287000D01*
X158029804Y-87287000D01*
X158154823Y-87299313D01*
X158154823Y-87299313D01*
G37*
G36*
X155614823Y-87299313D02*
G01*
X155775242Y-87347976D01*
X155842361Y-87383852D01*
X155923078Y-87426996D01*
X156052659Y-87533341D01*
X156159004Y-87662922D01*
X156159005Y-87662924D01*
X156238024Y-87810758D01*
X156286687Y-87971177D01*
X156303117Y-88138000D01*
X156286687Y-88304823D01*
X156238024Y-88465242D01*
X156197477Y-88541100D01*
X156159004Y-88613078D01*
X156052659Y-88742659D01*
X155923078Y-88849004D01*
X155923076Y-88849005D01*
X155775242Y-88928024D01*
X155614823Y-88976687D01*
X155489804Y-88989000D01*
X155406196Y-88989000D01*
X155281177Y-88976687D01*
X155120758Y-88928024D01*
X154972924Y-88849005D01*
X154972922Y-88849004D01*
X154843341Y-88742659D01*
X154736996Y-88613078D01*
X154698523Y-88541100D01*
X154657976Y-88465242D01*
X154609313Y-88304823D01*
X154592883Y-88138000D01*
X154609313Y-87971177D01*
X154657976Y-87810758D01*
X154736995Y-87662924D01*
X154736996Y-87662922D01*
X154843341Y-87533341D01*
X154972922Y-87426996D01*
X155053639Y-87383852D01*
X155120758Y-87347976D01*
X155281177Y-87299313D01*
X155406196Y-87287000D01*
X155489804Y-87287000D01*
X155614823Y-87299313D01*
X155614823Y-87299313D01*
G37*
G36*
X160694823Y-87299313D02*
G01*
X160855242Y-87347976D01*
X160922361Y-87383852D01*
X161003078Y-87426996D01*
X161132659Y-87533341D01*
X161239004Y-87662922D01*
X161239005Y-87662924D01*
X161318024Y-87810758D01*
X161366687Y-87971177D01*
X161383117Y-88138000D01*
X161366687Y-88304823D01*
X161318024Y-88465242D01*
X161277477Y-88541100D01*
X161239004Y-88613078D01*
X161132659Y-88742659D01*
X161003078Y-88849004D01*
X161003076Y-88849005D01*
X160855242Y-88928024D01*
X160694823Y-88976687D01*
X160569804Y-88989000D01*
X160486196Y-88989000D01*
X160361177Y-88976687D01*
X160200758Y-88928024D01*
X160052924Y-88849005D01*
X160052922Y-88849004D01*
X159923341Y-88742659D01*
X159816996Y-88613078D01*
X159778523Y-88541100D01*
X159737976Y-88465242D01*
X159689313Y-88304823D01*
X159672883Y-88138000D01*
X159689313Y-87971177D01*
X159737976Y-87810758D01*
X159816995Y-87662924D01*
X159816996Y-87662922D01*
X159923341Y-87533341D01*
X160052922Y-87426996D01*
X160133639Y-87383852D01*
X160200758Y-87347976D01*
X160361177Y-87299313D01*
X160486196Y-87287000D01*
X160569804Y-87287000D01*
X160694823Y-87299313D01*
X160694823Y-87299313D01*
G37*
G36*
X163234823Y-87299313D02*
G01*
X163395242Y-87347976D01*
X163462361Y-87383852D01*
X163543078Y-87426996D01*
X163672659Y-87533341D01*
X163779004Y-87662922D01*
X163779005Y-87662924D01*
X163858024Y-87810758D01*
X163906687Y-87971177D01*
X163923117Y-88138000D01*
X163906687Y-88304823D01*
X163858024Y-88465242D01*
X163817477Y-88541100D01*
X163779004Y-88613078D01*
X163672659Y-88742659D01*
X163543078Y-88849004D01*
X163543076Y-88849005D01*
X163395242Y-88928024D01*
X163234823Y-88976687D01*
X163109804Y-88989000D01*
X163026196Y-88989000D01*
X162901177Y-88976687D01*
X162740758Y-88928024D01*
X162592924Y-88849005D01*
X162592922Y-88849004D01*
X162463341Y-88742659D01*
X162356996Y-88613078D01*
X162318523Y-88541100D01*
X162277976Y-88465242D01*
X162229313Y-88304823D01*
X162212883Y-88138000D01*
X162229313Y-87971177D01*
X162277976Y-87810758D01*
X162356995Y-87662924D01*
X162356996Y-87662922D01*
X162463341Y-87533341D01*
X162592922Y-87426996D01*
X162673639Y-87383852D01*
X162740758Y-87347976D01*
X162901177Y-87299313D01*
X163026196Y-87287000D01*
X163109804Y-87287000D01*
X163234823Y-87299313D01*
X163234823Y-87299313D01*
G37*
G36*
X165774823Y-87299313D02*
G01*
X165935242Y-87347976D01*
X166002361Y-87383852D01*
X166083078Y-87426996D01*
X166212659Y-87533341D01*
X166319004Y-87662922D01*
X166319005Y-87662924D01*
X166398024Y-87810758D01*
X166446687Y-87971177D01*
X166463117Y-88138000D01*
X166446687Y-88304823D01*
X166398024Y-88465242D01*
X166357477Y-88541100D01*
X166319004Y-88613078D01*
X166212659Y-88742659D01*
X166083078Y-88849004D01*
X166083076Y-88849005D01*
X165935242Y-88928024D01*
X165774823Y-88976687D01*
X165649804Y-88989000D01*
X165566196Y-88989000D01*
X165441177Y-88976687D01*
X165280758Y-88928024D01*
X165132924Y-88849005D01*
X165132922Y-88849004D01*
X165003341Y-88742659D01*
X164896996Y-88613078D01*
X164858523Y-88541100D01*
X164817976Y-88465242D01*
X164769313Y-88304823D01*
X164752883Y-88138000D01*
X164769313Y-87971177D01*
X164817976Y-87810758D01*
X164896995Y-87662924D01*
X164896996Y-87662922D01*
X165003341Y-87533341D01*
X165132922Y-87426996D01*
X165213639Y-87383852D01*
X165280758Y-87347976D01*
X165441177Y-87299313D01*
X165566196Y-87287000D01*
X165649804Y-87287000D01*
X165774823Y-87299313D01*
X165774823Y-87299313D01*
G37*
G36*
X172968228Y-87319703D02*
G01*
X173123100Y-87383853D01*
X173262481Y-87476985D01*
X173381015Y-87595519D01*
X173474147Y-87734900D01*
X173538297Y-87889772D01*
X173571000Y-88054184D01*
X173571000Y-88221816D01*
X173538297Y-88386228D01*
X173474147Y-88541100D01*
X173381015Y-88680481D01*
X173262481Y-88799015D01*
X173123100Y-88892147D01*
X172968228Y-88956297D01*
X172803816Y-88989000D01*
X172636184Y-88989000D01*
X172471772Y-88956297D01*
X172316900Y-88892147D01*
X172177519Y-88799015D01*
X172058985Y-88680481D01*
X171965853Y-88541100D01*
X171901703Y-88386228D01*
X171869000Y-88221816D01*
X171869000Y-88054184D01*
X171901703Y-87889772D01*
X171965853Y-87734900D01*
X172058985Y-87595519D01*
X172177519Y-87476985D01*
X172316900Y-87383853D01*
X172471772Y-87319703D01*
X172636184Y-87287000D01*
X172803816Y-87287000D01*
X172968228Y-87319703D01*
X172968228Y-87319703D01*
G37*
G36*
X177968228Y-87319703D02*
G01*
X178123100Y-87383853D01*
X178262481Y-87476985D01*
X178381015Y-87595519D01*
X178474147Y-87734900D01*
X178538297Y-87889772D01*
X178571000Y-88054184D01*
X178571000Y-88221816D01*
X178538297Y-88386228D01*
X178474147Y-88541100D01*
X178381015Y-88680481D01*
X178262481Y-88799015D01*
X178123100Y-88892147D01*
X177968228Y-88956297D01*
X177803816Y-88989000D01*
X177636184Y-88989000D01*
X177471772Y-88956297D01*
X177316900Y-88892147D01*
X177177519Y-88799015D01*
X177058985Y-88680481D01*
X176965853Y-88541100D01*
X176901703Y-88386228D01*
X176869000Y-88221816D01*
X176869000Y-88054184D01*
X176901703Y-87889772D01*
X176965853Y-87734900D01*
X177058985Y-87595519D01*
X177177519Y-87476985D01*
X177316900Y-87383853D01*
X177471772Y-87319703D01*
X177636184Y-87287000D01*
X177803816Y-87287000D01*
X177968228Y-87319703D01*
X177968228Y-87319703D01*
G37*
G36*
X147994823Y-87299313D02*
G01*
X148155242Y-87347976D01*
X148222361Y-87383852D01*
X148303078Y-87426996D01*
X148432659Y-87533341D01*
X148539004Y-87662922D01*
X148539005Y-87662924D01*
X148618024Y-87810758D01*
X148666687Y-87971177D01*
X148683117Y-88138000D01*
X148666687Y-88304823D01*
X148618024Y-88465242D01*
X148577477Y-88541100D01*
X148539004Y-88613078D01*
X148432659Y-88742659D01*
X148303078Y-88849004D01*
X148303076Y-88849005D01*
X148155242Y-88928024D01*
X147994823Y-88976687D01*
X147869804Y-88989000D01*
X147786196Y-88989000D01*
X147661177Y-88976687D01*
X147500758Y-88928024D01*
X147352924Y-88849005D01*
X147352922Y-88849004D01*
X147223341Y-88742659D01*
X147116996Y-88613078D01*
X147078523Y-88541100D01*
X147037976Y-88465242D01*
X146989313Y-88304823D01*
X146972883Y-88138000D01*
X146989313Y-87971177D01*
X147037976Y-87810758D01*
X147116995Y-87662924D01*
X147116996Y-87662922D01*
X147223341Y-87533341D01*
X147352922Y-87426996D01*
X147433639Y-87383852D01*
X147500758Y-87347976D01*
X147661177Y-87299313D01*
X147786196Y-87287000D01*
X147869804Y-87287000D01*
X147994823Y-87299313D01*
X147994823Y-87299313D01*
G37*
G36*
X150534823Y-87299313D02*
G01*
X150695242Y-87347976D01*
X150762361Y-87383852D01*
X150843078Y-87426996D01*
X150972659Y-87533341D01*
X151079004Y-87662922D01*
X151079005Y-87662924D01*
X151158024Y-87810758D01*
X151206687Y-87971177D01*
X151223117Y-88138000D01*
X151206687Y-88304823D01*
X151158024Y-88465242D01*
X151117477Y-88541100D01*
X151079004Y-88613078D01*
X150972659Y-88742659D01*
X150843078Y-88849004D01*
X150843076Y-88849005D01*
X150695242Y-88928024D01*
X150534823Y-88976687D01*
X150409804Y-88989000D01*
X150326196Y-88989000D01*
X150201177Y-88976687D01*
X150040758Y-88928024D01*
X149892924Y-88849005D01*
X149892922Y-88849004D01*
X149763341Y-88742659D01*
X149656996Y-88613078D01*
X149618523Y-88541100D01*
X149577976Y-88465242D01*
X149529313Y-88304823D01*
X149512883Y-88138000D01*
X149529313Y-87971177D01*
X149577976Y-87810758D01*
X149656995Y-87662924D01*
X149656996Y-87662922D01*
X149763341Y-87533341D01*
X149892922Y-87426996D01*
X149973639Y-87383852D01*
X150040758Y-87347976D01*
X150201177Y-87299313D01*
X150326196Y-87287000D01*
X150409804Y-87287000D01*
X150534823Y-87299313D01*
X150534823Y-87299313D01*
G37*
G36*
X153074823Y-87299313D02*
G01*
X153235242Y-87347976D01*
X153302361Y-87383852D01*
X153383078Y-87426996D01*
X153512659Y-87533341D01*
X153619004Y-87662922D01*
X153619005Y-87662924D01*
X153698024Y-87810758D01*
X153746687Y-87971177D01*
X153763117Y-88138000D01*
X153746687Y-88304823D01*
X153698024Y-88465242D01*
X153657477Y-88541100D01*
X153619004Y-88613078D01*
X153512659Y-88742659D01*
X153383078Y-88849004D01*
X153383076Y-88849005D01*
X153235242Y-88928024D01*
X153074823Y-88976687D01*
X152949804Y-88989000D01*
X152866196Y-88989000D01*
X152741177Y-88976687D01*
X152580758Y-88928024D01*
X152432924Y-88849005D01*
X152432922Y-88849004D01*
X152303341Y-88742659D01*
X152196996Y-88613078D01*
X152158523Y-88541100D01*
X152117976Y-88465242D01*
X152069313Y-88304823D01*
X152052883Y-88138000D01*
X152069313Y-87971177D01*
X152117976Y-87810758D01*
X152196995Y-87662924D01*
X152196996Y-87662922D01*
X152303341Y-87533341D01*
X152432922Y-87426996D01*
X152513639Y-87383852D01*
X152580758Y-87347976D01*
X152741177Y-87299313D01*
X152866196Y-87287000D01*
X152949804Y-87287000D01*
X153074823Y-87299313D01*
X153074823Y-87299313D01*
G37*
G36*
X168314823Y-87299313D02*
G01*
X168475242Y-87347976D01*
X168542361Y-87383852D01*
X168623078Y-87426996D01*
X168752659Y-87533341D01*
X168859004Y-87662922D01*
X168859005Y-87662924D01*
X168938024Y-87810758D01*
X168986687Y-87971177D01*
X169003117Y-88138000D01*
X168986687Y-88304823D01*
X168938024Y-88465242D01*
X168897477Y-88541100D01*
X168859004Y-88613078D01*
X168752659Y-88742659D01*
X168623078Y-88849004D01*
X168623076Y-88849005D01*
X168475242Y-88928024D01*
X168314823Y-88976687D01*
X168189804Y-88989000D01*
X168106196Y-88989000D01*
X167981177Y-88976687D01*
X167820758Y-88928024D01*
X167672924Y-88849005D01*
X167672922Y-88849004D01*
X167543341Y-88742659D01*
X167436996Y-88613078D01*
X167398523Y-88541100D01*
X167357976Y-88465242D01*
X167309313Y-88304823D01*
X167292883Y-88138000D01*
X167309313Y-87971177D01*
X167357976Y-87810758D01*
X167436995Y-87662924D01*
X167436996Y-87662922D01*
X167543341Y-87533341D01*
X167672922Y-87426996D01*
X167753639Y-87383852D01*
X167820758Y-87347976D01*
X167981177Y-87299313D01*
X168106196Y-87287000D01*
X168189804Y-87287000D01*
X168314823Y-87299313D01*
X168314823Y-87299313D01*
G37*
G36*
X182990442Y-85465518D02*
G01*
X183056627Y-85472037D01*
X183226466Y-85523557D01*
X183382991Y-85607222D01*
X183418729Y-85636552D01*
X183520186Y-85719814D01*
X183603448Y-85821271D01*
X183632778Y-85857009D01*
X183716443Y-86013534D01*
X183767963Y-86183373D01*
X183785359Y-86360000D01*
X183767963Y-86536627D01*
X183716443Y-86706466D01*
X183632778Y-86862991D01*
X183603448Y-86898729D01*
X183520186Y-87000186D01*
X183418729Y-87083448D01*
X183382991Y-87112778D01*
X183226466Y-87196443D01*
X183056627Y-87247963D01*
X182990442Y-87254482D01*
X182924260Y-87261000D01*
X182835740Y-87261000D01*
X182769558Y-87254482D01*
X182703373Y-87247963D01*
X182533534Y-87196443D01*
X182377009Y-87112778D01*
X182341271Y-87083448D01*
X182239814Y-87000186D01*
X182156552Y-86898729D01*
X182127222Y-86862991D01*
X182043557Y-86706466D01*
X181992037Y-86536627D01*
X181974641Y-86360000D01*
X181992037Y-86183373D01*
X182043557Y-86013534D01*
X182127222Y-85857009D01*
X182156552Y-85821271D01*
X182239814Y-85719814D01*
X182341271Y-85636552D01*
X182377009Y-85607222D01*
X182533534Y-85523557D01*
X182703373Y-85472037D01*
X182769558Y-85465518D01*
X182835740Y-85459000D01*
X182924260Y-85459000D01*
X182990442Y-85465518D01*
X182990442Y-85465518D01*
G37*
G36*
X129650442Y-85465518D02*
G01*
X129716627Y-85472037D01*
X129886466Y-85523557D01*
X130042991Y-85607222D01*
X130078729Y-85636552D01*
X130180186Y-85719814D01*
X130263448Y-85821271D01*
X130292778Y-85857009D01*
X130376443Y-86013534D01*
X130427963Y-86183373D01*
X130445359Y-86360000D01*
X130427963Y-86536627D01*
X130376443Y-86706466D01*
X130292778Y-86862991D01*
X130263448Y-86898729D01*
X130180186Y-87000186D01*
X130078729Y-87083448D01*
X130042991Y-87112778D01*
X129886466Y-87196443D01*
X129716627Y-87247963D01*
X129650442Y-87254482D01*
X129584260Y-87261000D01*
X129495740Y-87261000D01*
X129429558Y-87254482D01*
X129363373Y-87247963D01*
X129193534Y-87196443D01*
X129037009Y-87112778D01*
X129001271Y-87083448D01*
X128899814Y-87000186D01*
X128816552Y-86898729D01*
X128787222Y-86862991D01*
X128703557Y-86706466D01*
X128652037Y-86536627D01*
X128634641Y-86360000D01*
X128652037Y-86183373D01*
X128703557Y-86013534D01*
X128787222Y-85857009D01*
X128816552Y-85821271D01*
X128899814Y-85719814D01*
X129001271Y-85636552D01*
X129037009Y-85607222D01*
X129193534Y-85523557D01*
X129363373Y-85472037D01*
X129429558Y-85465518D01*
X129495740Y-85459000D01*
X129584260Y-85459000D01*
X129650442Y-85465518D01*
X129650442Y-85465518D01*
G37*
G36*
X165856228Y-84779703D02*
G01*
X166011100Y-84843853D01*
X166150481Y-84936985D01*
X166269015Y-85055519D01*
X166362147Y-85194900D01*
X166426297Y-85349772D01*
X166459000Y-85514184D01*
X166459000Y-85681816D01*
X166426297Y-85846228D01*
X166362147Y-86001100D01*
X166269015Y-86140481D01*
X166150481Y-86259015D01*
X166011100Y-86352147D01*
X165856228Y-86416297D01*
X165691816Y-86449000D01*
X165524184Y-86449000D01*
X165359772Y-86416297D01*
X165204900Y-86352147D01*
X165065519Y-86259015D01*
X164946985Y-86140481D01*
X164853853Y-86001100D01*
X164789703Y-85846228D01*
X164757000Y-85681816D01*
X164757000Y-85514184D01*
X164789703Y-85349772D01*
X164853853Y-85194900D01*
X164946985Y-85055519D01*
X165065519Y-84936985D01*
X165204900Y-84843853D01*
X165359772Y-84779703D01*
X165524184Y-84747000D01*
X165691816Y-84747000D01*
X165856228Y-84779703D01*
X165856228Y-84779703D01*
G37*
G36*
X153664228Y-84779703D02*
G01*
X153819100Y-84843853D01*
X153958481Y-84936985D01*
X154077015Y-85055519D01*
X154170147Y-85194900D01*
X154234297Y-85349772D01*
X154267000Y-85514184D01*
X154267000Y-85681816D01*
X154234297Y-85846228D01*
X154170147Y-86001100D01*
X154077015Y-86140481D01*
X153958481Y-86259015D01*
X153819100Y-86352147D01*
X153664228Y-86416297D01*
X153499816Y-86449000D01*
X153332184Y-86449000D01*
X153167772Y-86416297D01*
X153012900Y-86352147D01*
X152873519Y-86259015D01*
X152754985Y-86140481D01*
X152661853Y-86001100D01*
X152597703Y-85846228D01*
X152565000Y-85681816D01*
X152565000Y-85514184D01*
X152597703Y-85349772D01*
X152661853Y-85194900D01*
X152754985Y-85055519D01*
X152873519Y-84936985D01*
X153012900Y-84843853D01*
X153167772Y-84779703D01*
X153332184Y-84747000D01*
X153499816Y-84747000D01*
X153664228Y-84779703D01*
X153664228Y-84779703D01*
G37*
G36*
X182990443Y-82925519D02*
G01*
X183056627Y-82932037D01*
X183226466Y-82983557D01*
X183382991Y-83067222D01*
X183418729Y-83096552D01*
X183520186Y-83179814D01*
X183603448Y-83281271D01*
X183632778Y-83317009D01*
X183716443Y-83473534D01*
X183767963Y-83643373D01*
X183785359Y-83820000D01*
X183767963Y-83996627D01*
X183716443Y-84166466D01*
X183632778Y-84322991D01*
X183603448Y-84358729D01*
X183520186Y-84460186D01*
X183418729Y-84543448D01*
X183382991Y-84572778D01*
X183226466Y-84656443D01*
X183056627Y-84707963D01*
X182990443Y-84714481D01*
X182924260Y-84721000D01*
X182835740Y-84721000D01*
X182769557Y-84714481D01*
X182703373Y-84707963D01*
X182533534Y-84656443D01*
X182377009Y-84572778D01*
X182341271Y-84543448D01*
X182239814Y-84460186D01*
X182156552Y-84358729D01*
X182127222Y-84322991D01*
X182043557Y-84166466D01*
X181992037Y-83996627D01*
X181974641Y-83820000D01*
X181992037Y-83643373D01*
X182043557Y-83473534D01*
X182127222Y-83317009D01*
X182156552Y-83281271D01*
X182239814Y-83179814D01*
X182341271Y-83096552D01*
X182377009Y-83067222D01*
X182533534Y-82983557D01*
X182703373Y-82932037D01*
X182769557Y-82925519D01*
X182835740Y-82919000D01*
X182924260Y-82919000D01*
X182990443Y-82925519D01*
X182990443Y-82925519D01*
G37*
G36*
X129650443Y-82925519D02*
G01*
X129716627Y-82932037D01*
X129886466Y-82983557D01*
X130042991Y-83067222D01*
X130078729Y-83096552D01*
X130180186Y-83179814D01*
X130263448Y-83281271D01*
X130292778Y-83317009D01*
X130376443Y-83473534D01*
X130427963Y-83643373D01*
X130445359Y-83820000D01*
X130427963Y-83996627D01*
X130376443Y-84166466D01*
X130292778Y-84322991D01*
X130263448Y-84358729D01*
X130180186Y-84460186D01*
X130078729Y-84543448D01*
X130042991Y-84572778D01*
X129886466Y-84656443D01*
X129716627Y-84707963D01*
X129650443Y-84714481D01*
X129584260Y-84721000D01*
X129495740Y-84721000D01*
X129429557Y-84714481D01*
X129363373Y-84707963D01*
X129193534Y-84656443D01*
X129037009Y-84572778D01*
X129001271Y-84543448D01*
X128899814Y-84460186D01*
X128816552Y-84358729D01*
X128787222Y-84322991D01*
X128703557Y-84166466D01*
X128652037Y-83996627D01*
X128634641Y-83820000D01*
X128652037Y-83643373D01*
X128703557Y-83473534D01*
X128787222Y-83317009D01*
X128816552Y-83281271D01*
X128899814Y-83179814D01*
X129001271Y-83096552D01*
X129037009Y-83067222D01*
X129193534Y-82983557D01*
X129363373Y-82932037D01*
X129429557Y-82925519D01*
X129495740Y-82919000D01*
X129584260Y-82919000D01*
X129650443Y-82925519D01*
X129650443Y-82925519D01*
G37*
G36*
X182990442Y-80385518D02*
G01*
X183056627Y-80392037D01*
X183226466Y-80443557D01*
X183382991Y-80527222D01*
X183418729Y-80556552D01*
X183520186Y-80639814D01*
X183603448Y-80741271D01*
X183632778Y-80777009D01*
X183716443Y-80933534D01*
X183767963Y-81103373D01*
X183785359Y-81280000D01*
X183767963Y-81456627D01*
X183716443Y-81626466D01*
X183632778Y-81782991D01*
X183603448Y-81818729D01*
X183520186Y-81920186D01*
X183418729Y-82003448D01*
X183382991Y-82032778D01*
X183226466Y-82116443D01*
X183056627Y-82167963D01*
X182990443Y-82174481D01*
X182924260Y-82181000D01*
X182835740Y-82181000D01*
X182769557Y-82174481D01*
X182703373Y-82167963D01*
X182533534Y-82116443D01*
X182377009Y-82032778D01*
X182341271Y-82003448D01*
X182239814Y-81920186D01*
X182156552Y-81818729D01*
X182127222Y-81782991D01*
X182043557Y-81626466D01*
X181992037Y-81456627D01*
X181974641Y-81280000D01*
X181992037Y-81103373D01*
X182043557Y-80933534D01*
X182127222Y-80777009D01*
X182156552Y-80741271D01*
X182239814Y-80639814D01*
X182341271Y-80556552D01*
X182377009Y-80527222D01*
X182533534Y-80443557D01*
X182703373Y-80392037D01*
X182769558Y-80385518D01*
X182835740Y-80379000D01*
X182924260Y-80379000D01*
X182990442Y-80385518D01*
X182990442Y-80385518D01*
G37*
G36*
X129650442Y-80385518D02*
G01*
X129716627Y-80392037D01*
X129886466Y-80443557D01*
X130042991Y-80527222D01*
X130078729Y-80556552D01*
X130180186Y-80639814D01*
X130263448Y-80741271D01*
X130292778Y-80777009D01*
X130376443Y-80933534D01*
X130427963Y-81103373D01*
X130445359Y-81280000D01*
X130427963Y-81456627D01*
X130376443Y-81626466D01*
X130292778Y-81782991D01*
X130263448Y-81818729D01*
X130180186Y-81920186D01*
X130078729Y-82003448D01*
X130042991Y-82032778D01*
X129886466Y-82116443D01*
X129716627Y-82167963D01*
X129650443Y-82174481D01*
X129584260Y-82181000D01*
X129495740Y-82181000D01*
X129429557Y-82174481D01*
X129363373Y-82167963D01*
X129193534Y-82116443D01*
X129037009Y-82032778D01*
X129001271Y-82003448D01*
X128899814Y-81920186D01*
X128816552Y-81818729D01*
X128787222Y-81782991D01*
X128703557Y-81626466D01*
X128652037Y-81456627D01*
X128634641Y-81280000D01*
X128652037Y-81103373D01*
X128703557Y-80933534D01*
X128787222Y-80777009D01*
X128816552Y-80741271D01*
X128899814Y-80639814D01*
X129001271Y-80556552D01*
X129037009Y-80527222D01*
X129193534Y-80443557D01*
X129363373Y-80392037D01*
X129429558Y-80385518D01*
X129495740Y-80379000D01*
X129584260Y-80379000D01*
X129650442Y-80385518D01*
X129650442Y-80385518D01*
G37*
G36*
X153664228Y-79779703D02*
G01*
X153819100Y-79843853D01*
X153958481Y-79936985D01*
X154077015Y-80055519D01*
X154170147Y-80194900D01*
X154234297Y-80349772D01*
X154267000Y-80514184D01*
X154267000Y-80681816D01*
X154234297Y-80846228D01*
X154170147Y-81001100D01*
X154077015Y-81140481D01*
X153958481Y-81259015D01*
X153819100Y-81352147D01*
X153664228Y-81416297D01*
X153499816Y-81449000D01*
X153332184Y-81449000D01*
X153167772Y-81416297D01*
X153012900Y-81352147D01*
X152873519Y-81259015D01*
X152754985Y-81140481D01*
X152661853Y-81001100D01*
X152597703Y-80846228D01*
X152565000Y-80681816D01*
X152565000Y-80514184D01*
X152597703Y-80349772D01*
X152661853Y-80194900D01*
X152754985Y-80055519D01*
X152873519Y-79936985D01*
X153012900Y-79843853D01*
X153167772Y-79779703D01*
X153332184Y-79747000D01*
X153499816Y-79747000D01*
X153664228Y-79779703D01*
X153664228Y-79779703D01*
G37*
G36*
X165856228Y-79779703D02*
G01*
X166011100Y-79843853D01*
X166150481Y-79936985D01*
X166269015Y-80055519D01*
X166362147Y-80194900D01*
X166426297Y-80349772D01*
X166459000Y-80514184D01*
X166459000Y-80681816D01*
X166426297Y-80846228D01*
X166362147Y-81001100D01*
X166269015Y-81140481D01*
X166150481Y-81259015D01*
X166011100Y-81352147D01*
X165856228Y-81416297D01*
X165691816Y-81449000D01*
X165524184Y-81449000D01*
X165359772Y-81416297D01*
X165204900Y-81352147D01*
X165065519Y-81259015D01*
X164946985Y-81140481D01*
X164853853Y-81001100D01*
X164789703Y-80846228D01*
X164757000Y-80681816D01*
X164757000Y-80514184D01*
X164789703Y-80349772D01*
X164853853Y-80194900D01*
X164946985Y-80055519D01*
X165065519Y-79936985D01*
X165204900Y-79843853D01*
X165359772Y-79779703D01*
X165524184Y-79747000D01*
X165691816Y-79747000D01*
X165856228Y-79779703D01*
X165856228Y-79779703D01*
G37*
G36*
X183781000Y-79641000D02*
G01*
X181979000Y-79641000D01*
X181979000Y-77839000D01*
X183781000Y-77839000D01*
X183781000Y-79641000D01*
X183781000Y-79641000D01*
G37*
G36*
X130441000Y-79641000D02*
G01*
X128639000Y-79641000D01*
X128639000Y-77839000D01*
X130441000Y-77839000D01*
X130441000Y-79641000D01*
X130441000Y-79641000D01*
G37*
M02*
