G04 #@! TF.GenerationSoftware,KiCad,Pcbnew,5.1.2-f72e74a~84~ubuntu18.04.1*
G04 #@! TF.CreationDate,2019-06-11T14:16:10-04:00*
G04 #@! TF.ProjectId,CEM3320_LPF_plug_in_board,43454d33-3332-4305-9f4c-50465f706c75,1*
G04 #@! TF.SameCoordinates,Original*
G04 #@! TF.FileFunction,Soldermask,Top*
G04 #@! TF.FilePolarity,Negative*
%FSLAX46Y46*%
G04 Gerber Fmt 4.6, Leading zero omitted, Abs format (unit mm)*
G04 Created by KiCad (PCBNEW 5.1.2-f72e74a~84~ubuntu18.04.1) date 2019-06-11 14:16:10*
%MOMM*%
%LPD*%
G04 APERTURE LIST*
%ADD10C,0.100000*%
G04 APERTURE END LIST*
D10*
G36*
X180295674Y-124221465D02*
G01*
X180333367Y-124232899D01*
X180368103Y-124251466D01*
X180398548Y-124276452D01*
X180423534Y-124306897D01*
X180442101Y-124341633D01*
X180453535Y-124379326D01*
X180458000Y-124424661D01*
X180458000Y-125511339D01*
X180453535Y-125556674D01*
X180442101Y-125594367D01*
X180423534Y-125629103D01*
X180398548Y-125659548D01*
X180368103Y-125684534D01*
X180333367Y-125703101D01*
X180295674Y-125714535D01*
X180250339Y-125719000D01*
X179413661Y-125719000D01*
X179368326Y-125714535D01*
X179330633Y-125703101D01*
X179295897Y-125684534D01*
X179265452Y-125659548D01*
X179240466Y-125629103D01*
X179221899Y-125594367D01*
X179210465Y-125556674D01*
X179206000Y-125511339D01*
X179206000Y-124424661D01*
X179210465Y-124379326D01*
X179221899Y-124341633D01*
X179240466Y-124306897D01*
X179265452Y-124276452D01*
X179295897Y-124251466D01*
X179330633Y-124232899D01*
X179368326Y-124221465D01*
X179413661Y-124217000D01*
X180250339Y-124217000D01*
X180295674Y-124221465D01*
X180295674Y-124221465D01*
G37*
G36*
X178245674Y-124221465D02*
G01*
X178283367Y-124232899D01*
X178318103Y-124251466D01*
X178348548Y-124276452D01*
X178373534Y-124306897D01*
X178392101Y-124341633D01*
X178403535Y-124379326D01*
X178408000Y-124424661D01*
X178408000Y-125511339D01*
X178403535Y-125556674D01*
X178392101Y-125594367D01*
X178373534Y-125629103D01*
X178348548Y-125659548D01*
X178318103Y-125684534D01*
X178283367Y-125703101D01*
X178245674Y-125714535D01*
X178200339Y-125719000D01*
X177363661Y-125719000D01*
X177318326Y-125714535D01*
X177280633Y-125703101D01*
X177245897Y-125684534D01*
X177215452Y-125659548D01*
X177190466Y-125629103D01*
X177171899Y-125594367D01*
X177160465Y-125556674D01*
X177156000Y-125511339D01*
X177156000Y-124424661D01*
X177160465Y-124379326D01*
X177171899Y-124341633D01*
X177190466Y-124306897D01*
X177215452Y-124276452D01*
X177245897Y-124251466D01*
X177280633Y-124232899D01*
X177318326Y-124221465D01*
X177363661Y-124217000D01*
X178200339Y-124217000D01*
X178245674Y-124221465D01*
X178245674Y-124221465D01*
G37*
G36*
X182990442Y-123565518D02*
G01*
X183056627Y-123572037D01*
X183226466Y-123623557D01*
X183382991Y-123707222D01*
X183418729Y-123736552D01*
X183520186Y-123819814D01*
X183603448Y-123921271D01*
X183632778Y-123957009D01*
X183716443Y-124113534D01*
X183767963Y-124283373D01*
X183785359Y-124460000D01*
X183767963Y-124636627D01*
X183716443Y-124806466D01*
X183632778Y-124962991D01*
X183603448Y-124998729D01*
X183520186Y-125100186D01*
X183418729Y-125183448D01*
X183382991Y-125212778D01*
X183226466Y-125296443D01*
X183056627Y-125347963D01*
X182990442Y-125354482D01*
X182924260Y-125361000D01*
X182835740Y-125361000D01*
X182769558Y-125354482D01*
X182703373Y-125347963D01*
X182533534Y-125296443D01*
X182377009Y-125212778D01*
X182341271Y-125183448D01*
X182239814Y-125100186D01*
X182156552Y-124998729D01*
X182127222Y-124962991D01*
X182043557Y-124806466D01*
X181992037Y-124636627D01*
X181974641Y-124460000D01*
X181992037Y-124283373D01*
X182043557Y-124113534D01*
X182127222Y-123957009D01*
X182156552Y-123921271D01*
X182239814Y-123819814D01*
X182341271Y-123736552D01*
X182377009Y-123707222D01*
X182533534Y-123623557D01*
X182703373Y-123572037D01*
X182769558Y-123565518D01*
X182835740Y-123559000D01*
X182924260Y-123559000D01*
X182990442Y-123565518D01*
X182990442Y-123565518D01*
G37*
G36*
X129650442Y-123565518D02*
G01*
X129716627Y-123572037D01*
X129886466Y-123623557D01*
X130042991Y-123707222D01*
X130078729Y-123736552D01*
X130180186Y-123819814D01*
X130263448Y-123921271D01*
X130292778Y-123957009D01*
X130376443Y-124113534D01*
X130427963Y-124283373D01*
X130445359Y-124460000D01*
X130427963Y-124636627D01*
X130376443Y-124806466D01*
X130292778Y-124962991D01*
X130263448Y-124998729D01*
X130180186Y-125100186D01*
X130078729Y-125183448D01*
X130042991Y-125212778D01*
X129886466Y-125296443D01*
X129716627Y-125347963D01*
X129650442Y-125354482D01*
X129584260Y-125361000D01*
X129495740Y-125361000D01*
X129429558Y-125354482D01*
X129363373Y-125347963D01*
X129193534Y-125296443D01*
X129037009Y-125212778D01*
X129001271Y-125183448D01*
X128899814Y-125100186D01*
X128816552Y-124998729D01*
X128787222Y-124962991D01*
X128703557Y-124806466D01*
X128652037Y-124636627D01*
X128634641Y-124460000D01*
X128652037Y-124283373D01*
X128703557Y-124113534D01*
X128787222Y-123957009D01*
X128816552Y-123921271D01*
X128899814Y-123819814D01*
X129001271Y-123736552D01*
X129037009Y-123707222D01*
X129193534Y-123623557D01*
X129363373Y-123572037D01*
X129429558Y-123565518D01*
X129495740Y-123559000D01*
X129584260Y-123559000D01*
X129650442Y-123565518D01*
X129650442Y-123565518D01*
G37*
G36*
X147966000Y-123241000D02*
G01*
X146674000Y-123241000D01*
X146674000Y-120349000D01*
X147966000Y-120349000D01*
X147966000Y-123241000D01*
X147966000Y-123241000D01*
G37*
G36*
X142886000Y-123241000D02*
G01*
X141594000Y-123241000D01*
X141594000Y-120349000D01*
X142886000Y-120349000D01*
X142886000Y-123241000D01*
X142886000Y-123241000D01*
G37*
G36*
X139330000Y-123241000D02*
G01*
X138038000Y-123241000D01*
X138038000Y-120349000D01*
X139330000Y-120349000D01*
X139330000Y-123241000D01*
X139330000Y-123241000D01*
G37*
G36*
X134250000Y-123241000D02*
G01*
X132958000Y-123241000D01*
X132958000Y-120349000D01*
X134250000Y-120349000D01*
X134250000Y-123241000D01*
X134250000Y-123241000D01*
G37*
G36*
X182990442Y-121025518D02*
G01*
X183056627Y-121032037D01*
X183226466Y-121083557D01*
X183382991Y-121167222D01*
X183418729Y-121196552D01*
X183520186Y-121279814D01*
X183603448Y-121381271D01*
X183632778Y-121417009D01*
X183716443Y-121573534D01*
X183767963Y-121743373D01*
X183785359Y-121920000D01*
X183767963Y-122096627D01*
X183716443Y-122266466D01*
X183632778Y-122422991D01*
X183603448Y-122458729D01*
X183520186Y-122560186D01*
X183418729Y-122643448D01*
X183382991Y-122672778D01*
X183226466Y-122756443D01*
X183056627Y-122807963D01*
X182990443Y-122814481D01*
X182924260Y-122821000D01*
X182835740Y-122821000D01*
X182769557Y-122814481D01*
X182703373Y-122807963D01*
X182533534Y-122756443D01*
X182377009Y-122672778D01*
X182341271Y-122643448D01*
X182239814Y-122560186D01*
X182156552Y-122458729D01*
X182127222Y-122422991D01*
X182043557Y-122266466D01*
X181992037Y-122096627D01*
X181974641Y-121920000D01*
X181992037Y-121743373D01*
X182043557Y-121573534D01*
X182127222Y-121417009D01*
X182156552Y-121381271D01*
X182239814Y-121279814D01*
X182341271Y-121196552D01*
X182377009Y-121167222D01*
X182533534Y-121083557D01*
X182703373Y-121032037D01*
X182769558Y-121025518D01*
X182835740Y-121019000D01*
X182924260Y-121019000D01*
X182990442Y-121025518D01*
X182990442Y-121025518D01*
G37*
G36*
X129650442Y-121025518D02*
G01*
X129716627Y-121032037D01*
X129886466Y-121083557D01*
X130042991Y-121167222D01*
X130078729Y-121196552D01*
X130180186Y-121279814D01*
X130263448Y-121381271D01*
X130292778Y-121417009D01*
X130376443Y-121573534D01*
X130427963Y-121743373D01*
X130445359Y-121920000D01*
X130427963Y-122096627D01*
X130376443Y-122266466D01*
X130292778Y-122422991D01*
X130263448Y-122458729D01*
X130180186Y-122560186D01*
X130078729Y-122643448D01*
X130042991Y-122672778D01*
X129886466Y-122756443D01*
X129716627Y-122807963D01*
X129650443Y-122814481D01*
X129584260Y-122821000D01*
X129495740Y-122821000D01*
X129429557Y-122814481D01*
X129363373Y-122807963D01*
X129193534Y-122756443D01*
X129037009Y-122672778D01*
X129001271Y-122643448D01*
X128899814Y-122560186D01*
X128816552Y-122458729D01*
X128787222Y-122422991D01*
X128703557Y-122266466D01*
X128652037Y-122096627D01*
X128634641Y-121920000D01*
X128652037Y-121743373D01*
X128703557Y-121573534D01*
X128787222Y-121417009D01*
X128816552Y-121381271D01*
X128899814Y-121279814D01*
X129001271Y-121196552D01*
X129037009Y-121167222D01*
X129193534Y-121083557D01*
X129363373Y-121032037D01*
X129429558Y-121025518D01*
X129495740Y-121019000D01*
X129584260Y-121019000D01*
X129650442Y-121025518D01*
X129650442Y-121025518D01*
G37*
G36*
X178245674Y-119649465D02*
G01*
X178283367Y-119660899D01*
X178318103Y-119679466D01*
X178348548Y-119704452D01*
X178373534Y-119734897D01*
X178392101Y-119769633D01*
X178403535Y-119807326D01*
X178408000Y-119852661D01*
X178408000Y-120939339D01*
X178403535Y-120984674D01*
X178392101Y-121022367D01*
X178373534Y-121057103D01*
X178348548Y-121087548D01*
X178318103Y-121112534D01*
X178283367Y-121131101D01*
X178245674Y-121142535D01*
X178200339Y-121147000D01*
X177363661Y-121147000D01*
X177318326Y-121142535D01*
X177280633Y-121131101D01*
X177245897Y-121112534D01*
X177215452Y-121087548D01*
X177190466Y-121057103D01*
X177171899Y-121022367D01*
X177160465Y-120984674D01*
X177156000Y-120939339D01*
X177156000Y-119852661D01*
X177160465Y-119807326D01*
X177171899Y-119769633D01*
X177190466Y-119734897D01*
X177215452Y-119704452D01*
X177245897Y-119679466D01*
X177280633Y-119660899D01*
X177318326Y-119649465D01*
X177363661Y-119645000D01*
X178200339Y-119645000D01*
X178245674Y-119649465D01*
X178245674Y-119649465D01*
G37*
G36*
X180295674Y-119649465D02*
G01*
X180333367Y-119660899D01*
X180368103Y-119679466D01*
X180398548Y-119704452D01*
X180423534Y-119734897D01*
X180442101Y-119769633D01*
X180453535Y-119807326D01*
X180458000Y-119852661D01*
X180458000Y-120939339D01*
X180453535Y-120984674D01*
X180442101Y-121022367D01*
X180423534Y-121057103D01*
X180398548Y-121087548D01*
X180368103Y-121112534D01*
X180333367Y-121131101D01*
X180295674Y-121142535D01*
X180250339Y-121147000D01*
X179413661Y-121147000D01*
X179368326Y-121142535D01*
X179330633Y-121131101D01*
X179295897Y-121112534D01*
X179265452Y-121087548D01*
X179240466Y-121057103D01*
X179221899Y-121022367D01*
X179210465Y-120984674D01*
X179206000Y-120939339D01*
X179206000Y-119852661D01*
X179210465Y-119807326D01*
X179221899Y-119769633D01*
X179240466Y-119734897D01*
X179265452Y-119704452D01*
X179295897Y-119679466D01*
X179330633Y-119660899D01*
X179368326Y-119649465D01*
X179413661Y-119645000D01*
X180250339Y-119645000D01*
X180295674Y-119649465D01*
X180295674Y-119649465D01*
G37*
G36*
X182990442Y-118485518D02*
G01*
X183056627Y-118492037D01*
X183226466Y-118543557D01*
X183382991Y-118627222D01*
X183418729Y-118656552D01*
X183520186Y-118739814D01*
X183603448Y-118841271D01*
X183632778Y-118877009D01*
X183632779Y-118877011D01*
X183715212Y-119031230D01*
X183716443Y-119033534D01*
X183767963Y-119203373D01*
X183785359Y-119380000D01*
X183767963Y-119556627D01*
X183716443Y-119726466D01*
X183632778Y-119882991D01*
X183604725Y-119917173D01*
X183520186Y-120020186D01*
X183459073Y-120070339D01*
X183382991Y-120132778D01*
X183382989Y-120132779D01*
X183230792Y-120214131D01*
X183226466Y-120216443D01*
X183056627Y-120267963D01*
X182990442Y-120274482D01*
X182924260Y-120281000D01*
X182835740Y-120281000D01*
X182769558Y-120274482D01*
X182703373Y-120267963D01*
X182533534Y-120216443D01*
X182529209Y-120214131D01*
X182377011Y-120132779D01*
X182377009Y-120132778D01*
X182300927Y-120070339D01*
X182239814Y-120020186D01*
X182155275Y-119917173D01*
X182127222Y-119882991D01*
X182043557Y-119726466D01*
X181992037Y-119556627D01*
X181974641Y-119380000D01*
X181992037Y-119203373D01*
X182043557Y-119033534D01*
X182044789Y-119031230D01*
X182127221Y-118877011D01*
X182127222Y-118877009D01*
X182156552Y-118841271D01*
X182239814Y-118739814D01*
X182341271Y-118656552D01*
X182377009Y-118627222D01*
X182533534Y-118543557D01*
X182703373Y-118492037D01*
X182769558Y-118485518D01*
X182835740Y-118479000D01*
X182924260Y-118479000D01*
X182990442Y-118485518D01*
X182990442Y-118485518D01*
G37*
G36*
X129650442Y-118485518D02*
G01*
X129716627Y-118492037D01*
X129886466Y-118543557D01*
X130042991Y-118627222D01*
X130078729Y-118656552D01*
X130180186Y-118739814D01*
X130263448Y-118841271D01*
X130292778Y-118877009D01*
X130292779Y-118877011D01*
X130375212Y-119031230D01*
X130376443Y-119033534D01*
X130427963Y-119203373D01*
X130445359Y-119380000D01*
X130427963Y-119556627D01*
X130376443Y-119726466D01*
X130292778Y-119882991D01*
X130264725Y-119917173D01*
X130180186Y-120020186D01*
X130119073Y-120070339D01*
X130042991Y-120132778D01*
X130042989Y-120132779D01*
X129890792Y-120214131D01*
X129886466Y-120216443D01*
X129716627Y-120267963D01*
X129650442Y-120274482D01*
X129584260Y-120281000D01*
X129495740Y-120281000D01*
X129429558Y-120274482D01*
X129363373Y-120267963D01*
X129193534Y-120216443D01*
X129189209Y-120214131D01*
X129037011Y-120132779D01*
X129037009Y-120132778D01*
X128960927Y-120070339D01*
X128899814Y-120020186D01*
X128815275Y-119917173D01*
X128787222Y-119882991D01*
X128703557Y-119726466D01*
X128652037Y-119556627D01*
X128634641Y-119380000D01*
X128652037Y-119203373D01*
X128703557Y-119033534D01*
X128704789Y-119031230D01*
X128787221Y-118877011D01*
X128787222Y-118877009D01*
X128816552Y-118841271D01*
X128899814Y-118739814D01*
X129001271Y-118656552D01*
X129037009Y-118627222D01*
X129193534Y-118543557D01*
X129363373Y-118492037D01*
X129429558Y-118485518D01*
X129495740Y-118479000D01*
X129584260Y-118479000D01*
X129650442Y-118485518D01*
X129650442Y-118485518D01*
G37*
G36*
X169498674Y-119030465D02*
G01*
X169536367Y-119041899D01*
X169571103Y-119060466D01*
X169601548Y-119085452D01*
X169626534Y-119115897D01*
X169645101Y-119150633D01*
X169656535Y-119188326D01*
X169661000Y-119233661D01*
X169661000Y-120070339D01*
X169656535Y-120115674D01*
X169645101Y-120153367D01*
X169626534Y-120188103D01*
X169601548Y-120218548D01*
X169571103Y-120243534D01*
X169536367Y-120262101D01*
X169498674Y-120273535D01*
X169453339Y-120278000D01*
X168366661Y-120278000D01*
X168321326Y-120273535D01*
X168283633Y-120262101D01*
X168248897Y-120243534D01*
X168218452Y-120218548D01*
X168193466Y-120188103D01*
X168174899Y-120153367D01*
X168163465Y-120115674D01*
X168159000Y-120070339D01*
X168159000Y-119233661D01*
X168163465Y-119188326D01*
X168174899Y-119150633D01*
X168193466Y-119115897D01*
X168218452Y-119085452D01*
X168248897Y-119060466D01*
X168283633Y-119041899D01*
X168321326Y-119030465D01*
X168366661Y-119026000D01*
X169453339Y-119026000D01*
X169498674Y-119030465D01*
X169498674Y-119030465D01*
G37*
G36*
X166450674Y-119012465D02*
G01*
X166488367Y-119023899D01*
X166523103Y-119042466D01*
X166553548Y-119067452D01*
X166578534Y-119097897D01*
X166597101Y-119132633D01*
X166608535Y-119170326D01*
X166613000Y-119215661D01*
X166613000Y-120052339D01*
X166608535Y-120097674D01*
X166597101Y-120135367D01*
X166578534Y-120170103D01*
X166553548Y-120200548D01*
X166523103Y-120225534D01*
X166488367Y-120244101D01*
X166450674Y-120255535D01*
X166405339Y-120260000D01*
X165318661Y-120260000D01*
X165273326Y-120255535D01*
X165235633Y-120244101D01*
X165200897Y-120225534D01*
X165170452Y-120200548D01*
X165145466Y-120170103D01*
X165126899Y-120135367D01*
X165115465Y-120097674D01*
X165111000Y-120052339D01*
X165111000Y-119215661D01*
X165115465Y-119170326D01*
X165126899Y-119132633D01*
X165145466Y-119097897D01*
X165170452Y-119067452D01*
X165200897Y-119042466D01*
X165235633Y-119023899D01*
X165273326Y-119012465D01*
X165318661Y-119008000D01*
X166405339Y-119008000D01*
X166450674Y-119012465D01*
X166450674Y-119012465D01*
G37*
G36*
X145426000Y-118411000D02*
G01*
X144134000Y-118411000D01*
X144134000Y-115519000D01*
X145426000Y-115519000D01*
X145426000Y-118411000D01*
X145426000Y-118411000D01*
G37*
G36*
X136790000Y-118411000D02*
G01*
X135498000Y-118411000D01*
X135498000Y-115519000D01*
X136790000Y-115519000D01*
X136790000Y-118411000D01*
X136790000Y-118411000D01*
G37*
G36*
X169498674Y-116980465D02*
G01*
X169536367Y-116991899D01*
X169571103Y-117010466D01*
X169601548Y-117035452D01*
X169626534Y-117065897D01*
X169645101Y-117100633D01*
X169656535Y-117138326D01*
X169661000Y-117183661D01*
X169661000Y-118020339D01*
X169656535Y-118065674D01*
X169645101Y-118103367D01*
X169626534Y-118138103D01*
X169601548Y-118168548D01*
X169571103Y-118193534D01*
X169536367Y-118212101D01*
X169498674Y-118223535D01*
X169453339Y-118228000D01*
X168366661Y-118228000D01*
X168321326Y-118223535D01*
X168283633Y-118212101D01*
X168248897Y-118193534D01*
X168218452Y-118168548D01*
X168193466Y-118138103D01*
X168174899Y-118103367D01*
X168163465Y-118065674D01*
X168159000Y-118020339D01*
X168159000Y-117183661D01*
X168163465Y-117138326D01*
X168174899Y-117100633D01*
X168193466Y-117065897D01*
X168218452Y-117035452D01*
X168248897Y-117010466D01*
X168283633Y-116991899D01*
X168321326Y-116980465D01*
X168366661Y-116976000D01*
X169453339Y-116976000D01*
X169498674Y-116980465D01*
X169498674Y-116980465D01*
G37*
G36*
X166450674Y-116962465D02*
G01*
X166488367Y-116973899D01*
X166523103Y-116992466D01*
X166553548Y-117017452D01*
X166578534Y-117047897D01*
X166597101Y-117082633D01*
X166608535Y-117120326D01*
X166613000Y-117165661D01*
X166613000Y-118002339D01*
X166608535Y-118047674D01*
X166597101Y-118085367D01*
X166578534Y-118120103D01*
X166553548Y-118150548D01*
X166523103Y-118175534D01*
X166488367Y-118194101D01*
X166450674Y-118205535D01*
X166405339Y-118210000D01*
X165318661Y-118210000D01*
X165273326Y-118205535D01*
X165235633Y-118194101D01*
X165200897Y-118175534D01*
X165170452Y-118150548D01*
X165145466Y-118120103D01*
X165126899Y-118085367D01*
X165115465Y-118047674D01*
X165111000Y-118002339D01*
X165111000Y-117165661D01*
X165115465Y-117120326D01*
X165126899Y-117082633D01*
X165145466Y-117047897D01*
X165170452Y-117017452D01*
X165200897Y-116992466D01*
X165235633Y-116973899D01*
X165273326Y-116962465D01*
X165318661Y-116958000D01*
X166405339Y-116958000D01*
X166450674Y-116962465D01*
X166450674Y-116962465D01*
G37*
G36*
X130441000Y-117741000D02*
G01*
X128639000Y-117741000D01*
X128639000Y-115939000D01*
X130441000Y-115939000D01*
X130441000Y-117741000D01*
X130441000Y-117741000D01*
G37*
G36*
X182990442Y-115945518D02*
G01*
X183056627Y-115952037D01*
X183226466Y-116003557D01*
X183382991Y-116087222D01*
X183418729Y-116116552D01*
X183520186Y-116199814D01*
X183603448Y-116301271D01*
X183632778Y-116337009D01*
X183716443Y-116493534D01*
X183767963Y-116663373D01*
X183785359Y-116840000D01*
X183767963Y-117016627D01*
X183716443Y-117186466D01*
X183632778Y-117342991D01*
X183603448Y-117378729D01*
X183520186Y-117480186D01*
X183418729Y-117563448D01*
X183382991Y-117592778D01*
X183226466Y-117676443D01*
X183056627Y-117727963D01*
X182990442Y-117734482D01*
X182924260Y-117741000D01*
X182835740Y-117741000D01*
X182769558Y-117734482D01*
X182703373Y-117727963D01*
X182533534Y-117676443D01*
X182377009Y-117592778D01*
X182341271Y-117563448D01*
X182239814Y-117480186D01*
X182156552Y-117378729D01*
X182127222Y-117342991D01*
X182043557Y-117186466D01*
X181992037Y-117016627D01*
X181974641Y-116840000D01*
X181992037Y-116663373D01*
X182043557Y-116493534D01*
X182127222Y-116337009D01*
X182156552Y-116301271D01*
X182239814Y-116199814D01*
X182341271Y-116116552D01*
X182377009Y-116087222D01*
X182533534Y-116003557D01*
X182703373Y-115952037D01*
X182769558Y-115945518D01*
X182835740Y-115939000D01*
X182924260Y-115939000D01*
X182990442Y-115945518D01*
X182990442Y-115945518D01*
G37*
G36*
X159241928Y-116364764D02*
G01*
X159263009Y-116371160D01*
X159282445Y-116381548D01*
X159299476Y-116395524D01*
X159313452Y-116412555D01*
X159323840Y-116431991D01*
X159330236Y-116453072D01*
X159333000Y-116481140D01*
X159333000Y-116944860D01*
X159330236Y-116972928D01*
X159323840Y-116994009D01*
X159313452Y-117013445D01*
X159299476Y-117030476D01*
X159282445Y-117044452D01*
X159263009Y-117054840D01*
X159241928Y-117061236D01*
X159213860Y-117064000D01*
X157400140Y-117064000D01*
X157372072Y-117061236D01*
X157350991Y-117054840D01*
X157331555Y-117044452D01*
X157314524Y-117030476D01*
X157300548Y-117013445D01*
X157290160Y-116994009D01*
X157283764Y-116972928D01*
X157281000Y-116944860D01*
X157281000Y-116481140D01*
X157283764Y-116453072D01*
X157290160Y-116431991D01*
X157300548Y-116412555D01*
X157314524Y-116395524D01*
X157331555Y-116381548D01*
X157350991Y-116371160D01*
X157372072Y-116364764D01*
X157400140Y-116362000D01*
X159213860Y-116362000D01*
X159241928Y-116364764D01*
X159241928Y-116364764D01*
G37*
G36*
X164191928Y-116364764D02*
G01*
X164213009Y-116371160D01*
X164232445Y-116381548D01*
X164249476Y-116395524D01*
X164263452Y-116412555D01*
X164273840Y-116431991D01*
X164280236Y-116453072D01*
X164283000Y-116481140D01*
X164283000Y-116944860D01*
X164280236Y-116972928D01*
X164273840Y-116994009D01*
X164263452Y-117013445D01*
X164249476Y-117030476D01*
X164232445Y-117044452D01*
X164213009Y-117054840D01*
X164191928Y-117061236D01*
X164163860Y-117064000D01*
X162350140Y-117064000D01*
X162322072Y-117061236D01*
X162300991Y-117054840D01*
X162281555Y-117044452D01*
X162264524Y-117030476D01*
X162250548Y-117013445D01*
X162240160Y-116994009D01*
X162233764Y-116972928D01*
X162231000Y-116944860D01*
X162231000Y-116481140D01*
X162233764Y-116453072D01*
X162240160Y-116431991D01*
X162250548Y-116412555D01*
X162264524Y-116395524D01*
X162281555Y-116381548D01*
X162300991Y-116371160D01*
X162322072Y-116364764D01*
X162350140Y-116362000D01*
X164163860Y-116362000D01*
X164191928Y-116364764D01*
X164191928Y-116364764D01*
G37*
G36*
X166450674Y-114703465D02*
G01*
X166488367Y-114714899D01*
X166523103Y-114733466D01*
X166553548Y-114758452D01*
X166578534Y-114788897D01*
X166597101Y-114823633D01*
X166608535Y-114861326D01*
X166613000Y-114906661D01*
X166613000Y-115743339D01*
X166608535Y-115788674D01*
X166597101Y-115826367D01*
X166578534Y-115861103D01*
X166553548Y-115891548D01*
X166523103Y-115916534D01*
X166488367Y-115935101D01*
X166450674Y-115946535D01*
X166405339Y-115951000D01*
X165318661Y-115951000D01*
X165273326Y-115946535D01*
X165235633Y-115935101D01*
X165200897Y-115916534D01*
X165170452Y-115891548D01*
X165145466Y-115861103D01*
X165126899Y-115826367D01*
X165115465Y-115788674D01*
X165111000Y-115743339D01*
X165111000Y-114906661D01*
X165115465Y-114861326D01*
X165126899Y-114823633D01*
X165145466Y-114788897D01*
X165170452Y-114758452D01*
X165200897Y-114733466D01*
X165235633Y-114714899D01*
X165273326Y-114703465D01*
X165318661Y-114699000D01*
X166405339Y-114699000D01*
X166450674Y-114703465D01*
X166450674Y-114703465D01*
G37*
G36*
X172546674Y-114694465D02*
G01*
X172584367Y-114705899D01*
X172619103Y-114724466D01*
X172649548Y-114749452D01*
X172674534Y-114779897D01*
X172693101Y-114814633D01*
X172704535Y-114852326D01*
X172709000Y-114897661D01*
X172709000Y-115734339D01*
X172704535Y-115779674D01*
X172693101Y-115817367D01*
X172674534Y-115852103D01*
X172649548Y-115882548D01*
X172619103Y-115907534D01*
X172584367Y-115926101D01*
X172546674Y-115937535D01*
X172501339Y-115942000D01*
X171414661Y-115942000D01*
X171369326Y-115937535D01*
X171331633Y-115926101D01*
X171296897Y-115907534D01*
X171266452Y-115882548D01*
X171241466Y-115852103D01*
X171222899Y-115817367D01*
X171211465Y-115779674D01*
X171207000Y-115734339D01*
X171207000Y-114897661D01*
X171211465Y-114852326D01*
X171222899Y-114814633D01*
X171241466Y-114779897D01*
X171266452Y-114749452D01*
X171296897Y-114724466D01*
X171331633Y-114705899D01*
X171369326Y-114694465D01*
X171414661Y-114690000D01*
X172501339Y-114690000D01*
X172546674Y-114694465D01*
X172546674Y-114694465D01*
G37*
G36*
X169498674Y-114694465D02*
G01*
X169536367Y-114705899D01*
X169571103Y-114724466D01*
X169601548Y-114749452D01*
X169626534Y-114779897D01*
X169645101Y-114814633D01*
X169656535Y-114852326D01*
X169661000Y-114897661D01*
X169661000Y-115734339D01*
X169656535Y-115779674D01*
X169645101Y-115817367D01*
X169626534Y-115852103D01*
X169601548Y-115882548D01*
X169571103Y-115907534D01*
X169536367Y-115926101D01*
X169498674Y-115937535D01*
X169453339Y-115942000D01*
X168366661Y-115942000D01*
X168321326Y-115937535D01*
X168283633Y-115926101D01*
X168248897Y-115907534D01*
X168218452Y-115882548D01*
X168193466Y-115852103D01*
X168174899Y-115817367D01*
X168163465Y-115779674D01*
X168159000Y-115734339D01*
X168159000Y-114897661D01*
X168163465Y-114852326D01*
X168174899Y-114814633D01*
X168193466Y-114779897D01*
X168218452Y-114749452D01*
X168248897Y-114724466D01*
X168283633Y-114705899D01*
X168321326Y-114694465D01*
X168366661Y-114690000D01*
X169453339Y-114690000D01*
X169498674Y-114694465D01*
X169498674Y-114694465D01*
G37*
G36*
X164191928Y-115094764D02*
G01*
X164213009Y-115101160D01*
X164232445Y-115111548D01*
X164249476Y-115125524D01*
X164263452Y-115142555D01*
X164273840Y-115161991D01*
X164280236Y-115183072D01*
X164283000Y-115211140D01*
X164283000Y-115674860D01*
X164280236Y-115702928D01*
X164273840Y-115724009D01*
X164263452Y-115743445D01*
X164249476Y-115760476D01*
X164232445Y-115774452D01*
X164213009Y-115784840D01*
X164191928Y-115791236D01*
X164163860Y-115794000D01*
X162350140Y-115794000D01*
X162322072Y-115791236D01*
X162300991Y-115784840D01*
X162281555Y-115774452D01*
X162264524Y-115760476D01*
X162250548Y-115743445D01*
X162240160Y-115724009D01*
X162233764Y-115702928D01*
X162231000Y-115674860D01*
X162231000Y-115211140D01*
X162233764Y-115183072D01*
X162240160Y-115161991D01*
X162250548Y-115142555D01*
X162264524Y-115125524D01*
X162281555Y-115111548D01*
X162300991Y-115101160D01*
X162322072Y-115094764D01*
X162350140Y-115092000D01*
X164163860Y-115092000D01*
X164191928Y-115094764D01*
X164191928Y-115094764D01*
G37*
G36*
X159241928Y-115094764D02*
G01*
X159263009Y-115101160D01*
X159282445Y-115111548D01*
X159299476Y-115125524D01*
X159313452Y-115142555D01*
X159323840Y-115161991D01*
X159330236Y-115183072D01*
X159333000Y-115211140D01*
X159333000Y-115674860D01*
X159330236Y-115702928D01*
X159323840Y-115724009D01*
X159313452Y-115743445D01*
X159299476Y-115760476D01*
X159282445Y-115774452D01*
X159263009Y-115784840D01*
X159241928Y-115791236D01*
X159213860Y-115794000D01*
X157400140Y-115794000D01*
X157372072Y-115791236D01*
X157350991Y-115784840D01*
X157331555Y-115774452D01*
X157314524Y-115760476D01*
X157300548Y-115743445D01*
X157290160Y-115724009D01*
X157283764Y-115702928D01*
X157281000Y-115674860D01*
X157281000Y-115211140D01*
X157283764Y-115183072D01*
X157290160Y-115161991D01*
X157300548Y-115142555D01*
X157314524Y-115125524D01*
X157331555Y-115111548D01*
X157350991Y-115101160D01*
X157372072Y-115094764D01*
X157400140Y-115092000D01*
X159213860Y-115092000D01*
X159241928Y-115094764D01*
X159241928Y-115094764D01*
G37*
G36*
X177684000Y-115621000D02*
G01*
X176392000Y-115621000D01*
X176392000Y-112729000D01*
X177684000Y-112729000D01*
X177684000Y-115621000D01*
X177684000Y-115621000D01*
G37*
G36*
X182990443Y-113405519D02*
G01*
X183056627Y-113412037D01*
X183226466Y-113463557D01*
X183382991Y-113547222D01*
X183418729Y-113576552D01*
X183520186Y-113659814D01*
X183595390Y-113751452D01*
X183632778Y-113797009D01*
X183716443Y-113953534D01*
X183767963Y-114123373D01*
X183785359Y-114300000D01*
X183767963Y-114476627D01*
X183716443Y-114646466D01*
X183632778Y-114802991D01*
X183615837Y-114823633D01*
X183520186Y-114940186D01*
X183418729Y-115023448D01*
X183382991Y-115052778D01*
X183226466Y-115136443D01*
X183056627Y-115187963D01*
X182990442Y-115194482D01*
X182924260Y-115201000D01*
X182835740Y-115201000D01*
X182769558Y-115194482D01*
X182703373Y-115187963D01*
X182533534Y-115136443D01*
X182377009Y-115052778D01*
X182341271Y-115023448D01*
X182239814Y-114940186D01*
X182144163Y-114823633D01*
X182127222Y-114802991D01*
X182043557Y-114646466D01*
X181992037Y-114476627D01*
X181974641Y-114300000D01*
X181992037Y-114123373D01*
X182043557Y-113953534D01*
X182127222Y-113797009D01*
X182164610Y-113751452D01*
X182239814Y-113659814D01*
X182341271Y-113576552D01*
X182377009Y-113547222D01*
X182533534Y-113463557D01*
X182703373Y-113412037D01*
X182769557Y-113405519D01*
X182835740Y-113399000D01*
X182924260Y-113399000D01*
X182990443Y-113405519D01*
X182990443Y-113405519D01*
G37*
G36*
X156290674Y-113696465D02*
G01*
X156328367Y-113707899D01*
X156363103Y-113726466D01*
X156393548Y-113751452D01*
X156418534Y-113781897D01*
X156437101Y-113816633D01*
X156448535Y-113854326D01*
X156453000Y-113899661D01*
X156453000Y-114736339D01*
X156448535Y-114781674D01*
X156437101Y-114819367D01*
X156418534Y-114854103D01*
X156393548Y-114884548D01*
X156363103Y-114909534D01*
X156328367Y-114928101D01*
X156290674Y-114939535D01*
X156245339Y-114944000D01*
X155158661Y-114944000D01*
X155113326Y-114939535D01*
X155075633Y-114928101D01*
X155040897Y-114909534D01*
X155010452Y-114884548D01*
X154985466Y-114854103D01*
X154966899Y-114819367D01*
X154955465Y-114781674D01*
X154951000Y-114736339D01*
X154951000Y-113899661D01*
X154955465Y-113854326D01*
X154966899Y-113816633D01*
X154985466Y-113781897D01*
X155010452Y-113751452D01*
X155040897Y-113726466D01*
X155075633Y-113707899D01*
X155113326Y-113696465D01*
X155158661Y-113692000D01*
X156245339Y-113692000D01*
X156290674Y-113696465D01*
X156290674Y-113696465D01*
G37*
G36*
X150702674Y-113678465D02*
G01*
X150740367Y-113689899D01*
X150775103Y-113708466D01*
X150805548Y-113733452D01*
X150830534Y-113763897D01*
X150849101Y-113798633D01*
X150860535Y-113836326D01*
X150865000Y-113881661D01*
X150865000Y-114718339D01*
X150860535Y-114763674D01*
X150849101Y-114801367D01*
X150830534Y-114836103D01*
X150805548Y-114866548D01*
X150775103Y-114891534D01*
X150740367Y-114910101D01*
X150702674Y-114921535D01*
X150657339Y-114926000D01*
X149570661Y-114926000D01*
X149525326Y-114921535D01*
X149487633Y-114910101D01*
X149452897Y-114891534D01*
X149422452Y-114866548D01*
X149397466Y-114836103D01*
X149378899Y-114801367D01*
X149367465Y-114763674D01*
X149363000Y-114718339D01*
X149363000Y-113881661D01*
X149367465Y-113836326D01*
X149378899Y-113798633D01*
X149397466Y-113763897D01*
X149422452Y-113733452D01*
X149452897Y-113708466D01*
X149487633Y-113689899D01*
X149525326Y-113678465D01*
X149570661Y-113674000D01*
X150657339Y-113674000D01*
X150702674Y-113678465D01*
X150702674Y-113678465D01*
G37*
G36*
X147908674Y-113678465D02*
G01*
X147946367Y-113689899D01*
X147981103Y-113708466D01*
X148011548Y-113733452D01*
X148036534Y-113763897D01*
X148055101Y-113798633D01*
X148066535Y-113836326D01*
X148071000Y-113881661D01*
X148071000Y-114718339D01*
X148066535Y-114763674D01*
X148055101Y-114801367D01*
X148036534Y-114836103D01*
X148011548Y-114866548D01*
X147981103Y-114891534D01*
X147946367Y-114910101D01*
X147908674Y-114921535D01*
X147863339Y-114926000D01*
X146776661Y-114926000D01*
X146731326Y-114921535D01*
X146693633Y-114910101D01*
X146658897Y-114891534D01*
X146628452Y-114866548D01*
X146603466Y-114836103D01*
X146584899Y-114801367D01*
X146573465Y-114763674D01*
X146569000Y-114718339D01*
X146569000Y-113881661D01*
X146573465Y-113836326D01*
X146584899Y-113798633D01*
X146603466Y-113763897D01*
X146628452Y-113733452D01*
X146658897Y-113708466D01*
X146693633Y-113689899D01*
X146731326Y-113678465D01*
X146776661Y-113674000D01*
X147863339Y-113674000D01*
X147908674Y-113678465D01*
X147908674Y-113678465D01*
G37*
G36*
X153496674Y-113678465D02*
G01*
X153534367Y-113689899D01*
X153569103Y-113708466D01*
X153599548Y-113733452D01*
X153624534Y-113763897D01*
X153643101Y-113798633D01*
X153654535Y-113836326D01*
X153659000Y-113881661D01*
X153659000Y-114718339D01*
X153654535Y-114763674D01*
X153643101Y-114801367D01*
X153624534Y-114836103D01*
X153599548Y-114866548D01*
X153569103Y-114891534D01*
X153534367Y-114910101D01*
X153496674Y-114921535D01*
X153451339Y-114926000D01*
X152364661Y-114926000D01*
X152319326Y-114921535D01*
X152281633Y-114910101D01*
X152246897Y-114891534D01*
X152216452Y-114866548D01*
X152191466Y-114836103D01*
X152172899Y-114801367D01*
X152161465Y-114763674D01*
X152157000Y-114718339D01*
X152157000Y-113881661D01*
X152161465Y-113836326D01*
X152172899Y-113798633D01*
X152191466Y-113763897D01*
X152216452Y-113733452D01*
X152246897Y-113708466D01*
X152281633Y-113689899D01*
X152319326Y-113678465D01*
X152364661Y-113674000D01*
X153451339Y-113674000D01*
X153496674Y-113678465D01*
X153496674Y-113678465D01*
G37*
G36*
X159241928Y-113824764D02*
G01*
X159263009Y-113831160D01*
X159282445Y-113841548D01*
X159299476Y-113855524D01*
X159313452Y-113872555D01*
X159323840Y-113891991D01*
X159330236Y-113913072D01*
X159333000Y-113941140D01*
X159333000Y-114404860D01*
X159330236Y-114432928D01*
X159323840Y-114454009D01*
X159313452Y-114473445D01*
X159299476Y-114490476D01*
X159282445Y-114504452D01*
X159263009Y-114514840D01*
X159241928Y-114521236D01*
X159213860Y-114524000D01*
X157400140Y-114524000D01*
X157372072Y-114521236D01*
X157350991Y-114514840D01*
X157331555Y-114504452D01*
X157314524Y-114490476D01*
X157300548Y-114473445D01*
X157290160Y-114454009D01*
X157283764Y-114432928D01*
X157281000Y-114404860D01*
X157281000Y-113941140D01*
X157283764Y-113913072D01*
X157290160Y-113891991D01*
X157300548Y-113872555D01*
X157314524Y-113855524D01*
X157331555Y-113841548D01*
X157350991Y-113831160D01*
X157372072Y-113824764D01*
X157400140Y-113822000D01*
X159213860Y-113822000D01*
X159241928Y-113824764D01*
X159241928Y-113824764D01*
G37*
G36*
X164191928Y-113824764D02*
G01*
X164213009Y-113831160D01*
X164232445Y-113841548D01*
X164249476Y-113855524D01*
X164263452Y-113872555D01*
X164273840Y-113891991D01*
X164280236Y-113913072D01*
X164283000Y-113941140D01*
X164283000Y-114404860D01*
X164280236Y-114432928D01*
X164273840Y-114454009D01*
X164263452Y-114473445D01*
X164249476Y-114490476D01*
X164232445Y-114504452D01*
X164213009Y-114514840D01*
X164191928Y-114521236D01*
X164163860Y-114524000D01*
X162350140Y-114524000D01*
X162322072Y-114521236D01*
X162300991Y-114514840D01*
X162281555Y-114504452D01*
X162264524Y-114490476D01*
X162250548Y-114473445D01*
X162240160Y-114454009D01*
X162233764Y-114432928D01*
X162231000Y-114404860D01*
X162231000Y-113941140D01*
X162233764Y-113913072D01*
X162240160Y-113891991D01*
X162250548Y-113872555D01*
X162264524Y-113855524D01*
X162281555Y-113841548D01*
X162300991Y-113831160D01*
X162322072Y-113824764D01*
X162350140Y-113822000D01*
X164163860Y-113822000D01*
X164191928Y-113824764D01*
X164191928Y-113824764D01*
G37*
G36*
X166450674Y-112653465D02*
G01*
X166488367Y-112664899D01*
X166523103Y-112683466D01*
X166553548Y-112708452D01*
X166578534Y-112738897D01*
X166597101Y-112773633D01*
X166608535Y-112811326D01*
X166613000Y-112856661D01*
X166613000Y-113693339D01*
X166608535Y-113738674D01*
X166597101Y-113776367D01*
X166578534Y-113811103D01*
X166553548Y-113841548D01*
X166523103Y-113866534D01*
X166488367Y-113885101D01*
X166450674Y-113896535D01*
X166405339Y-113901000D01*
X165318661Y-113901000D01*
X165273326Y-113896535D01*
X165235633Y-113885101D01*
X165200897Y-113866534D01*
X165170452Y-113841548D01*
X165145466Y-113811103D01*
X165126899Y-113776367D01*
X165115465Y-113738674D01*
X165111000Y-113693339D01*
X165111000Y-112856661D01*
X165115465Y-112811326D01*
X165126899Y-112773633D01*
X165145466Y-112738897D01*
X165170452Y-112708452D01*
X165200897Y-112683466D01*
X165235633Y-112664899D01*
X165273326Y-112653465D01*
X165318661Y-112649000D01*
X166405339Y-112649000D01*
X166450674Y-112653465D01*
X166450674Y-112653465D01*
G37*
G36*
X172546674Y-112644465D02*
G01*
X172584367Y-112655899D01*
X172619103Y-112674466D01*
X172649548Y-112699452D01*
X172674534Y-112729897D01*
X172693101Y-112764633D01*
X172704535Y-112802326D01*
X172709000Y-112847661D01*
X172709000Y-113684339D01*
X172704535Y-113729674D01*
X172693101Y-113767367D01*
X172674534Y-113802103D01*
X172649548Y-113832548D01*
X172619103Y-113857534D01*
X172584367Y-113876101D01*
X172546674Y-113887535D01*
X172501339Y-113892000D01*
X171414661Y-113892000D01*
X171369326Y-113887535D01*
X171331633Y-113876101D01*
X171296897Y-113857534D01*
X171266452Y-113832548D01*
X171241466Y-113802103D01*
X171222899Y-113767367D01*
X171211465Y-113729674D01*
X171207000Y-113684339D01*
X171207000Y-112847661D01*
X171211465Y-112802326D01*
X171222899Y-112764633D01*
X171241466Y-112729897D01*
X171266452Y-112699452D01*
X171296897Y-112674466D01*
X171331633Y-112655899D01*
X171369326Y-112644465D01*
X171414661Y-112640000D01*
X172501339Y-112640000D01*
X172546674Y-112644465D01*
X172546674Y-112644465D01*
G37*
G36*
X169498674Y-112644465D02*
G01*
X169536367Y-112655899D01*
X169571103Y-112674466D01*
X169601548Y-112699452D01*
X169626534Y-112729897D01*
X169645101Y-112764633D01*
X169656535Y-112802326D01*
X169661000Y-112847661D01*
X169661000Y-113684339D01*
X169656535Y-113729674D01*
X169645101Y-113767367D01*
X169626534Y-113802103D01*
X169601548Y-113832548D01*
X169571103Y-113857534D01*
X169536367Y-113876101D01*
X169498674Y-113887535D01*
X169453339Y-113892000D01*
X168366661Y-113892000D01*
X168321326Y-113887535D01*
X168283633Y-113876101D01*
X168248897Y-113857534D01*
X168218452Y-113832548D01*
X168193466Y-113802103D01*
X168174899Y-113767367D01*
X168163465Y-113729674D01*
X168159000Y-113684339D01*
X168159000Y-112847661D01*
X168163465Y-112802326D01*
X168174899Y-112764633D01*
X168193466Y-112729897D01*
X168218452Y-112699452D01*
X168248897Y-112674466D01*
X168283633Y-112655899D01*
X168321326Y-112644465D01*
X168366661Y-112640000D01*
X169453339Y-112640000D01*
X169498674Y-112644465D01*
X169498674Y-112644465D01*
G37*
G36*
X164191928Y-112554764D02*
G01*
X164213009Y-112561160D01*
X164232445Y-112571548D01*
X164249476Y-112585524D01*
X164263452Y-112602555D01*
X164273840Y-112621991D01*
X164280236Y-112643072D01*
X164283000Y-112671140D01*
X164283000Y-113134860D01*
X164280236Y-113162928D01*
X164273840Y-113184009D01*
X164263452Y-113203445D01*
X164249476Y-113220476D01*
X164232445Y-113234452D01*
X164213009Y-113244840D01*
X164191928Y-113251236D01*
X164163860Y-113254000D01*
X162350140Y-113254000D01*
X162322072Y-113251236D01*
X162300991Y-113244840D01*
X162281555Y-113234452D01*
X162264524Y-113220476D01*
X162250548Y-113203445D01*
X162240160Y-113184009D01*
X162233764Y-113162928D01*
X162231000Y-113134860D01*
X162231000Y-112671140D01*
X162233764Y-112643072D01*
X162240160Y-112621991D01*
X162250548Y-112602555D01*
X162264524Y-112585524D01*
X162281555Y-112571548D01*
X162300991Y-112561160D01*
X162322072Y-112554764D01*
X162350140Y-112552000D01*
X164163860Y-112552000D01*
X164191928Y-112554764D01*
X164191928Y-112554764D01*
G37*
G36*
X159241928Y-112554764D02*
G01*
X159263009Y-112561160D01*
X159282445Y-112571548D01*
X159299476Y-112585524D01*
X159313452Y-112602555D01*
X159323840Y-112621991D01*
X159330236Y-112643072D01*
X159333000Y-112671140D01*
X159333000Y-113134860D01*
X159330236Y-113162928D01*
X159323840Y-113184009D01*
X159313452Y-113203445D01*
X159299476Y-113220476D01*
X159282445Y-113234452D01*
X159263009Y-113244840D01*
X159241928Y-113251236D01*
X159213860Y-113254000D01*
X157400140Y-113254000D01*
X157372072Y-113251236D01*
X157350991Y-113244840D01*
X157331555Y-113234452D01*
X157314524Y-113220476D01*
X157300548Y-113203445D01*
X157290160Y-113184009D01*
X157283764Y-113162928D01*
X157281000Y-113134860D01*
X157281000Y-112671140D01*
X157283764Y-112643072D01*
X157290160Y-112621991D01*
X157300548Y-112602555D01*
X157314524Y-112585524D01*
X157331555Y-112571548D01*
X157350991Y-112561160D01*
X157372072Y-112554764D01*
X157400140Y-112552000D01*
X159213860Y-112552000D01*
X159241928Y-112554764D01*
X159241928Y-112554764D01*
G37*
G36*
X156290674Y-111646465D02*
G01*
X156328367Y-111657899D01*
X156363103Y-111676466D01*
X156393548Y-111701452D01*
X156418534Y-111731897D01*
X156437101Y-111766633D01*
X156448535Y-111804326D01*
X156453000Y-111849661D01*
X156453000Y-112686339D01*
X156448535Y-112731674D01*
X156437101Y-112769367D01*
X156418534Y-112804103D01*
X156393548Y-112834548D01*
X156363103Y-112859534D01*
X156328367Y-112878101D01*
X156290674Y-112889535D01*
X156245339Y-112894000D01*
X155158661Y-112894000D01*
X155113326Y-112889535D01*
X155075633Y-112878101D01*
X155040897Y-112859534D01*
X155010452Y-112834548D01*
X154985466Y-112804103D01*
X154966899Y-112769367D01*
X154955465Y-112731674D01*
X154951000Y-112686339D01*
X154951000Y-111849661D01*
X154955465Y-111804326D01*
X154966899Y-111766633D01*
X154985466Y-111731897D01*
X155010452Y-111701452D01*
X155040897Y-111676466D01*
X155075633Y-111657899D01*
X155113326Y-111646465D01*
X155158661Y-111642000D01*
X156245339Y-111642000D01*
X156290674Y-111646465D01*
X156290674Y-111646465D01*
G37*
G36*
X150702674Y-111628465D02*
G01*
X150740367Y-111639899D01*
X150775103Y-111658466D01*
X150805548Y-111683452D01*
X150830534Y-111713897D01*
X150849101Y-111748633D01*
X150860535Y-111786326D01*
X150865000Y-111831661D01*
X150865000Y-112668339D01*
X150860535Y-112713674D01*
X150849101Y-112751367D01*
X150830534Y-112786103D01*
X150805548Y-112816548D01*
X150775103Y-112841534D01*
X150740367Y-112860101D01*
X150702674Y-112871535D01*
X150657339Y-112876000D01*
X149570661Y-112876000D01*
X149525326Y-112871535D01*
X149487633Y-112860101D01*
X149452897Y-112841534D01*
X149422452Y-112816548D01*
X149397466Y-112786103D01*
X149378899Y-112751367D01*
X149367465Y-112713674D01*
X149363000Y-112668339D01*
X149363000Y-111831661D01*
X149367465Y-111786326D01*
X149378899Y-111748633D01*
X149397466Y-111713897D01*
X149422452Y-111683452D01*
X149452897Y-111658466D01*
X149487633Y-111639899D01*
X149525326Y-111628465D01*
X149570661Y-111624000D01*
X150657339Y-111624000D01*
X150702674Y-111628465D01*
X150702674Y-111628465D01*
G37*
G36*
X153496674Y-111628465D02*
G01*
X153534367Y-111639899D01*
X153569103Y-111658466D01*
X153599548Y-111683452D01*
X153624534Y-111713897D01*
X153643101Y-111748633D01*
X153654535Y-111786326D01*
X153659000Y-111831661D01*
X153659000Y-112668339D01*
X153654535Y-112713674D01*
X153643101Y-112751367D01*
X153624534Y-112786103D01*
X153599548Y-112816548D01*
X153569103Y-112841534D01*
X153534367Y-112860101D01*
X153496674Y-112871535D01*
X153451339Y-112876000D01*
X152364661Y-112876000D01*
X152319326Y-112871535D01*
X152281633Y-112860101D01*
X152246897Y-112841534D01*
X152216452Y-112816548D01*
X152191466Y-112786103D01*
X152172899Y-112751367D01*
X152161465Y-112713674D01*
X152157000Y-112668339D01*
X152157000Y-111831661D01*
X152161465Y-111786326D01*
X152172899Y-111748633D01*
X152191466Y-111713897D01*
X152216452Y-111683452D01*
X152246897Y-111658466D01*
X152281633Y-111639899D01*
X152319326Y-111628465D01*
X152364661Y-111624000D01*
X153451339Y-111624000D01*
X153496674Y-111628465D01*
X153496674Y-111628465D01*
G37*
G36*
X147908674Y-111628465D02*
G01*
X147946367Y-111639899D01*
X147981103Y-111658466D01*
X148011548Y-111683452D01*
X148036534Y-111713897D01*
X148055101Y-111748633D01*
X148066535Y-111786326D01*
X148071000Y-111831661D01*
X148071000Y-112668339D01*
X148066535Y-112713674D01*
X148055101Y-112751367D01*
X148036534Y-112786103D01*
X148011548Y-112816548D01*
X147981103Y-112841534D01*
X147946367Y-112860101D01*
X147908674Y-112871535D01*
X147863339Y-112876000D01*
X146776661Y-112876000D01*
X146731326Y-112871535D01*
X146693633Y-112860101D01*
X146658897Y-112841534D01*
X146628452Y-112816548D01*
X146603466Y-112786103D01*
X146584899Y-112751367D01*
X146573465Y-112713674D01*
X146569000Y-112668339D01*
X146569000Y-111831661D01*
X146573465Y-111786326D01*
X146584899Y-111748633D01*
X146603466Y-111713897D01*
X146628452Y-111683452D01*
X146658897Y-111658466D01*
X146693633Y-111639899D01*
X146731326Y-111628465D01*
X146776661Y-111624000D01*
X147863339Y-111624000D01*
X147908674Y-111628465D01*
X147908674Y-111628465D01*
G37*
G36*
X182990442Y-110865518D02*
G01*
X183056627Y-110872037D01*
X183226466Y-110923557D01*
X183382991Y-111007222D01*
X183418729Y-111036552D01*
X183520186Y-111119814D01*
X183603448Y-111221271D01*
X183632778Y-111257009D01*
X183716443Y-111413534D01*
X183767963Y-111583373D01*
X183785359Y-111760000D01*
X183767963Y-111936627D01*
X183716443Y-112106466D01*
X183632778Y-112262991D01*
X183603448Y-112298729D01*
X183520186Y-112400186D01*
X183418729Y-112483448D01*
X183382991Y-112512778D01*
X183226466Y-112596443D01*
X183056627Y-112647963D01*
X183000763Y-112653465D01*
X182924260Y-112661000D01*
X182835740Y-112661000D01*
X182759237Y-112653465D01*
X182703373Y-112647963D01*
X182533534Y-112596443D01*
X182377009Y-112512778D01*
X182341271Y-112483448D01*
X182239814Y-112400186D01*
X182156552Y-112298729D01*
X182127222Y-112262991D01*
X182043557Y-112106466D01*
X181992037Y-111936627D01*
X181974641Y-111760000D01*
X181992037Y-111583373D01*
X182043557Y-111413534D01*
X182127222Y-111257009D01*
X182156552Y-111221271D01*
X182239814Y-111119814D01*
X182341271Y-111036552D01*
X182377009Y-111007222D01*
X182533534Y-110923557D01*
X182703373Y-110872037D01*
X182769558Y-110865518D01*
X182835740Y-110859000D01*
X182924260Y-110859000D01*
X182990442Y-110865518D01*
X182990442Y-110865518D01*
G37*
G36*
X175144000Y-110791000D02*
G01*
X173852000Y-110791000D01*
X173852000Y-107899000D01*
X175144000Y-107899000D01*
X175144000Y-110791000D01*
X175144000Y-110791000D01*
G37*
G36*
X180224000Y-110791000D02*
G01*
X178932000Y-110791000D01*
X178932000Y-107899000D01*
X180224000Y-107899000D01*
X180224000Y-110791000D01*
X180224000Y-110791000D01*
G37*
G36*
X182990443Y-108325519D02*
G01*
X183056627Y-108332037D01*
X183226466Y-108383557D01*
X183382991Y-108467222D01*
X183418729Y-108496552D01*
X183520186Y-108579814D01*
X183603448Y-108681271D01*
X183632778Y-108717009D01*
X183716443Y-108873534D01*
X183767963Y-109043373D01*
X183785359Y-109220000D01*
X183767963Y-109396627D01*
X183716443Y-109566466D01*
X183632778Y-109722991D01*
X183603448Y-109758729D01*
X183520186Y-109860186D01*
X183418729Y-109943448D01*
X183382991Y-109972778D01*
X183226466Y-110056443D01*
X183056627Y-110107963D01*
X182990443Y-110114481D01*
X182924260Y-110121000D01*
X182835740Y-110121000D01*
X182769557Y-110114481D01*
X182703373Y-110107963D01*
X182533534Y-110056443D01*
X182377009Y-109972778D01*
X182341271Y-109943448D01*
X182239814Y-109860186D01*
X182156552Y-109758729D01*
X182127222Y-109722991D01*
X182043557Y-109566466D01*
X181992037Y-109396627D01*
X181974641Y-109220000D01*
X181992037Y-109043373D01*
X182043557Y-108873534D01*
X182127222Y-108717009D01*
X182156552Y-108681271D01*
X182239814Y-108579814D01*
X182341271Y-108496552D01*
X182377009Y-108467222D01*
X182533534Y-108383557D01*
X182703373Y-108332037D01*
X182769557Y-108325519D01*
X182835740Y-108319000D01*
X182924260Y-108319000D01*
X182990443Y-108325519D01*
X182990443Y-108325519D01*
G37*
G36*
X168396228Y-106115703D02*
G01*
X168551100Y-106179853D01*
X168690481Y-106272985D01*
X168809015Y-106391519D01*
X168902147Y-106530900D01*
X168966297Y-106685772D01*
X168999000Y-106850184D01*
X168999000Y-107017816D01*
X168966297Y-107182228D01*
X168902147Y-107337100D01*
X168809015Y-107476481D01*
X168690481Y-107595015D01*
X168551100Y-107688147D01*
X168396228Y-107752297D01*
X168231816Y-107785000D01*
X168064184Y-107785000D01*
X167899772Y-107752297D01*
X167744900Y-107688147D01*
X167605519Y-107595015D01*
X167486985Y-107476481D01*
X167393853Y-107337100D01*
X167329703Y-107182228D01*
X167297000Y-107017816D01*
X167297000Y-106850184D01*
X167329703Y-106685772D01*
X167393853Y-106530900D01*
X167486985Y-106391519D01*
X167605519Y-106272985D01*
X167744900Y-106179853D01*
X167899772Y-106115703D01*
X168064184Y-106083000D01*
X168231816Y-106083000D01*
X168396228Y-106115703D01*
X168396228Y-106115703D01*
G37*
G36*
X163396228Y-106115703D02*
G01*
X163551100Y-106179853D01*
X163690481Y-106272985D01*
X163809015Y-106391519D01*
X163902147Y-106530900D01*
X163966297Y-106685772D01*
X163999000Y-106850184D01*
X163999000Y-107017816D01*
X163966297Y-107182228D01*
X163902147Y-107337100D01*
X163809015Y-107476481D01*
X163690481Y-107595015D01*
X163551100Y-107688147D01*
X163396228Y-107752297D01*
X163231816Y-107785000D01*
X163064184Y-107785000D01*
X162899772Y-107752297D01*
X162744900Y-107688147D01*
X162605519Y-107595015D01*
X162486985Y-107476481D01*
X162393853Y-107337100D01*
X162329703Y-107182228D01*
X162297000Y-107017816D01*
X162297000Y-106850184D01*
X162329703Y-106685772D01*
X162393853Y-106530900D01*
X162486985Y-106391519D01*
X162605519Y-106272985D01*
X162744900Y-106179853D01*
X162899772Y-106115703D01*
X163064184Y-106083000D01*
X163231816Y-106083000D01*
X163396228Y-106115703D01*
X163396228Y-106115703D01*
G37*
G36*
X183781000Y-107581000D02*
G01*
X181979000Y-107581000D01*
X181979000Y-105779000D01*
X183781000Y-105779000D01*
X183781000Y-107581000D01*
X183781000Y-107581000D01*
G37*
G36*
X147257674Y-104155465D02*
G01*
X147295367Y-104166899D01*
X147330103Y-104185466D01*
X147360548Y-104210452D01*
X147385534Y-104240897D01*
X147404101Y-104275633D01*
X147415535Y-104313326D01*
X147420000Y-104358661D01*
X147420000Y-105445339D01*
X147415535Y-105490674D01*
X147404101Y-105528367D01*
X147385534Y-105563103D01*
X147360548Y-105593548D01*
X147330103Y-105618534D01*
X147295367Y-105637101D01*
X147257674Y-105648535D01*
X147212339Y-105653000D01*
X146375661Y-105653000D01*
X146330326Y-105648535D01*
X146292633Y-105637101D01*
X146257897Y-105618534D01*
X146227452Y-105593548D01*
X146202466Y-105563103D01*
X146183899Y-105528367D01*
X146172465Y-105490674D01*
X146168000Y-105445339D01*
X146168000Y-104358661D01*
X146172465Y-104313326D01*
X146183899Y-104275633D01*
X146202466Y-104240897D01*
X146227452Y-104210452D01*
X146257897Y-104185466D01*
X146292633Y-104166899D01*
X146330326Y-104155465D01*
X146375661Y-104151000D01*
X147212339Y-104151000D01*
X147257674Y-104155465D01*
X147257674Y-104155465D01*
G37*
G36*
X149307674Y-104155465D02*
G01*
X149345367Y-104166899D01*
X149380103Y-104185466D01*
X149410548Y-104210452D01*
X149435534Y-104240897D01*
X149454101Y-104275633D01*
X149465535Y-104313326D01*
X149470000Y-104358661D01*
X149470000Y-105445339D01*
X149465535Y-105490674D01*
X149454101Y-105528367D01*
X149435534Y-105563103D01*
X149410548Y-105593548D01*
X149380103Y-105618534D01*
X149345367Y-105637101D01*
X149307674Y-105648535D01*
X149262339Y-105653000D01*
X148425661Y-105653000D01*
X148380326Y-105648535D01*
X148342633Y-105637101D01*
X148307897Y-105618534D01*
X148277452Y-105593548D01*
X148252466Y-105563103D01*
X148233899Y-105528367D01*
X148222465Y-105490674D01*
X148218000Y-105445339D01*
X148218000Y-104358661D01*
X148222465Y-104313326D01*
X148233899Y-104275633D01*
X148252466Y-104240897D01*
X148277452Y-104210452D01*
X148307897Y-104185466D01*
X148342633Y-104166899D01*
X148380326Y-104155465D01*
X148425661Y-104151000D01*
X149262339Y-104151000D01*
X149307674Y-104155465D01*
X149307674Y-104155465D01*
G37*
G36*
X153156228Y-102479703D02*
G01*
X153311100Y-102543853D01*
X153450481Y-102636985D01*
X153569015Y-102755519D01*
X153662147Y-102894900D01*
X153726297Y-103049772D01*
X153759000Y-103214184D01*
X153759000Y-103381816D01*
X153726297Y-103546228D01*
X153662147Y-103701100D01*
X153569015Y-103840481D01*
X153450481Y-103959015D01*
X153311100Y-104052147D01*
X153156228Y-104116297D01*
X152991816Y-104149000D01*
X152824184Y-104149000D01*
X152659772Y-104116297D01*
X152504900Y-104052147D01*
X152365519Y-103959015D01*
X152246985Y-103840481D01*
X152153853Y-103701100D01*
X152089703Y-103546228D01*
X152057000Y-103381816D01*
X152057000Y-103214184D01*
X152089703Y-103049772D01*
X152153853Y-102894900D01*
X152246985Y-102755519D01*
X152365519Y-102636985D01*
X152504900Y-102543853D01*
X152659772Y-102479703D01*
X152824184Y-102447000D01*
X152991816Y-102447000D01*
X153156228Y-102479703D01*
X153156228Y-102479703D01*
G37*
G36*
X158236228Y-102479703D02*
G01*
X158391100Y-102543853D01*
X158530481Y-102636985D01*
X158649015Y-102755519D01*
X158742147Y-102894900D01*
X158806297Y-103049772D01*
X158839000Y-103214184D01*
X158839000Y-103381816D01*
X158806297Y-103546228D01*
X158742147Y-103701100D01*
X158649015Y-103840481D01*
X158530481Y-103959015D01*
X158391100Y-104052147D01*
X158236228Y-104116297D01*
X158071816Y-104149000D01*
X157904184Y-104149000D01*
X157739772Y-104116297D01*
X157584900Y-104052147D01*
X157445519Y-103959015D01*
X157326985Y-103840481D01*
X157233853Y-103701100D01*
X157169703Y-103546228D01*
X157137000Y-103381816D01*
X157137000Y-103214184D01*
X157169703Y-103049772D01*
X157233853Y-102894900D01*
X157326985Y-102755519D01*
X157445519Y-102636985D01*
X157584900Y-102543853D01*
X157739772Y-102479703D01*
X157904184Y-102447000D01*
X158071816Y-102447000D01*
X158236228Y-102479703D01*
X158236228Y-102479703D01*
G37*
G36*
X144735674Y-100853465D02*
G01*
X144773367Y-100864899D01*
X144808103Y-100883466D01*
X144838548Y-100908452D01*
X144863534Y-100938897D01*
X144882101Y-100973633D01*
X144893535Y-101011326D01*
X144898000Y-101056661D01*
X144898000Y-102143339D01*
X144893535Y-102188674D01*
X144882101Y-102226367D01*
X144863534Y-102261103D01*
X144838548Y-102291548D01*
X144808103Y-102316534D01*
X144773367Y-102335101D01*
X144735674Y-102346535D01*
X144690339Y-102351000D01*
X143853661Y-102351000D01*
X143808326Y-102346535D01*
X143770633Y-102335101D01*
X143735897Y-102316534D01*
X143705452Y-102291548D01*
X143680466Y-102261103D01*
X143661899Y-102226367D01*
X143650465Y-102188674D01*
X143646000Y-102143339D01*
X143646000Y-101056661D01*
X143650465Y-101011326D01*
X143661899Y-100973633D01*
X143680466Y-100938897D01*
X143705452Y-100908452D01*
X143735897Y-100883466D01*
X143770633Y-100864899D01*
X143808326Y-100853465D01*
X143853661Y-100849000D01*
X144690339Y-100849000D01*
X144735674Y-100853465D01*
X144735674Y-100853465D01*
G37*
G36*
X147257674Y-100853465D02*
G01*
X147295367Y-100864899D01*
X147330103Y-100883466D01*
X147360548Y-100908452D01*
X147385534Y-100938897D01*
X147404101Y-100973633D01*
X147415535Y-101011326D01*
X147420000Y-101056661D01*
X147420000Y-102143339D01*
X147415535Y-102188674D01*
X147404101Y-102226367D01*
X147385534Y-102261103D01*
X147360548Y-102291548D01*
X147330103Y-102316534D01*
X147295367Y-102335101D01*
X147257674Y-102346535D01*
X147212339Y-102351000D01*
X146375661Y-102351000D01*
X146330326Y-102346535D01*
X146292633Y-102335101D01*
X146257897Y-102316534D01*
X146227452Y-102291548D01*
X146202466Y-102261103D01*
X146183899Y-102226367D01*
X146172465Y-102188674D01*
X146168000Y-102143339D01*
X146168000Y-101056661D01*
X146172465Y-101011326D01*
X146183899Y-100973633D01*
X146202466Y-100938897D01*
X146227452Y-100908452D01*
X146257897Y-100883466D01*
X146292633Y-100864899D01*
X146330326Y-100853465D01*
X146375661Y-100849000D01*
X147212339Y-100849000D01*
X147257674Y-100853465D01*
X147257674Y-100853465D01*
G37*
G36*
X142685674Y-100853465D02*
G01*
X142723367Y-100864899D01*
X142758103Y-100883466D01*
X142788548Y-100908452D01*
X142813534Y-100938897D01*
X142832101Y-100973633D01*
X142843535Y-101011326D01*
X142848000Y-101056661D01*
X142848000Y-102143339D01*
X142843535Y-102188674D01*
X142832101Y-102226367D01*
X142813534Y-102261103D01*
X142788548Y-102291548D01*
X142758103Y-102316534D01*
X142723367Y-102335101D01*
X142685674Y-102346535D01*
X142640339Y-102351000D01*
X141803661Y-102351000D01*
X141758326Y-102346535D01*
X141720633Y-102335101D01*
X141685897Y-102316534D01*
X141655452Y-102291548D01*
X141630466Y-102261103D01*
X141611899Y-102226367D01*
X141600465Y-102188674D01*
X141596000Y-102143339D01*
X141596000Y-101056661D01*
X141600465Y-101011326D01*
X141611899Y-100973633D01*
X141630466Y-100938897D01*
X141655452Y-100908452D01*
X141685897Y-100883466D01*
X141720633Y-100864899D01*
X141758326Y-100853465D01*
X141803661Y-100849000D01*
X142640339Y-100849000D01*
X142685674Y-100853465D01*
X142685674Y-100853465D01*
G37*
G36*
X149307674Y-100853465D02*
G01*
X149345367Y-100864899D01*
X149380103Y-100883466D01*
X149410548Y-100908452D01*
X149435534Y-100938897D01*
X149454101Y-100973633D01*
X149465535Y-101011326D01*
X149470000Y-101056661D01*
X149470000Y-102143339D01*
X149465535Y-102188674D01*
X149454101Y-102226367D01*
X149435534Y-102261103D01*
X149410548Y-102291548D01*
X149380103Y-102316534D01*
X149345367Y-102335101D01*
X149307674Y-102346535D01*
X149262339Y-102351000D01*
X148425661Y-102351000D01*
X148380326Y-102346535D01*
X148342633Y-102335101D01*
X148307897Y-102316534D01*
X148277452Y-102291548D01*
X148252466Y-102261103D01*
X148233899Y-102226367D01*
X148222465Y-102188674D01*
X148218000Y-102143339D01*
X148218000Y-101056661D01*
X148222465Y-101011326D01*
X148233899Y-100973633D01*
X148252466Y-100938897D01*
X148277452Y-100908452D01*
X148307897Y-100883466D01*
X148342633Y-100864899D01*
X148380326Y-100853465D01*
X148425661Y-100849000D01*
X149262339Y-100849000D01*
X149307674Y-100853465D01*
X149307674Y-100853465D01*
G37*
G36*
X169498674Y-99463465D02*
G01*
X169536367Y-99474899D01*
X169571103Y-99493466D01*
X169601548Y-99518452D01*
X169626534Y-99548897D01*
X169645101Y-99583633D01*
X169656535Y-99621326D01*
X169661000Y-99666661D01*
X169661000Y-100503339D01*
X169656535Y-100548674D01*
X169645101Y-100586367D01*
X169626534Y-100621103D01*
X169601548Y-100651548D01*
X169571103Y-100676534D01*
X169536367Y-100695101D01*
X169498674Y-100706535D01*
X169453339Y-100711000D01*
X168366661Y-100711000D01*
X168321326Y-100706535D01*
X168283633Y-100695101D01*
X168248897Y-100676534D01*
X168218452Y-100651548D01*
X168193466Y-100621103D01*
X168174899Y-100586367D01*
X168163465Y-100548674D01*
X168159000Y-100503339D01*
X168159000Y-99666661D01*
X168163465Y-99621326D01*
X168174899Y-99583633D01*
X168193466Y-99548897D01*
X168218452Y-99518452D01*
X168248897Y-99493466D01*
X168283633Y-99474899D01*
X168321326Y-99463465D01*
X168366661Y-99459000D01*
X169453339Y-99459000D01*
X169498674Y-99463465D01*
X169498674Y-99463465D01*
G37*
G36*
X166196674Y-99454465D02*
G01*
X166234367Y-99465899D01*
X166269103Y-99484466D01*
X166299548Y-99509452D01*
X166324534Y-99539897D01*
X166343101Y-99574633D01*
X166354535Y-99612326D01*
X166359000Y-99657661D01*
X166359000Y-100494339D01*
X166354535Y-100539674D01*
X166343101Y-100577367D01*
X166324534Y-100612103D01*
X166299548Y-100642548D01*
X166269103Y-100667534D01*
X166234367Y-100686101D01*
X166196674Y-100697535D01*
X166151339Y-100702000D01*
X165064661Y-100702000D01*
X165019326Y-100697535D01*
X164981633Y-100686101D01*
X164946897Y-100667534D01*
X164916452Y-100642548D01*
X164891466Y-100612103D01*
X164872899Y-100577367D01*
X164861465Y-100539674D01*
X164857000Y-100494339D01*
X164857000Y-99657661D01*
X164861465Y-99612326D01*
X164872899Y-99574633D01*
X164891466Y-99539897D01*
X164916452Y-99509452D01*
X164946897Y-99484466D01*
X164981633Y-99465899D01*
X165019326Y-99454465D01*
X165064661Y-99450000D01*
X166151339Y-99450000D01*
X166196674Y-99454465D01*
X166196674Y-99454465D01*
G37*
G36*
X158236228Y-97479703D02*
G01*
X158391100Y-97543853D01*
X158530481Y-97636985D01*
X158649015Y-97755519D01*
X158742147Y-97894900D01*
X158806297Y-98049772D01*
X158839000Y-98214184D01*
X158839000Y-98381816D01*
X158806297Y-98546228D01*
X158742147Y-98701100D01*
X158649015Y-98840481D01*
X158530481Y-98959015D01*
X158391100Y-99052147D01*
X158236228Y-99116297D01*
X158071816Y-99149000D01*
X157904184Y-99149000D01*
X157739772Y-99116297D01*
X157584900Y-99052147D01*
X157445519Y-98959015D01*
X157326985Y-98840481D01*
X157233853Y-98701100D01*
X157169703Y-98546228D01*
X157137000Y-98381816D01*
X157137000Y-98214184D01*
X157169703Y-98049772D01*
X157233853Y-97894900D01*
X157326985Y-97755519D01*
X157445519Y-97636985D01*
X157584900Y-97543853D01*
X157739772Y-97479703D01*
X157904184Y-97447000D01*
X158071816Y-97447000D01*
X158236228Y-97479703D01*
X158236228Y-97479703D01*
G37*
G36*
X153156228Y-97479703D02*
G01*
X153311100Y-97543853D01*
X153450481Y-97636985D01*
X153569015Y-97755519D01*
X153662147Y-97894900D01*
X153726297Y-98049772D01*
X153759000Y-98214184D01*
X153759000Y-98381816D01*
X153726297Y-98546228D01*
X153662147Y-98701100D01*
X153569015Y-98840481D01*
X153450481Y-98959015D01*
X153311100Y-99052147D01*
X153156228Y-99116297D01*
X152991816Y-99149000D01*
X152824184Y-99149000D01*
X152659772Y-99116297D01*
X152504900Y-99052147D01*
X152365519Y-98959015D01*
X152246985Y-98840481D01*
X152153853Y-98701100D01*
X152089703Y-98546228D01*
X152057000Y-98381816D01*
X152057000Y-98214184D01*
X152089703Y-98049772D01*
X152153853Y-97894900D01*
X152246985Y-97755519D01*
X152365519Y-97636985D01*
X152504900Y-97543853D01*
X152659772Y-97479703D01*
X152824184Y-97447000D01*
X152991816Y-97447000D01*
X153156228Y-97479703D01*
X153156228Y-97479703D01*
G37*
G36*
X149307674Y-97551465D02*
G01*
X149345367Y-97562899D01*
X149380103Y-97581466D01*
X149410548Y-97606452D01*
X149435534Y-97636897D01*
X149454101Y-97671633D01*
X149465535Y-97709326D01*
X149470000Y-97754661D01*
X149470000Y-98841339D01*
X149465535Y-98886674D01*
X149454101Y-98924367D01*
X149435534Y-98959103D01*
X149410548Y-98989548D01*
X149380103Y-99014534D01*
X149345367Y-99033101D01*
X149307674Y-99044535D01*
X149262339Y-99049000D01*
X148425661Y-99049000D01*
X148380326Y-99044535D01*
X148342633Y-99033101D01*
X148307897Y-99014534D01*
X148277452Y-98989548D01*
X148252466Y-98959103D01*
X148233899Y-98924367D01*
X148222465Y-98886674D01*
X148218000Y-98841339D01*
X148218000Y-97754661D01*
X148222465Y-97709326D01*
X148233899Y-97671633D01*
X148252466Y-97636897D01*
X148277452Y-97606452D01*
X148307897Y-97581466D01*
X148342633Y-97562899D01*
X148380326Y-97551465D01*
X148425661Y-97547000D01*
X149262339Y-97547000D01*
X149307674Y-97551465D01*
X149307674Y-97551465D01*
G37*
G36*
X147257674Y-97551465D02*
G01*
X147295367Y-97562899D01*
X147330103Y-97581466D01*
X147360548Y-97606452D01*
X147385534Y-97636897D01*
X147404101Y-97671633D01*
X147415535Y-97709326D01*
X147420000Y-97754661D01*
X147420000Y-98841339D01*
X147415535Y-98886674D01*
X147404101Y-98924367D01*
X147385534Y-98959103D01*
X147360548Y-98989548D01*
X147330103Y-99014534D01*
X147295367Y-99033101D01*
X147257674Y-99044535D01*
X147212339Y-99049000D01*
X146375661Y-99049000D01*
X146330326Y-99044535D01*
X146292633Y-99033101D01*
X146257897Y-99014534D01*
X146227452Y-98989548D01*
X146202466Y-98959103D01*
X146183899Y-98924367D01*
X146172465Y-98886674D01*
X146168000Y-98841339D01*
X146168000Y-97754661D01*
X146172465Y-97709326D01*
X146183899Y-97671633D01*
X146202466Y-97636897D01*
X146227452Y-97606452D01*
X146257897Y-97581466D01*
X146292633Y-97562899D01*
X146330326Y-97551465D01*
X146375661Y-97547000D01*
X147212339Y-97547000D01*
X147257674Y-97551465D01*
X147257674Y-97551465D01*
G37*
G36*
X144735674Y-97551465D02*
G01*
X144773367Y-97562899D01*
X144808103Y-97581466D01*
X144838548Y-97606452D01*
X144863534Y-97636897D01*
X144882101Y-97671633D01*
X144893535Y-97709326D01*
X144898000Y-97754661D01*
X144898000Y-98841339D01*
X144893535Y-98886674D01*
X144882101Y-98924367D01*
X144863534Y-98959103D01*
X144838548Y-98989548D01*
X144808103Y-99014534D01*
X144773367Y-99033101D01*
X144735674Y-99044535D01*
X144690339Y-99049000D01*
X143853661Y-99049000D01*
X143808326Y-99044535D01*
X143770633Y-99033101D01*
X143735897Y-99014534D01*
X143705452Y-98989548D01*
X143680466Y-98959103D01*
X143661899Y-98924367D01*
X143650465Y-98886674D01*
X143646000Y-98841339D01*
X143646000Y-97754661D01*
X143650465Y-97709326D01*
X143661899Y-97671633D01*
X143680466Y-97636897D01*
X143705452Y-97606452D01*
X143735897Y-97581466D01*
X143770633Y-97562899D01*
X143808326Y-97551465D01*
X143853661Y-97547000D01*
X144690339Y-97547000D01*
X144735674Y-97551465D01*
X144735674Y-97551465D01*
G37*
G36*
X142685674Y-97551465D02*
G01*
X142723367Y-97562899D01*
X142758103Y-97581466D01*
X142788548Y-97606452D01*
X142813534Y-97636897D01*
X142832101Y-97671633D01*
X142843535Y-97709326D01*
X142848000Y-97754661D01*
X142848000Y-98841339D01*
X142843535Y-98886674D01*
X142832101Y-98924367D01*
X142813534Y-98959103D01*
X142788548Y-98989548D01*
X142758103Y-99014534D01*
X142723367Y-99033101D01*
X142685674Y-99044535D01*
X142640339Y-99049000D01*
X141803661Y-99049000D01*
X141758326Y-99044535D01*
X141720633Y-99033101D01*
X141685897Y-99014534D01*
X141655452Y-98989548D01*
X141630466Y-98959103D01*
X141611899Y-98924367D01*
X141600465Y-98886674D01*
X141596000Y-98841339D01*
X141596000Y-97754661D01*
X141600465Y-97709326D01*
X141611899Y-97671633D01*
X141630466Y-97636897D01*
X141655452Y-97606452D01*
X141685897Y-97581466D01*
X141720633Y-97562899D01*
X141758326Y-97551465D01*
X141803661Y-97547000D01*
X142640339Y-97547000D01*
X142685674Y-97551465D01*
X142685674Y-97551465D01*
G37*
G36*
X169498674Y-97413465D02*
G01*
X169536367Y-97424899D01*
X169571103Y-97443466D01*
X169601548Y-97468452D01*
X169626534Y-97498897D01*
X169645101Y-97533633D01*
X169656535Y-97571326D01*
X169661000Y-97616661D01*
X169661000Y-98453339D01*
X169656535Y-98498674D01*
X169645101Y-98536367D01*
X169626534Y-98571103D01*
X169601548Y-98601548D01*
X169571103Y-98626534D01*
X169536367Y-98645101D01*
X169498674Y-98656535D01*
X169453339Y-98661000D01*
X168366661Y-98661000D01*
X168321326Y-98656535D01*
X168283633Y-98645101D01*
X168248897Y-98626534D01*
X168218452Y-98601548D01*
X168193466Y-98571103D01*
X168174899Y-98536367D01*
X168163465Y-98498674D01*
X168159000Y-98453339D01*
X168159000Y-97616661D01*
X168163465Y-97571326D01*
X168174899Y-97533633D01*
X168193466Y-97498897D01*
X168218452Y-97468452D01*
X168248897Y-97443466D01*
X168283633Y-97424899D01*
X168321326Y-97413465D01*
X168366661Y-97409000D01*
X169453339Y-97409000D01*
X169498674Y-97413465D01*
X169498674Y-97413465D01*
G37*
G36*
X166196674Y-97404465D02*
G01*
X166234367Y-97415899D01*
X166269103Y-97434466D01*
X166299548Y-97459452D01*
X166324534Y-97489897D01*
X166343101Y-97524633D01*
X166354535Y-97562326D01*
X166359000Y-97607661D01*
X166359000Y-98444339D01*
X166354535Y-98489674D01*
X166343101Y-98527367D01*
X166324534Y-98562103D01*
X166299548Y-98592548D01*
X166269103Y-98617534D01*
X166234367Y-98636101D01*
X166196674Y-98647535D01*
X166151339Y-98652000D01*
X165064661Y-98652000D01*
X165019326Y-98647535D01*
X164981633Y-98636101D01*
X164946897Y-98617534D01*
X164916452Y-98592548D01*
X164891466Y-98562103D01*
X164872899Y-98527367D01*
X164861465Y-98489674D01*
X164857000Y-98444339D01*
X164857000Y-97607661D01*
X164861465Y-97562326D01*
X164872899Y-97524633D01*
X164891466Y-97489897D01*
X164916452Y-97459452D01*
X164946897Y-97434466D01*
X164981633Y-97415899D01*
X165019326Y-97404465D01*
X165064661Y-97400000D01*
X166151339Y-97400000D01*
X166196674Y-97404465D01*
X166196674Y-97404465D01*
G37*
G36*
X165774823Y-94919313D02*
G01*
X165935242Y-94967976D01*
X166042250Y-95025173D01*
X166083078Y-95046996D01*
X166212659Y-95153341D01*
X166319004Y-95282922D01*
X166319005Y-95282924D01*
X166398024Y-95430758D01*
X166446687Y-95591177D01*
X166463117Y-95758000D01*
X166446687Y-95924823D01*
X166398024Y-96085242D01*
X166339064Y-96195548D01*
X166319004Y-96233078D01*
X166212659Y-96362659D01*
X166083078Y-96469004D01*
X166083076Y-96469005D01*
X165935242Y-96548024D01*
X165774823Y-96596687D01*
X165649804Y-96609000D01*
X165566196Y-96609000D01*
X165441177Y-96596687D01*
X165280758Y-96548024D01*
X165132924Y-96469005D01*
X165132922Y-96469004D01*
X165003341Y-96362659D01*
X164896996Y-96233078D01*
X164876936Y-96195548D01*
X164817976Y-96085242D01*
X164769313Y-95924823D01*
X164752883Y-95758000D01*
X164769313Y-95591177D01*
X164817976Y-95430758D01*
X164896995Y-95282924D01*
X164896996Y-95282922D01*
X165003341Y-95153341D01*
X165132922Y-95046996D01*
X165173750Y-95025173D01*
X165280758Y-94967976D01*
X165441177Y-94919313D01*
X165566196Y-94907000D01*
X165649804Y-94907000D01*
X165774823Y-94919313D01*
X165774823Y-94919313D01*
G37*
G36*
X150534823Y-94919313D02*
G01*
X150695242Y-94967976D01*
X150802250Y-95025173D01*
X150843078Y-95046996D01*
X150972659Y-95153341D01*
X151079004Y-95282922D01*
X151079005Y-95282924D01*
X151158024Y-95430758D01*
X151206687Y-95591177D01*
X151223117Y-95758000D01*
X151206687Y-95924823D01*
X151158024Y-96085242D01*
X151099064Y-96195548D01*
X151079004Y-96233078D01*
X150972659Y-96362659D01*
X150843078Y-96469004D01*
X150843076Y-96469005D01*
X150695242Y-96548024D01*
X150534823Y-96596687D01*
X150409804Y-96609000D01*
X150326196Y-96609000D01*
X150201177Y-96596687D01*
X150040758Y-96548024D01*
X149892924Y-96469005D01*
X149892922Y-96469004D01*
X149763341Y-96362659D01*
X149656996Y-96233078D01*
X149636936Y-96195548D01*
X149577976Y-96085242D01*
X149529313Y-95924823D01*
X149512883Y-95758000D01*
X149529313Y-95591177D01*
X149577976Y-95430758D01*
X149656995Y-95282924D01*
X149656996Y-95282922D01*
X149763341Y-95153341D01*
X149892922Y-95046996D01*
X149933750Y-95025173D01*
X150040758Y-94967976D01*
X150201177Y-94919313D01*
X150326196Y-94907000D01*
X150409804Y-94907000D01*
X150534823Y-94919313D01*
X150534823Y-94919313D01*
G37*
G36*
X148679000Y-96609000D02*
G01*
X146977000Y-96609000D01*
X146977000Y-94907000D01*
X148679000Y-94907000D01*
X148679000Y-96609000D01*
X148679000Y-96609000D01*
G37*
G36*
X155614823Y-94919313D02*
G01*
X155775242Y-94967976D01*
X155882250Y-95025173D01*
X155923078Y-95046996D01*
X156052659Y-95153341D01*
X156159004Y-95282922D01*
X156159005Y-95282924D01*
X156238024Y-95430758D01*
X156286687Y-95591177D01*
X156303117Y-95758000D01*
X156286687Y-95924823D01*
X156238024Y-96085242D01*
X156179064Y-96195548D01*
X156159004Y-96233078D01*
X156052659Y-96362659D01*
X155923078Y-96469004D01*
X155923076Y-96469005D01*
X155775242Y-96548024D01*
X155614823Y-96596687D01*
X155489804Y-96609000D01*
X155406196Y-96609000D01*
X155281177Y-96596687D01*
X155120758Y-96548024D01*
X154972924Y-96469005D01*
X154972922Y-96469004D01*
X154843341Y-96362659D01*
X154736996Y-96233078D01*
X154716936Y-96195548D01*
X154657976Y-96085242D01*
X154609313Y-95924823D01*
X154592883Y-95758000D01*
X154609313Y-95591177D01*
X154657976Y-95430758D01*
X154736995Y-95282924D01*
X154736996Y-95282922D01*
X154843341Y-95153341D01*
X154972922Y-95046996D01*
X155013750Y-95025173D01*
X155120758Y-94967976D01*
X155281177Y-94919313D01*
X155406196Y-94907000D01*
X155489804Y-94907000D01*
X155614823Y-94919313D01*
X155614823Y-94919313D01*
G37*
G36*
X168314823Y-94919313D02*
G01*
X168475242Y-94967976D01*
X168582250Y-95025173D01*
X168623078Y-95046996D01*
X168752659Y-95153341D01*
X168859004Y-95282922D01*
X168859005Y-95282924D01*
X168938024Y-95430758D01*
X168986687Y-95591177D01*
X169003117Y-95758000D01*
X168986687Y-95924823D01*
X168938024Y-96085242D01*
X168879064Y-96195548D01*
X168859004Y-96233078D01*
X168752659Y-96362659D01*
X168623078Y-96469004D01*
X168623076Y-96469005D01*
X168475242Y-96548024D01*
X168314823Y-96596687D01*
X168189804Y-96609000D01*
X168106196Y-96609000D01*
X167981177Y-96596687D01*
X167820758Y-96548024D01*
X167672924Y-96469005D01*
X167672922Y-96469004D01*
X167543341Y-96362659D01*
X167436996Y-96233078D01*
X167416936Y-96195548D01*
X167357976Y-96085242D01*
X167309313Y-95924823D01*
X167292883Y-95758000D01*
X167309313Y-95591177D01*
X167357976Y-95430758D01*
X167436995Y-95282924D01*
X167436996Y-95282922D01*
X167543341Y-95153341D01*
X167672922Y-95046996D01*
X167713750Y-95025173D01*
X167820758Y-94967976D01*
X167981177Y-94919313D01*
X168106196Y-94907000D01*
X168189804Y-94907000D01*
X168314823Y-94919313D01*
X168314823Y-94919313D01*
G37*
G36*
X158154823Y-94919313D02*
G01*
X158315242Y-94967976D01*
X158422250Y-95025173D01*
X158463078Y-95046996D01*
X158592659Y-95153341D01*
X158699004Y-95282922D01*
X158699005Y-95282924D01*
X158778024Y-95430758D01*
X158826687Y-95591177D01*
X158843117Y-95758000D01*
X158826687Y-95924823D01*
X158778024Y-96085242D01*
X158719064Y-96195548D01*
X158699004Y-96233078D01*
X158592659Y-96362659D01*
X158463078Y-96469004D01*
X158463076Y-96469005D01*
X158315242Y-96548024D01*
X158154823Y-96596687D01*
X158029804Y-96609000D01*
X157946196Y-96609000D01*
X157821177Y-96596687D01*
X157660758Y-96548024D01*
X157512924Y-96469005D01*
X157512922Y-96469004D01*
X157383341Y-96362659D01*
X157276996Y-96233078D01*
X157256936Y-96195548D01*
X157197976Y-96085242D01*
X157149313Y-95924823D01*
X157132883Y-95758000D01*
X157149313Y-95591177D01*
X157197976Y-95430758D01*
X157276995Y-95282924D01*
X157276996Y-95282922D01*
X157383341Y-95153341D01*
X157512922Y-95046996D01*
X157553750Y-95025173D01*
X157660758Y-94967976D01*
X157821177Y-94919313D01*
X157946196Y-94907000D01*
X158029804Y-94907000D01*
X158154823Y-94919313D01*
X158154823Y-94919313D01*
G37*
G36*
X163234823Y-94919313D02*
G01*
X163395242Y-94967976D01*
X163502250Y-95025173D01*
X163543078Y-95046996D01*
X163672659Y-95153341D01*
X163779004Y-95282922D01*
X163779005Y-95282924D01*
X163858024Y-95430758D01*
X163906687Y-95591177D01*
X163923117Y-95758000D01*
X163906687Y-95924823D01*
X163858024Y-96085242D01*
X163799064Y-96195548D01*
X163779004Y-96233078D01*
X163672659Y-96362659D01*
X163543078Y-96469004D01*
X163543076Y-96469005D01*
X163395242Y-96548024D01*
X163234823Y-96596687D01*
X163109804Y-96609000D01*
X163026196Y-96609000D01*
X162901177Y-96596687D01*
X162740758Y-96548024D01*
X162592924Y-96469005D01*
X162592922Y-96469004D01*
X162463341Y-96362659D01*
X162356996Y-96233078D01*
X162336936Y-96195548D01*
X162277976Y-96085242D01*
X162229313Y-95924823D01*
X162212883Y-95758000D01*
X162229313Y-95591177D01*
X162277976Y-95430758D01*
X162356995Y-95282924D01*
X162356996Y-95282922D01*
X162463341Y-95153341D01*
X162592922Y-95046996D01*
X162633750Y-95025173D01*
X162740758Y-94967976D01*
X162901177Y-94919313D01*
X163026196Y-94907000D01*
X163109804Y-94907000D01*
X163234823Y-94919313D01*
X163234823Y-94919313D01*
G37*
G36*
X160694823Y-94919313D02*
G01*
X160855242Y-94967976D01*
X160962250Y-95025173D01*
X161003078Y-95046996D01*
X161132659Y-95153341D01*
X161239004Y-95282922D01*
X161239005Y-95282924D01*
X161318024Y-95430758D01*
X161366687Y-95591177D01*
X161383117Y-95758000D01*
X161366687Y-95924823D01*
X161318024Y-96085242D01*
X161259064Y-96195548D01*
X161239004Y-96233078D01*
X161132659Y-96362659D01*
X161003078Y-96469004D01*
X161003076Y-96469005D01*
X160855242Y-96548024D01*
X160694823Y-96596687D01*
X160569804Y-96609000D01*
X160486196Y-96609000D01*
X160361177Y-96596687D01*
X160200758Y-96548024D01*
X160052924Y-96469005D01*
X160052922Y-96469004D01*
X159923341Y-96362659D01*
X159816996Y-96233078D01*
X159796936Y-96195548D01*
X159737976Y-96085242D01*
X159689313Y-95924823D01*
X159672883Y-95758000D01*
X159689313Y-95591177D01*
X159737976Y-95430758D01*
X159816995Y-95282924D01*
X159816996Y-95282922D01*
X159923341Y-95153341D01*
X160052922Y-95046996D01*
X160093750Y-95025173D01*
X160200758Y-94967976D01*
X160361177Y-94919313D01*
X160486196Y-94907000D01*
X160569804Y-94907000D01*
X160694823Y-94919313D01*
X160694823Y-94919313D01*
G37*
G36*
X153074823Y-94919313D02*
G01*
X153235242Y-94967976D01*
X153342250Y-95025173D01*
X153383078Y-95046996D01*
X153512659Y-95153341D01*
X153619004Y-95282922D01*
X153619005Y-95282924D01*
X153698024Y-95430758D01*
X153746687Y-95591177D01*
X153763117Y-95758000D01*
X153746687Y-95924823D01*
X153698024Y-96085242D01*
X153639064Y-96195548D01*
X153619004Y-96233078D01*
X153512659Y-96362659D01*
X153383078Y-96469004D01*
X153383076Y-96469005D01*
X153235242Y-96548024D01*
X153074823Y-96596687D01*
X152949804Y-96609000D01*
X152866196Y-96609000D01*
X152741177Y-96596687D01*
X152580758Y-96548024D01*
X152432924Y-96469005D01*
X152432922Y-96469004D01*
X152303341Y-96362659D01*
X152196996Y-96233078D01*
X152176936Y-96195548D01*
X152117976Y-96085242D01*
X152069313Y-95924823D01*
X152052883Y-95758000D01*
X152069313Y-95591177D01*
X152117976Y-95430758D01*
X152196995Y-95282924D01*
X152196996Y-95282922D01*
X152303341Y-95153341D01*
X152432922Y-95046996D01*
X152473750Y-95025173D01*
X152580758Y-94967976D01*
X152741177Y-94919313D01*
X152866196Y-94907000D01*
X152949804Y-94907000D01*
X153074823Y-94919313D01*
X153074823Y-94919313D01*
G37*
G36*
X171895674Y-94757465D02*
G01*
X171933367Y-94768899D01*
X171968103Y-94787466D01*
X171998548Y-94812452D01*
X172023534Y-94842897D01*
X172042101Y-94877633D01*
X172053535Y-94915326D01*
X172058000Y-94960661D01*
X172058000Y-96047339D01*
X172053535Y-96092674D01*
X172042101Y-96130367D01*
X172023534Y-96165103D01*
X171998548Y-96195548D01*
X171968103Y-96220534D01*
X171933367Y-96239101D01*
X171895674Y-96250535D01*
X171850339Y-96255000D01*
X171013661Y-96255000D01*
X170968326Y-96250535D01*
X170930633Y-96239101D01*
X170895897Y-96220534D01*
X170865452Y-96195548D01*
X170840466Y-96165103D01*
X170821899Y-96130367D01*
X170810465Y-96092674D01*
X170806000Y-96047339D01*
X170806000Y-94960661D01*
X170810465Y-94915326D01*
X170821899Y-94877633D01*
X170840466Y-94842897D01*
X170865452Y-94812452D01*
X170895897Y-94787466D01*
X170930633Y-94768899D01*
X170968326Y-94757465D01*
X171013661Y-94753000D01*
X171850339Y-94753000D01*
X171895674Y-94757465D01*
X171895674Y-94757465D01*
G37*
G36*
X173945674Y-94757465D02*
G01*
X173983367Y-94768899D01*
X174018103Y-94787466D01*
X174048548Y-94812452D01*
X174073534Y-94842897D01*
X174092101Y-94877633D01*
X174103535Y-94915326D01*
X174108000Y-94960661D01*
X174108000Y-96047339D01*
X174103535Y-96092674D01*
X174092101Y-96130367D01*
X174073534Y-96165103D01*
X174048548Y-96195548D01*
X174018103Y-96220534D01*
X173983367Y-96239101D01*
X173945674Y-96250535D01*
X173900339Y-96255000D01*
X173063661Y-96255000D01*
X173018326Y-96250535D01*
X172980633Y-96239101D01*
X172945897Y-96220534D01*
X172915452Y-96195548D01*
X172890466Y-96165103D01*
X172871899Y-96130367D01*
X172860465Y-96092674D01*
X172856000Y-96047339D01*
X172856000Y-94960661D01*
X172860465Y-94915326D01*
X172871899Y-94877633D01*
X172890466Y-94842897D01*
X172915452Y-94812452D01*
X172945897Y-94787466D01*
X172980633Y-94768899D01*
X173018326Y-94757465D01*
X173063661Y-94753000D01*
X173900339Y-94753000D01*
X173945674Y-94757465D01*
X173945674Y-94757465D01*
G37*
G36*
X171913674Y-91455465D02*
G01*
X171951367Y-91466899D01*
X171986103Y-91485466D01*
X172016548Y-91510452D01*
X172041534Y-91540897D01*
X172060101Y-91575633D01*
X172071535Y-91613326D01*
X172076000Y-91658661D01*
X172076000Y-92745339D01*
X172071535Y-92790674D01*
X172060101Y-92828367D01*
X172041534Y-92863103D01*
X172016548Y-92893548D01*
X171986103Y-92918534D01*
X171951367Y-92937101D01*
X171913674Y-92948535D01*
X171868339Y-92953000D01*
X171031661Y-92953000D01*
X170986326Y-92948535D01*
X170948633Y-92937101D01*
X170913897Y-92918534D01*
X170883452Y-92893548D01*
X170858466Y-92863103D01*
X170839899Y-92828367D01*
X170828465Y-92790674D01*
X170824000Y-92745339D01*
X170824000Y-91658661D01*
X170828465Y-91613326D01*
X170839899Y-91575633D01*
X170858466Y-91540897D01*
X170883452Y-91510452D01*
X170913897Y-91485466D01*
X170948633Y-91466899D01*
X170986326Y-91455465D01*
X171031661Y-91451000D01*
X171868339Y-91451000D01*
X171913674Y-91455465D01*
X171913674Y-91455465D01*
G37*
G36*
X173963674Y-91455465D02*
G01*
X174001367Y-91466899D01*
X174036103Y-91485466D01*
X174066548Y-91510452D01*
X174091534Y-91540897D01*
X174110101Y-91575633D01*
X174121535Y-91613326D01*
X174126000Y-91658661D01*
X174126000Y-92745339D01*
X174121535Y-92790674D01*
X174110101Y-92828367D01*
X174091534Y-92863103D01*
X174066548Y-92893548D01*
X174036103Y-92918534D01*
X174001367Y-92937101D01*
X173963674Y-92948535D01*
X173918339Y-92953000D01*
X173081661Y-92953000D01*
X173036326Y-92948535D01*
X172998633Y-92937101D01*
X172963897Y-92918534D01*
X172933452Y-92893548D01*
X172908466Y-92863103D01*
X172889899Y-92828367D01*
X172878465Y-92790674D01*
X172874000Y-92745339D01*
X172874000Y-91658661D01*
X172878465Y-91613326D01*
X172889899Y-91575633D01*
X172908466Y-91540897D01*
X172933452Y-91510452D01*
X172963897Y-91485466D01*
X172998633Y-91466899D01*
X173036326Y-91455465D01*
X173081661Y-91451000D01*
X173918339Y-91451000D01*
X173963674Y-91455465D01*
X173963674Y-91455465D01*
G37*
G36*
X177968228Y-87319703D02*
G01*
X178123100Y-87383853D01*
X178262481Y-87476985D01*
X178381015Y-87595519D01*
X178474147Y-87734900D01*
X178538297Y-87889772D01*
X178571000Y-88054184D01*
X178571000Y-88221816D01*
X178538297Y-88386228D01*
X178474147Y-88541100D01*
X178381015Y-88680481D01*
X178262481Y-88799015D01*
X178123100Y-88892147D01*
X177968228Y-88956297D01*
X177803816Y-88989000D01*
X177636184Y-88989000D01*
X177471772Y-88956297D01*
X177316900Y-88892147D01*
X177177519Y-88799015D01*
X177058985Y-88680481D01*
X176965853Y-88541100D01*
X176901703Y-88386228D01*
X176869000Y-88221816D01*
X176869000Y-88054184D01*
X176901703Y-87889772D01*
X176965853Y-87734900D01*
X177058985Y-87595519D01*
X177177519Y-87476985D01*
X177316900Y-87383853D01*
X177471772Y-87319703D01*
X177636184Y-87287000D01*
X177803816Y-87287000D01*
X177968228Y-87319703D01*
X177968228Y-87319703D01*
G37*
G36*
X150534823Y-87299313D02*
G01*
X150695242Y-87347976D01*
X150762361Y-87383852D01*
X150843078Y-87426996D01*
X150972659Y-87533341D01*
X151079004Y-87662922D01*
X151079005Y-87662924D01*
X151158024Y-87810758D01*
X151206687Y-87971177D01*
X151223117Y-88138000D01*
X151206687Y-88304823D01*
X151158024Y-88465242D01*
X151117477Y-88541100D01*
X151079004Y-88613078D01*
X150972659Y-88742659D01*
X150843078Y-88849004D01*
X150843076Y-88849005D01*
X150695242Y-88928024D01*
X150534823Y-88976687D01*
X150409804Y-88989000D01*
X150326196Y-88989000D01*
X150201177Y-88976687D01*
X150040758Y-88928024D01*
X149892924Y-88849005D01*
X149892922Y-88849004D01*
X149763341Y-88742659D01*
X149656996Y-88613078D01*
X149618523Y-88541100D01*
X149577976Y-88465242D01*
X149529313Y-88304823D01*
X149512883Y-88138000D01*
X149529313Y-87971177D01*
X149577976Y-87810758D01*
X149656995Y-87662924D01*
X149656996Y-87662922D01*
X149763341Y-87533341D01*
X149892922Y-87426996D01*
X149973639Y-87383852D01*
X150040758Y-87347976D01*
X150201177Y-87299313D01*
X150326196Y-87287000D01*
X150409804Y-87287000D01*
X150534823Y-87299313D01*
X150534823Y-87299313D01*
G37*
G36*
X147994823Y-87299313D02*
G01*
X148155242Y-87347976D01*
X148222361Y-87383852D01*
X148303078Y-87426996D01*
X148432659Y-87533341D01*
X148539004Y-87662922D01*
X148539005Y-87662924D01*
X148618024Y-87810758D01*
X148666687Y-87971177D01*
X148683117Y-88138000D01*
X148666687Y-88304823D01*
X148618024Y-88465242D01*
X148577477Y-88541100D01*
X148539004Y-88613078D01*
X148432659Y-88742659D01*
X148303078Y-88849004D01*
X148303076Y-88849005D01*
X148155242Y-88928024D01*
X147994823Y-88976687D01*
X147869804Y-88989000D01*
X147786196Y-88989000D01*
X147661177Y-88976687D01*
X147500758Y-88928024D01*
X147352924Y-88849005D01*
X147352922Y-88849004D01*
X147223341Y-88742659D01*
X147116996Y-88613078D01*
X147078523Y-88541100D01*
X147037976Y-88465242D01*
X146989313Y-88304823D01*
X146972883Y-88138000D01*
X146989313Y-87971177D01*
X147037976Y-87810758D01*
X147116995Y-87662924D01*
X147116996Y-87662922D01*
X147223341Y-87533341D01*
X147352922Y-87426996D01*
X147433639Y-87383852D01*
X147500758Y-87347976D01*
X147661177Y-87299313D01*
X147786196Y-87287000D01*
X147869804Y-87287000D01*
X147994823Y-87299313D01*
X147994823Y-87299313D01*
G37*
G36*
X160694823Y-87299313D02*
G01*
X160855242Y-87347976D01*
X160922361Y-87383852D01*
X161003078Y-87426996D01*
X161132659Y-87533341D01*
X161239004Y-87662922D01*
X161239005Y-87662924D01*
X161318024Y-87810758D01*
X161366687Y-87971177D01*
X161383117Y-88138000D01*
X161366687Y-88304823D01*
X161318024Y-88465242D01*
X161277477Y-88541100D01*
X161239004Y-88613078D01*
X161132659Y-88742659D01*
X161003078Y-88849004D01*
X161003076Y-88849005D01*
X160855242Y-88928024D01*
X160694823Y-88976687D01*
X160569804Y-88989000D01*
X160486196Y-88989000D01*
X160361177Y-88976687D01*
X160200758Y-88928024D01*
X160052924Y-88849005D01*
X160052922Y-88849004D01*
X159923341Y-88742659D01*
X159816996Y-88613078D01*
X159778523Y-88541100D01*
X159737976Y-88465242D01*
X159689313Y-88304823D01*
X159672883Y-88138000D01*
X159689313Y-87971177D01*
X159737976Y-87810758D01*
X159816995Y-87662924D01*
X159816996Y-87662922D01*
X159923341Y-87533341D01*
X160052922Y-87426996D01*
X160133639Y-87383852D01*
X160200758Y-87347976D01*
X160361177Y-87299313D01*
X160486196Y-87287000D01*
X160569804Y-87287000D01*
X160694823Y-87299313D01*
X160694823Y-87299313D01*
G37*
G36*
X153074823Y-87299313D02*
G01*
X153235242Y-87347976D01*
X153302361Y-87383852D01*
X153383078Y-87426996D01*
X153512659Y-87533341D01*
X153619004Y-87662922D01*
X153619005Y-87662924D01*
X153698024Y-87810758D01*
X153746687Y-87971177D01*
X153763117Y-88138000D01*
X153746687Y-88304823D01*
X153698024Y-88465242D01*
X153657477Y-88541100D01*
X153619004Y-88613078D01*
X153512659Y-88742659D01*
X153383078Y-88849004D01*
X153383076Y-88849005D01*
X153235242Y-88928024D01*
X153074823Y-88976687D01*
X152949804Y-88989000D01*
X152866196Y-88989000D01*
X152741177Y-88976687D01*
X152580758Y-88928024D01*
X152432924Y-88849005D01*
X152432922Y-88849004D01*
X152303341Y-88742659D01*
X152196996Y-88613078D01*
X152158523Y-88541100D01*
X152117976Y-88465242D01*
X152069313Y-88304823D01*
X152052883Y-88138000D01*
X152069313Y-87971177D01*
X152117976Y-87810758D01*
X152196995Y-87662924D01*
X152196996Y-87662922D01*
X152303341Y-87533341D01*
X152432922Y-87426996D01*
X152513639Y-87383852D01*
X152580758Y-87347976D01*
X152741177Y-87299313D01*
X152866196Y-87287000D01*
X152949804Y-87287000D01*
X153074823Y-87299313D01*
X153074823Y-87299313D01*
G37*
G36*
X168314823Y-87299313D02*
G01*
X168475242Y-87347976D01*
X168542361Y-87383852D01*
X168623078Y-87426996D01*
X168752659Y-87533341D01*
X168859004Y-87662922D01*
X168859005Y-87662924D01*
X168938024Y-87810758D01*
X168986687Y-87971177D01*
X169003117Y-88138000D01*
X168986687Y-88304823D01*
X168938024Y-88465242D01*
X168897477Y-88541100D01*
X168859004Y-88613078D01*
X168752659Y-88742659D01*
X168623078Y-88849004D01*
X168623076Y-88849005D01*
X168475242Y-88928024D01*
X168314823Y-88976687D01*
X168189804Y-88989000D01*
X168106196Y-88989000D01*
X167981177Y-88976687D01*
X167820758Y-88928024D01*
X167672924Y-88849005D01*
X167672922Y-88849004D01*
X167543341Y-88742659D01*
X167436996Y-88613078D01*
X167398523Y-88541100D01*
X167357976Y-88465242D01*
X167309313Y-88304823D01*
X167292883Y-88138000D01*
X167309313Y-87971177D01*
X167357976Y-87810758D01*
X167436995Y-87662924D01*
X167436996Y-87662922D01*
X167543341Y-87533341D01*
X167672922Y-87426996D01*
X167753639Y-87383852D01*
X167820758Y-87347976D01*
X167981177Y-87299313D01*
X168106196Y-87287000D01*
X168189804Y-87287000D01*
X168314823Y-87299313D01*
X168314823Y-87299313D01*
G37*
G36*
X165774823Y-87299313D02*
G01*
X165935242Y-87347976D01*
X166002361Y-87383852D01*
X166083078Y-87426996D01*
X166212659Y-87533341D01*
X166319004Y-87662922D01*
X166319005Y-87662924D01*
X166398024Y-87810758D01*
X166446687Y-87971177D01*
X166463117Y-88138000D01*
X166446687Y-88304823D01*
X166398024Y-88465242D01*
X166357477Y-88541100D01*
X166319004Y-88613078D01*
X166212659Y-88742659D01*
X166083078Y-88849004D01*
X166083076Y-88849005D01*
X165935242Y-88928024D01*
X165774823Y-88976687D01*
X165649804Y-88989000D01*
X165566196Y-88989000D01*
X165441177Y-88976687D01*
X165280758Y-88928024D01*
X165132924Y-88849005D01*
X165132922Y-88849004D01*
X165003341Y-88742659D01*
X164896996Y-88613078D01*
X164858523Y-88541100D01*
X164817976Y-88465242D01*
X164769313Y-88304823D01*
X164752883Y-88138000D01*
X164769313Y-87971177D01*
X164817976Y-87810758D01*
X164896995Y-87662924D01*
X164896996Y-87662922D01*
X165003341Y-87533341D01*
X165132922Y-87426996D01*
X165213639Y-87383852D01*
X165280758Y-87347976D01*
X165441177Y-87299313D01*
X165566196Y-87287000D01*
X165649804Y-87287000D01*
X165774823Y-87299313D01*
X165774823Y-87299313D01*
G37*
G36*
X163234823Y-87299313D02*
G01*
X163395242Y-87347976D01*
X163462361Y-87383852D01*
X163543078Y-87426996D01*
X163672659Y-87533341D01*
X163779004Y-87662922D01*
X163779005Y-87662924D01*
X163858024Y-87810758D01*
X163906687Y-87971177D01*
X163923117Y-88138000D01*
X163906687Y-88304823D01*
X163858024Y-88465242D01*
X163817477Y-88541100D01*
X163779004Y-88613078D01*
X163672659Y-88742659D01*
X163543078Y-88849004D01*
X163543076Y-88849005D01*
X163395242Y-88928024D01*
X163234823Y-88976687D01*
X163109804Y-88989000D01*
X163026196Y-88989000D01*
X162901177Y-88976687D01*
X162740758Y-88928024D01*
X162592924Y-88849005D01*
X162592922Y-88849004D01*
X162463341Y-88742659D01*
X162356996Y-88613078D01*
X162318523Y-88541100D01*
X162277976Y-88465242D01*
X162229313Y-88304823D01*
X162212883Y-88138000D01*
X162229313Y-87971177D01*
X162277976Y-87810758D01*
X162356995Y-87662924D01*
X162356996Y-87662922D01*
X162463341Y-87533341D01*
X162592922Y-87426996D01*
X162673639Y-87383852D01*
X162740758Y-87347976D01*
X162901177Y-87299313D01*
X163026196Y-87287000D01*
X163109804Y-87287000D01*
X163234823Y-87299313D01*
X163234823Y-87299313D01*
G37*
G36*
X155614823Y-87299313D02*
G01*
X155775242Y-87347976D01*
X155842361Y-87383852D01*
X155923078Y-87426996D01*
X156052659Y-87533341D01*
X156159004Y-87662922D01*
X156159005Y-87662924D01*
X156238024Y-87810758D01*
X156286687Y-87971177D01*
X156303117Y-88138000D01*
X156286687Y-88304823D01*
X156238024Y-88465242D01*
X156197477Y-88541100D01*
X156159004Y-88613078D01*
X156052659Y-88742659D01*
X155923078Y-88849004D01*
X155923076Y-88849005D01*
X155775242Y-88928024D01*
X155614823Y-88976687D01*
X155489804Y-88989000D01*
X155406196Y-88989000D01*
X155281177Y-88976687D01*
X155120758Y-88928024D01*
X154972924Y-88849005D01*
X154972922Y-88849004D01*
X154843341Y-88742659D01*
X154736996Y-88613078D01*
X154698523Y-88541100D01*
X154657976Y-88465242D01*
X154609313Y-88304823D01*
X154592883Y-88138000D01*
X154609313Y-87971177D01*
X154657976Y-87810758D01*
X154736995Y-87662924D01*
X154736996Y-87662922D01*
X154843341Y-87533341D01*
X154972922Y-87426996D01*
X155053639Y-87383852D01*
X155120758Y-87347976D01*
X155281177Y-87299313D01*
X155406196Y-87287000D01*
X155489804Y-87287000D01*
X155614823Y-87299313D01*
X155614823Y-87299313D01*
G37*
G36*
X158154823Y-87299313D02*
G01*
X158315242Y-87347976D01*
X158382361Y-87383852D01*
X158463078Y-87426996D01*
X158592659Y-87533341D01*
X158699004Y-87662922D01*
X158699005Y-87662924D01*
X158778024Y-87810758D01*
X158826687Y-87971177D01*
X158843117Y-88138000D01*
X158826687Y-88304823D01*
X158778024Y-88465242D01*
X158737477Y-88541100D01*
X158699004Y-88613078D01*
X158592659Y-88742659D01*
X158463078Y-88849004D01*
X158463076Y-88849005D01*
X158315242Y-88928024D01*
X158154823Y-88976687D01*
X158029804Y-88989000D01*
X157946196Y-88989000D01*
X157821177Y-88976687D01*
X157660758Y-88928024D01*
X157512924Y-88849005D01*
X157512922Y-88849004D01*
X157383341Y-88742659D01*
X157276996Y-88613078D01*
X157238523Y-88541100D01*
X157197976Y-88465242D01*
X157149313Y-88304823D01*
X157132883Y-88138000D01*
X157149313Y-87971177D01*
X157197976Y-87810758D01*
X157276995Y-87662924D01*
X157276996Y-87662922D01*
X157383341Y-87533341D01*
X157512922Y-87426996D01*
X157593639Y-87383852D01*
X157660758Y-87347976D01*
X157821177Y-87299313D01*
X157946196Y-87287000D01*
X158029804Y-87287000D01*
X158154823Y-87299313D01*
X158154823Y-87299313D01*
G37*
G36*
X172968228Y-87319703D02*
G01*
X173123100Y-87383853D01*
X173262481Y-87476985D01*
X173381015Y-87595519D01*
X173474147Y-87734900D01*
X173538297Y-87889772D01*
X173571000Y-88054184D01*
X173571000Y-88221816D01*
X173538297Y-88386228D01*
X173474147Y-88541100D01*
X173381015Y-88680481D01*
X173262481Y-88799015D01*
X173123100Y-88892147D01*
X172968228Y-88956297D01*
X172803816Y-88989000D01*
X172636184Y-88989000D01*
X172471772Y-88956297D01*
X172316900Y-88892147D01*
X172177519Y-88799015D01*
X172058985Y-88680481D01*
X171965853Y-88541100D01*
X171901703Y-88386228D01*
X171869000Y-88221816D01*
X171869000Y-88054184D01*
X171901703Y-87889772D01*
X171965853Y-87734900D01*
X172058985Y-87595519D01*
X172177519Y-87476985D01*
X172316900Y-87383853D01*
X172471772Y-87319703D01*
X172636184Y-87287000D01*
X172803816Y-87287000D01*
X172968228Y-87319703D01*
X172968228Y-87319703D01*
G37*
G36*
X182990442Y-85465518D02*
G01*
X183056627Y-85472037D01*
X183226466Y-85523557D01*
X183382991Y-85607222D01*
X183418729Y-85636552D01*
X183520186Y-85719814D01*
X183603448Y-85821271D01*
X183632778Y-85857009D01*
X183716443Y-86013534D01*
X183767963Y-86183373D01*
X183785359Y-86360000D01*
X183767963Y-86536627D01*
X183716443Y-86706466D01*
X183632778Y-86862991D01*
X183603448Y-86898729D01*
X183520186Y-87000186D01*
X183418729Y-87083448D01*
X183382991Y-87112778D01*
X183226466Y-87196443D01*
X183056627Y-87247963D01*
X182990442Y-87254482D01*
X182924260Y-87261000D01*
X182835740Y-87261000D01*
X182769558Y-87254482D01*
X182703373Y-87247963D01*
X182533534Y-87196443D01*
X182377009Y-87112778D01*
X182341271Y-87083448D01*
X182239814Y-87000186D01*
X182156552Y-86898729D01*
X182127222Y-86862991D01*
X182043557Y-86706466D01*
X181992037Y-86536627D01*
X181974641Y-86360000D01*
X181992037Y-86183373D01*
X182043557Y-86013534D01*
X182127222Y-85857009D01*
X182156552Y-85821271D01*
X182239814Y-85719814D01*
X182341271Y-85636552D01*
X182377009Y-85607222D01*
X182533534Y-85523557D01*
X182703373Y-85472037D01*
X182769558Y-85465518D01*
X182835740Y-85459000D01*
X182924260Y-85459000D01*
X182990442Y-85465518D01*
X182990442Y-85465518D01*
G37*
G36*
X129650442Y-85465518D02*
G01*
X129716627Y-85472037D01*
X129886466Y-85523557D01*
X130042991Y-85607222D01*
X130078729Y-85636552D01*
X130180186Y-85719814D01*
X130263448Y-85821271D01*
X130292778Y-85857009D01*
X130376443Y-86013534D01*
X130427963Y-86183373D01*
X130445359Y-86360000D01*
X130427963Y-86536627D01*
X130376443Y-86706466D01*
X130292778Y-86862991D01*
X130263448Y-86898729D01*
X130180186Y-87000186D01*
X130078729Y-87083448D01*
X130042991Y-87112778D01*
X129886466Y-87196443D01*
X129716627Y-87247963D01*
X129650442Y-87254482D01*
X129584260Y-87261000D01*
X129495740Y-87261000D01*
X129429558Y-87254482D01*
X129363373Y-87247963D01*
X129193534Y-87196443D01*
X129037009Y-87112778D01*
X129001271Y-87083448D01*
X128899814Y-87000186D01*
X128816552Y-86898729D01*
X128787222Y-86862991D01*
X128703557Y-86706466D01*
X128652037Y-86536627D01*
X128634641Y-86360000D01*
X128652037Y-86183373D01*
X128703557Y-86013534D01*
X128787222Y-85857009D01*
X128816552Y-85821271D01*
X128899814Y-85719814D01*
X129001271Y-85636552D01*
X129037009Y-85607222D01*
X129193534Y-85523557D01*
X129363373Y-85472037D01*
X129429558Y-85465518D01*
X129495740Y-85459000D01*
X129584260Y-85459000D01*
X129650442Y-85465518D01*
X129650442Y-85465518D01*
G37*
G36*
X165856228Y-84779703D02*
G01*
X166011100Y-84843853D01*
X166150481Y-84936985D01*
X166269015Y-85055519D01*
X166362147Y-85194900D01*
X166426297Y-85349772D01*
X166459000Y-85514184D01*
X166459000Y-85681816D01*
X166426297Y-85846228D01*
X166362147Y-86001100D01*
X166269015Y-86140481D01*
X166150481Y-86259015D01*
X166011100Y-86352147D01*
X165856228Y-86416297D01*
X165691816Y-86449000D01*
X165524184Y-86449000D01*
X165359772Y-86416297D01*
X165204900Y-86352147D01*
X165065519Y-86259015D01*
X164946985Y-86140481D01*
X164853853Y-86001100D01*
X164789703Y-85846228D01*
X164757000Y-85681816D01*
X164757000Y-85514184D01*
X164789703Y-85349772D01*
X164853853Y-85194900D01*
X164946985Y-85055519D01*
X165065519Y-84936985D01*
X165204900Y-84843853D01*
X165359772Y-84779703D01*
X165524184Y-84747000D01*
X165691816Y-84747000D01*
X165856228Y-84779703D01*
X165856228Y-84779703D01*
G37*
G36*
X153664228Y-84779703D02*
G01*
X153819100Y-84843853D01*
X153958481Y-84936985D01*
X154077015Y-85055519D01*
X154170147Y-85194900D01*
X154234297Y-85349772D01*
X154267000Y-85514184D01*
X154267000Y-85681816D01*
X154234297Y-85846228D01*
X154170147Y-86001100D01*
X154077015Y-86140481D01*
X153958481Y-86259015D01*
X153819100Y-86352147D01*
X153664228Y-86416297D01*
X153499816Y-86449000D01*
X153332184Y-86449000D01*
X153167772Y-86416297D01*
X153012900Y-86352147D01*
X152873519Y-86259015D01*
X152754985Y-86140481D01*
X152661853Y-86001100D01*
X152597703Y-85846228D01*
X152565000Y-85681816D01*
X152565000Y-85514184D01*
X152597703Y-85349772D01*
X152661853Y-85194900D01*
X152754985Y-85055519D01*
X152873519Y-84936985D01*
X153012900Y-84843853D01*
X153167772Y-84779703D01*
X153332184Y-84747000D01*
X153499816Y-84747000D01*
X153664228Y-84779703D01*
X153664228Y-84779703D01*
G37*
G36*
X147266674Y-84851465D02*
G01*
X147304367Y-84862899D01*
X147339103Y-84881466D01*
X147369548Y-84906452D01*
X147394534Y-84936897D01*
X147413101Y-84971633D01*
X147424535Y-85009326D01*
X147429000Y-85054661D01*
X147429000Y-86141339D01*
X147424535Y-86186674D01*
X147413101Y-86224367D01*
X147394534Y-86259103D01*
X147369548Y-86289548D01*
X147339103Y-86314534D01*
X147304367Y-86333101D01*
X147266674Y-86344535D01*
X147221339Y-86349000D01*
X146384661Y-86349000D01*
X146339326Y-86344535D01*
X146301633Y-86333101D01*
X146266897Y-86314534D01*
X146236452Y-86289548D01*
X146211466Y-86259103D01*
X146192899Y-86224367D01*
X146181465Y-86186674D01*
X146177000Y-86141339D01*
X146177000Y-85054661D01*
X146181465Y-85009326D01*
X146192899Y-84971633D01*
X146211466Y-84936897D01*
X146236452Y-84906452D01*
X146266897Y-84881466D01*
X146301633Y-84862899D01*
X146339326Y-84851465D01*
X146384661Y-84847000D01*
X147221339Y-84847000D01*
X147266674Y-84851465D01*
X147266674Y-84851465D01*
G37*
G36*
X160501674Y-84851465D02*
G01*
X160539367Y-84862899D01*
X160574103Y-84881466D01*
X160604548Y-84906452D01*
X160629534Y-84936897D01*
X160648101Y-84971633D01*
X160659535Y-85009326D01*
X160664000Y-85054661D01*
X160664000Y-86141339D01*
X160659535Y-86186674D01*
X160648101Y-86224367D01*
X160629534Y-86259103D01*
X160604548Y-86289548D01*
X160574103Y-86314534D01*
X160539367Y-86333101D01*
X160501674Y-86344535D01*
X160456339Y-86349000D01*
X159619661Y-86349000D01*
X159574326Y-86344535D01*
X159536633Y-86333101D01*
X159501897Y-86314534D01*
X159471452Y-86289548D01*
X159446466Y-86259103D01*
X159427899Y-86224367D01*
X159416465Y-86186674D01*
X159412000Y-86141339D01*
X159412000Y-85054661D01*
X159416465Y-85009326D01*
X159427899Y-84971633D01*
X159446466Y-84936897D01*
X159471452Y-84906452D01*
X159501897Y-84881466D01*
X159536633Y-84862899D01*
X159574326Y-84851465D01*
X159619661Y-84847000D01*
X160456339Y-84847000D01*
X160501674Y-84851465D01*
X160501674Y-84851465D01*
G37*
G36*
X158451674Y-84851465D02*
G01*
X158489367Y-84862899D01*
X158524103Y-84881466D01*
X158554548Y-84906452D01*
X158579534Y-84936897D01*
X158598101Y-84971633D01*
X158609535Y-85009326D01*
X158614000Y-85054661D01*
X158614000Y-86141339D01*
X158609535Y-86186674D01*
X158598101Y-86224367D01*
X158579534Y-86259103D01*
X158554548Y-86289548D01*
X158524103Y-86314534D01*
X158489367Y-86333101D01*
X158451674Y-86344535D01*
X158406339Y-86349000D01*
X157569661Y-86349000D01*
X157524326Y-86344535D01*
X157486633Y-86333101D01*
X157451897Y-86314534D01*
X157421452Y-86289548D01*
X157396466Y-86259103D01*
X157377899Y-86224367D01*
X157366465Y-86186674D01*
X157362000Y-86141339D01*
X157362000Y-85054661D01*
X157366465Y-85009326D01*
X157377899Y-84971633D01*
X157396466Y-84936897D01*
X157421452Y-84906452D01*
X157451897Y-84881466D01*
X157486633Y-84862899D01*
X157524326Y-84851465D01*
X157569661Y-84847000D01*
X158406339Y-84847000D01*
X158451674Y-84851465D01*
X158451674Y-84851465D01*
G37*
G36*
X149316674Y-84851465D02*
G01*
X149354367Y-84862899D01*
X149389103Y-84881466D01*
X149419548Y-84906452D01*
X149444534Y-84936897D01*
X149463101Y-84971633D01*
X149474535Y-85009326D01*
X149479000Y-85054661D01*
X149479000Y-86141339D01*
X149474535Y-86186674D01*
X149463101Y-86224367D01*
X149444534Y-86259103D01*
X149419548Y-86289548D01*
X149389103Y-86314534D01*
X149354367Y-86333101D01*
X149316674Y-86344535D01*
X149271339Y-86349000D01*
X148434661Y-86349000D01*
X148389326Y-86344535D01*
X148351633Y-86333101D01*
X148316897Y-86314534D01*
X148286452Y-86289548D01*
X148261466Y-86259103D01*
X148242899Y-86224367D01*
X148231465Y-86186674D01*
X148227000Y-86141339D01*
X148227000Y-85054661D01*
X148231465Y-85009326D01*
X148242899Y-84971633D01*
X148261466Y-84936897D01*
X148286452Y-84906452D01*
X148316897Y-84881466D01*
X148351633Y-84862899D01*
X148389326Y-84851465D01*
X148434661Y-84847000D01*
X149271339Y-84847000D01*
X149316674Y-84851465D01*
X149316674Y-84851465D01*
G37*
G36*
X172167674Y-83327465D02*
G01*
X172205367Y-83338899D01*
X172240103Y-83357466D01*
X172270548Y-83382452D01*
X172295534Y-83412897D01*
X172314101Y-83447633D01*
X172325535Y-83485326D01*
X172330000Y-83530661D01*
X172330000Y-84617339D01*
X172325535Y-84662674D01*
X172314101Y-84700367D01*
X172295534Y-84735103D01*
X172270548Y-84765548D01*
X172240103Y-84790534D01*
X172205367Y-84809101D01*
X172167674Y-84820535D01*
X172122339Y-84825000D01*
X171285661Y-84825000D01*
X171240326Y-84820535D01*
X171202633Y-84809101D01*
X171167897Y-84790534D01*
X171137452Y-84765548D01*
X171112466Y-84735103D01*
X171093899Y-84700367D01*
X171082465Y-84662674D01*
X171078000Y-84617339D01*
X171078000Y-83530661D01*
X171082465Y-83485326D01*
X171093899Y-83447633D01*
X171112466Y-83412897D01*
X171137452Y-83382452D01*
X171167897Y-83357466D01*
X171202633Y-83338899D01*
X171240326Y-83327465D01*
X171285661Y-83323000D01*
X172122339Y-83323000D01*
X172167674Y-83327465D01*
X172167674Y-83327465D01*
G37*
G36*
X170117674Y-83327465D02*
G01*
X170155367Y-83338899D01*
X170190103Y-83357466D01*
X170220548Y-83382452D01*
X170245534Y-83412897D01*
X170264101Y-83447633D01*
X170275535Y-83485326D01*
X170280000Y-83530661D01*
X170280000Y-84617339D01*
X170275535Y-84662674D01*
X170264101Y-84700367D01*
X170245534Y-84735103D01*
X170220548Y-84765548D01*
X170190103Y-84790534D01*
X170155367Y-84809101D01*
X170117674Y-84820535D01*
X170072339Y-84825000D01*
X169235661Y-84825000D01*
X169190326Y-84820535D01*
X169152633Y-84809101D01*
X169117897Y-84790534D01*
X169087452Y-84765548D01*
X169062466Y-84735103D01*
X169043899Y-84700367D01*
X169032465Y-84662674D01*
X169028000Y-84617339D01*
X169028000Y-83530661D01*
X169032465Y-83485326D01*
X169043899Y-83447633D01*
X169062466Y-83412897D01*
X169087452Y-83382452D01*
X169117897Y-83357466D01*
X169152633Y-83338899D01*
X169190326Y-83327465D01*
X169235661Y-83323000D01*
X170072339Y-83323000D01*
X170117674Y-83327465D01*
X170117674Y-83327465D01*
G37*
G36*
X182990443Y-82925519D02*
G01*
X183056627Y-82932037D01*
X183226466Y-82983557D01*
X183382991Y-83067222D01*
X183418729Y-83096552D01*
X183520186Y-83179814D01*
X183603448Y-83281271D01*
X183632778Y-83317009D01*
X183716443Y-83473534D01*
X183767963Y-83643373D01*
X183785359Y-83820000D01*
X183767963Y-83996627D01*
X183716443Y-84166466D01*
X183632778Y-84322991D01*
X183603448Y-84358729D01*
X183520186Y-84460186D01*
X183418729Y-84543448D01*
X183382991Y-84572778D01*
X183226466Y-84656443D01*
X183056627Y-84707963D01*
X182990443Y-84714481D01*
X182924260Y-84721000D01*
X182835740Y-84721000D01*
X182769557Y-84714481D01*
X182703373Y-84707963D01*
X182533534Y-84656443D01*
X182377009Y-84572778D01*
X182341271Y-84543448D01*
X182239814Y-84460186D01*
X182156552Y-84358729D01*
X182127222Y-84322991D01*
X182043557Y-84166466D01*
X181992037Y-83996627D01*
X181974641Y-83820000D01*
X181992037Y-83643373D01*
X182043557Y-83473534D01*
X182127222Y-83317009D01*
X182156552Y-83281271D01*
X182239814Y-83179814D01*
X182341271Y-83096552D01*
X182377009Y-83067222D01*
X182533534Y-82983557D01*
X182703373Y-82932037D01*
X182769557Y-82925519D01*
X182835740Y-82919000D01*
X182924260Y-82919000D01*
X182990443Y-82925519D01*
X182990443Y-82925519D01*
G37*
G36*
X129650443Y-82925519D02*
G01*
X129716627Y-82932037D01*
X129886466Y-82983557D01*
X130042991Y-83067222D01*
X130078729Y-83096552D01*
X130180186Y-83179814D01*
X130263448Y-83281271D01*
X130292778Y-83317009D01*
X130376443Y-83473534D01*
X130427963Y-83643373D01*
X130445359Y-83820000D01*
X130427963Y-83996627D01*
X130376443Y-84166466D01*
X130292778Y-84322991D01*
X130263448Y-84358729D01*
X130180186Y-84460186D01*
X130078729Y-84543448D01*
X130042991Y-84572778D01*
X129886466Y-84656443D01*
X129716627Y-84707963D01*
X129650443Y-84714481D01*
X129584260Y-84721000D01*
X129495740Y-84721000D01*
X129429557Y-84714481D01*
X129363373Y-84707963D01*
X129193534Y-84656443D01*
X129037009Y-84572778D01*
X129001271Y-84543448D01*
X128899814Y-84460186D01*
X128816552Y-84358729D01*
X128787222Y-84322991D01*
X128703557Y-84166466D01*
X128652037Y-83996627D01*
X128634641Y-83820000D01*
X128652037Y-83643373D01*
X128703557Y-83473534D01*
X128787222Y-83317009D01*
X128816552Y-83281271D01*
X128899814Y-83179814D01*
X129001271Y-83096552D01*
X129037009Y-83067222D01*
X129193534Y-82983557D01*
X129363373Y-82932037D01*
X129429557Y-82925519D01*
X129495740Y-82919000D01*
X129584260Y-82919000D01*
X129650443Y-82925519D01*
X129650443Y-82925519D01*
G37*
G36*
X147266674Y-81549465D02*
G01*
X147304367Y-81560899D01*
X147339103Y-81579466D01*
X147369548Y-81604452D01*
X147394534Y-81634897D01*
X147413101Y-81669633D01*
X147424535Y-81707326D01*
X147429000Y-81752661D01*
X147429000Y-82839339D01*
X147424535Y-82884674D01*
X147413101Y-82922367D01*
X147394534Y-82957103D01*
X147369548Y-82987548D01*
X147339103Y-83012534D01*
X147304367Y-83031101D01*
X147266674Y-83042535D01*
X147221339Y-83047000D01*
X146384661Y-83047000D01*
X146339326Y-83042535D01*
X146301633Y-83031101D01*
X146266897Y-83012534D01*
X146236452Y-82987548D01*
X146211466Y-82957103D01*
X146192899Y-82922367D01*
X146181465Y-82884674D01*
X146177000Y-82839339D01*
X146177000Y-81752661D01*
X146181465Y-81707326D01*
X146192899Y-81669633D01*
X146211466Y-81634897D01*
X146236452Y-81604452D01*
X146266897Y-81579466D01*
X146301633Y-81560899D01*
X146339326Y-81549465D01*
X146384661Y-81545000D01*
X147221339Y-81545000D01*
X147266674Y-81549465D01*
X147266674Y-81549465D01*
G37*
G36*
X149316674Y-81549465D02*
G01*
X149354367Y-81560899D01*
X149389103Y-81579466D01*
X149419548Y-81604452D01*
X149444534Y-81634897D01*
X149463101Y-81669633D01*
X149474535Y-81707326D01*
X149479000Y-81752661D01*
X149479000Y-82839339D01*
X149474535Y-82884674D01*
X149463101Y-82922367D01*
X149444534Y-82957103D01*
X149419548Y-82987548D01*
X149389103Y-83012534D01*
X149354367Y-83031101D01*
X149316674Y-83042535D01*
X149271339Y-83047000D01*
X148434661Y-83047000D01*
X148389326Y-83042535D01*
X148351633Y-83031101D01*
X148316897Y-83012534D01*
X148286452Y-82987548D01*
X148261466Y-82957103D01*
X148242899Y-82922367D01*
X148231465Y-82884674D01*
X148227000Y-82839339D01*
X148227000Y-81752661D01*
X148231465Y-81707326D01*
X148242899Y-81669633D01*
X148261466Y-81634897D01*
X148286452Y-81604452D01*
X148316897Y-81579466D01*
X148351633Y-81560899D01*
X148389326Y-81549465D01*
X148434661Y-81545000D01*
X149271339Y-81545000D01*
X149316674Y-81549465D01*
X149316674Y-81549465D01*
G37*
G36*
X158442674Y-81549465D02*
G01*
X158480367Y-81560899D01*
X158515103Y-81579466D01*
X158545548Y-81604452D01*
X158570534Y-81634897D01*
X158589101Y-81669633D01*
X158600535Y-81707326D01*
X158605000Y-81752661D01*
X158605000Y-82839339D01*
X158600535Y-82884674D01*
X158589101Y-82922367D01*
X158570534Y-82957103D01*
X158545548Y-82987548D01*
X158515103Y-83012534D01*
X158480367Y-83031101D01*
X158442674Y-83042535D01*
X158397339Y-83047000D01*
X157560661Y-83047000D01*
X157515326Y-83042535D01*
X157477633Y-83031101D01*
X157442897Y-83012534D01*
X157412452Y-82987548D01*
X157387466Y-82957103D01*
X157368899Y-82922367D01*
X157357465Y-82884674D01*
X157353000Y-82839339D01*
X157353000Y-81752661D01*
X157357465Y-81707326D01*
X157368899Y-81669633D01*
X157387466Y-81634897D01*
X157412452Y-81604452D01*
X157442897Y-81579466D01*
X157477633Y-81560899D01*
X157515326Y-81549465D01*
X157560661Y-81545000D01*
X158397339Y-81545000D01*
X158442674Y-81549465D01*
X158442674Y-81549465D01*
G37*
G36*
X160492674Y-81549465D02*
G01*
X160530367Y-81560899D01*
X160565103Y-81579466D01*
X160595548Y-81604452D01*
X160620534Y-81634897D01*
X160639101Y-81669633D01*
X160650535Y-81707326D01*
X160655000Y-81752661D01*
X160655000Y-82839339D01*
X160650535Y-82884674D01*
X160639101Y-82922367D01*
X160620534Y-82957103D01*
X160595548Y-82987548D01*
X160565103Y-83012534D01*
X160530367Y-83031101D01*
X160492674Y-83042535D01*
X160447339Y-83047000D01*
X159610661Y-83047000D01*
X159565326Y-83042535D01*
X159527633Y-83031101D01*
X159492897Y-83012534D01*
X159462452Y-82987548D01*
X159437466Y-82957103D01*
X159418899Y-82922367D01*
X159407465Y-82884674D01*
X159403000Y-82839339D01*
X159403000Y-81752661D01*
X159407465Y-81707326D01*
X159418899Y-81669633D01*
X159437466Y-81634897D01*
X159462452Y-81604452D01*
X159492897Y-81579466D01*
X159527633Y-81560899D01*
X159565326Y-81549465D01*
X159610661Y-81545000D01*
X160447339Y-81545000D01*
X160492674Y-81549465D01*
X160492674Y-81549465D01*
G37*
G36*
X129650442Y-80385518D02*
G01*
X129716627Y-80392037D01*
X129886466Y-80443557D01*
X130042991Y-80527222D01*
X130078729Y-80556552D01*
X130180186Y-80639814D01*
X130263448Y-80741271D01*
X130292778Y-80777009D01*
X130376443Y-80933534D01*
X130427963Y-81103373D01*
X130445359Y-81280000D01*
X130427963Y-81456627D01*
X130376443Y-81626466D01*
X130292778Y-81782991D01*
X130264725Y-81817173D01*
X130180186Y-81920186D01*
X130078729Y-82003448D01*
X130042991Y-82032778D01*
X129886466Y-82116443D01*
X129716627Y-82167963D01*
X129650443Y-82174481D01*
X129584260Y-82181000D01*
X129495740Y-82181000D01*
X129429557Y-82174481D01*
X129363373Y-82167963D01*
X129193534Y-82116443D01*
X129037009Y-82032778D01*
X129001271Y-82003448D01*
X128899814Y-81920186D01*
X128815275Y-81817173D01*
X128787222Y-81782991D01*
X128703557Y-81626466D01*
X128652037Y-81456627D01*
X128634641Y-81280000D01*
X128652037Y-81103373D01*
X128703557Y-80933534D01*
X128787222Y-80777009D01*
X128816552Y-80741271D01*
X128899814Y-80639814D01*
X129001271Y-80556552D01*
X129037009Y-80527222D01*
X129193534Y-80443557D01*
X129363373Y-80392037D01*
X129429558Y-80385518D01*
X129495740Y-80379000D01*
X129584260Y-80379000D01*
X129650442Y-80385518D01*
X129650442Y-80385518D01*
G37*
G36*
X182990442Y-80385518D02*
G01*
X183056627Y-80392037D01*
X183226466Y-80443557D01*
X183382991Y-80527222D01*
X183418729Y-80556552D01*
X183520186Y-80639814D01*
X183603448Y-80741271D01*
X183632778Y-80777009D01*
X183716443Y-80933534D01*
X183767963Y-81103373D01*
X183785359Y-81280000D01*
X183767963Y-81456627D01*
X183716443Y-81626466D01*
X183632778Y-81782991D01*
X183604725Y-81817173D01*
X183520186Y-81920186D01*
X183418729Y-82003448D01*
X183382991Y-82032778D01*
X183226466Y-82116443D01*
X183056627Y-82167963D01*
X182990443Y-82174481D01*
X182924260Y-82181000D01*
X182835740Y-82181000D01*
X182769557Y-82174481D01*
X182703373Y-82167963D01*
X182533534Y-82116443D01*
X182377009Y-82032778D01*
X182341271Y-82003448D01*
X182239814Y-81920186D01*
X182155275Y-81817173D01*
X182127222Y-81782991D01*
X182043557Y-81626466D01*
X181992037Y-81456627D01*
X181974641Y-81280000D01*
X181992037Y-81103373D01*
X182043557Y-80933534D01*
X182127222Y-80777009D01*
X182156552Y-80741271D01*
X182239814Y-80639814D01*
X182341271Y-80556552D01*
X182377009Y-80527222D01*
X182533534Y-80443557D01*
X182703373Y-80392037D01*
X182769558Y-80385518D01*
X182835740Y-80379000D01*
X182924260Y-80379000D01*
X182990442Y-80385518D01*
X182990442Y-80385518D01*
G37*
G36*
X165856228Y-79779703D02*
G01*
X166011100Y-79843853D01*
X166150481Y-79936985D01*
X166269015Y-80055519D01*
X166362147Y-80194900D01*
X166426297Y-80349772D01*
X166459000Y-80514184D01*
X166459000Y-80681816D01*
X166426297Y-80846228D01*
X166362147Y-81001100D01*
X166269015Y-81140481D01*
X166150481Y-81259015D01*
X166011100Y-81352147D01*
X165856228Y-81416297D01*
X165691816Y-81449000D01*
X165524184Y-81449000D01*
X165359772Y-81416297D01*
X165204900Y-81352147D01*
X165065519Y-81259015D01*
X164946985Y-81140481D01*
X164853853Y-81001100D01*
X164789703Y-80846228D01*
X164757000Y-80681816D01*
X164757000Y-80514184D01*
X164789703Y-80349772D01*
X164853853Y-80194900D01*
X164946985Y-80055519D01*
X165065519Y-79936985D01*
X165204900Y-79843853D01*
X165359772Y-79779703D01*
X165524184Y-79747000D01*
X165691816Y-79747000D01*
X165856228Y-79779703D01*
X165856228Y-79779703D01*
G37*
G36*
X153664228Y-79779703D02*
G01*
X153819100Y-79843853D01*
X153958481Y-79936985D01*
X154077015Y-80055519D01*
X154170147Y-80194900D01*
X154234297Y-80349772D01*
X154267000Y-80514184D01*
X154267000Y-80681816D01*
X154234297Y-80846228D01*
X154170147Y-81001100D01*
X154077015Y-81140481D01*
X153958481Y-81259015D01*
X153819100Y-81352147D01*
X153664228Y-81416297D01*
X153499816Y-81449000D01*
X153332184Y-81449000D01*
X153167772Y-81416297D01*
X153012900Y-81352147D01*
X152873519Y-81259015D01*
X152754985Y-81140481D01*
X152661853Y-81001100D01*
X152597703Y-80846228D01*
X152565000Y-80681816D01*
X152565000Y-80514184D01*
X152597703Y-80349772D01*
X152661853Y-80194900D01*
X152754985Y-80055519D01*
X152873519Y-79936985D01*
X153012900Y-79843853D01*
X153167772Y-79779703D01*
X153332184Y-79747000D01*
X153499816Y-79747000D01*
X153664228Y-79779703D01*
X153664228Y-79779703D01*
G37*
G36*
X147257674Y-78247465D02*
G01*
X147295367Y-78258899D01*
X147330103Y-78277466D01*
X147360548Y-78302452D01*
X147385534Y-78332897D01*
X147404101Y-78367633D01*
X147415535Y-78405326D01*
X147420000Y-78450661D01*
X147420000Y-79537339D01*
X147415535Y-79582674D01*
X147404101Y-79620367D01*
X147385534Y-79655103D01*
X147360548Y-79685548D01*
X147330103Y-79710534D01*
X147295367Y-79729101D01*
X147257674Y-79740535D01*
X147212339Y-79745000D01*
X146375661Y-79745000D01*
X146330326Y-79740535D01*
X146292633Y-79729101D01*
X146257897Y-79710534D01*
X146227452Y-79685548D01*
X146202466Y-79655103D01*
X146183899Y-79620367D01*
X146172465Y-79582674D01*
X146168000Y-79537339D01*
X146168000Y-78450661D01*
X146172465Y-78405326D01*
X146183899Y-78367633D01*
X146202466Y-78332897D01*
X146227452Y-78302452D01*
X146257897Y-78277466D01*
X146292633Y-78258899D01*
X146330326Y-78247465D01*
X146375661Y-78243000D01*
X147212339Y-78243000D01*
X147257674Y-78247465D01*
X147257674Y-78247465D01*
G37*
G36*
X158433674Y-78247465D02*
G01*
X158471367Y-78258899D01*
X158506103Y-78277466D01*
X158536548Y-78302452D01*
X158561534Y-78332897D01*
X158580101Y-78367633D01*
X158591535Y-78405326D01*
X158596000Y-78450661D01*
X158596000Y-79537339D01*
X158591535Y-79582674D01*
X158580101Y-79620367D01*
X158561534Y-79655103D01*
X158536548Y-79685548D01*
X158506103Y-79710534D01*
X158471367Y-79729101D01*
X158433674Y-79740535D01*
X158388339Y-79745000D01*
X157551661Y-79745000D01*
X157506326Y-79740535D01*
X157468633Y-79729101D01*
X157433897Y-79710534D01*
X157403452Y-79685548D01*
X157378466Y-79655103D01*
X157359899Y-79620367D01*
X157348465Y-79582674D01*
X157344000Y-79537339D01*
X157344000Y-78450661D01*
X157348465Y-78405326D01*
X157359899Y-78367633D01*
X157378466Y-78332897D01*
X157403452Y-78302452D01*
X157433897Y-78277466D01*
X157468633Y-78258899D01*
X157506326Y-78247465D01*
X157551661Y-78243000D01*
X158388339Y-78243000D01*
X158433674Y-78247465D01*
X158433674Y-78247465D01*
G37*
G36*
X160483674Y-78247465D02*
G01*
X160521367Y-78258899D01*
X160556103Y-78277466D01*
X160586548Y-78302452D01*
X160611534Y-78332897D01*
X160630101Y-78367633D01*
X160641535Y-78405326D01*
X160646000Y-78450661D01*
X160646000Y-79537339D01*
X160641535Y-79582674D01*
X160630101Y-79620367D01*
X160611534Y-79655103D01*
X160586548Y-79685548D01*
X160556103Y-79710534D01*
X160521367Y-79729101D01*
X160483674Y-79740535D01*
X160438339Y-79745000D01*
X159601661Y-79745000D01*
X159556326Y-79740535D01*
X159518633Y-79729101D01*
X159483897Y-79710534D01*
X159453452Y-79685548D01*
X159428466Y-79655103D01*
X159409899Y-79620367D01*
X159398465Y-79582674D01*
X159394000Y-79537339D01*
X159394000Y-78450661D01*
X159398465Y-78405326D01*
X159409899Y-78367633D01*
X159428466Y-78332897D01*
X159453452Y-78302452D01*
X159483897Y-78277466D01*
X159518633Y-78258899D01*
X159556326Y-78247465D01*
X159601661Y-78243000D01*
X160438339Y-78243000D01*
X160483674Y-78247465D01*
X160483674Y-78247465D01*
G37*
G36*
X149307674Y-78247465D02*
G01*
X149345367Y-78258899D01*
X149380103Y-78277466D01*
X149410548Y-78302452D01*
X149435534Y-78332897D01*
X149454101Y-78367633D01*
X149465535Y-78405326D01*
X149470000Y-78450661D01*
X149470000Y-79537339D01*
X149465535Y-79582674D01*
X149454101Y-79620367D01*
X149435534Y-79655103D01*
X149410548Y-79685548D01*
X149380103Y-79710534D01*
X149345367Y-79729101D01*
X149307674Y-79740535D01*
X149262339Y-79745000D01*
X148425661Y-79745000D01*
X148380326Y-79740535D01*
X148342633Y-79729101D01*
X148307897Y-79710534D01*
X148277452Y-79685548D01*
X148252466Y-79655103D01*
X148233899Y-79620367D01*
X148222465Y-79582674D01*
X148218000Y-79537339D01*
X148218000Y-78450661D01*
X148222465Y-78405326D01*
X148233899Y-78367633D01*
X148252466Y-78332897D01*
X148277452Y-78302452D01*
X148307897Y-78277466D01*
X148342633Y-78258899D01*
X148380326Y-78247465D01*
X148425661Y-78243000D01*
X149262339Y-78243000D01*
X149307674Y-78247465D01*
X149307674Y-78247465D01*
G37*
G36*
X183781000Y-79641000D02*
G01*
X181979000Y-79641000D01*
X181979000Y-77839000D01*
X183781000Y-77839000D01*
X183781000Y-79641000D01*
X183781000Y-79641000D01*
G37*
G36*
X130441000Y-79641000D02*
G01*
X128639000Y-79641000D01*
X128639000Y-77839000D01*
X130441000Y-77839000D01*
X130441000Y-79641000D01*
X130441000Y-79641000D01*
G37*
M02*
