M48
; DRILL file {KiCad 5.1.2-f72e74a~84~ubuntu18.04.1} date Tue 11 Jun 2019 02:15:49 PM EDT
; FORMAT={-:-/ absolute / inch / decimal}
; #@! TF.CreationDate,2019-06-11T14:15:49-04:00
; #@! TF.GenerationSoftware,Kicad,Pcbnew,5.1.2-f72e74a~84~ubuntu18.04.1
; #@! TF.FileFunction,Plated,1,2,PTH
FMAT,2
INCH
T1C0.0157
T2C0.0315
T3C0.0394
%
G90
G05
T1
X6.23Y-4.38
X6.23Y-4.65
X6.77Y-4.74
X6.8715Y-3.64
X6.9Y-4.66
T2
X5.82Y-3.47
X5.82Y-3.77
X5.92Y-3.47
X5.92Y-3.77
X6.02Y-3.47
X6.02Y-3.77
X6.12Y-3.47
X6.12Y-3.77
X6.22Y-3.47
X6.22Y-3.77
X6.32Y-3.47
X6.32Y-3.77
X6.42Y-3.47
X6.42Y-3.77
X6.52Y-3.47
X6.52Y-3.77
X6.62Y-3.47
X6.62Y-3.77
X6.22Y-3.87
X6.22Y-4.0669
X6.52Y-3.1731
X6.52Y-3.37
X6.04Y-3.1731
X6.04Y-3.37
X6.02Y-3.87
X6.02Y-4.0669
X6.4231Y-4.21
X6.62Y-4.21
X6.8Y-3.47
X6.9969Y-3.47
T3
X5.1Y-4.6
X5.1Y-4.7
X5.1Y-4.8
X5.1Y-4.9
X5.1Y-3.1
X5.1Y-3.2
X5.1Y-3.3
X5.1Y-3.4
X7.2Y-4.2
X7.2Y-4.3
X7.2Y-4.4
X7.2Y-4.5
X7.2Y-4.6
X7.2Y-4.7
X7.2Y-4.8
X7.2Y-4.9
X7.2Y-3.1
X7.2Y-3.2
X7.2Y-3.3
X7.2Y-3.4
T0
M30
